<svg version="1.1" id="Capa_1" xmlns="http://www.w3.org/2000/svg" xmlns:xlink="http://www.w3.org/1999/xlink" x="0px" y="0px" viewBox="0 0 512 512" style="enable-background:new 0 0 512 512;" xml:space="preserve" width="300" height="300" xmlns:svgjs="http://svgjs.dev/svgjs"><g width="100%" height="100%" transform="matrix(-1,0,0,1,512.0028133392334,0)"><g>
	<g>
		<path d="M489.505,103.647c-21.494-12.409-49.073-5.019-61.484,16.474l-33.671,58.319l23.135-86.122&#10;&#9;&#9;&#9;c6.423-23.972-7.854-48.7-31.826-55.124c-23.969-6.424-48.7,7.854-55.121,31.818l-25.564,95.184V47.262&#10;&#9;&#9;&#9;c0-24.492-19.62-45.615-43.754-45.615c-24.884,0-46.263,18.735-46.263,44.991v116.288l-22.765-85.291&#10;&#9;&#9;&#9;c-6.339-23.657-30.626-38.485-54.07-32.736c-31.56,7.74-37.811,37.12-33.045,55.416l45.869,171.957v46.403l-73.753-73.753&#10;&#9;&#9;&#9;c-17.317-17.319-46.128-18.384-63.194-1.317c-20.141,20.141-16.839,48.587-0.914,64.512l158.547,159.008&#10;&#9;&#9;&#9;c27.794,27.875,64.782,43.227,104.146,43.227c61.079,0,114.729-41.218,130.466-100.236l32.168-120.632&#10;&#9;&#9;&#9;c2.37-8.889,5.903-17.438,10.501-25.411l57.068-98.942C518.387,143.638,510.997,116.057,489.505,103.647z M479.991,150.134&#10;&#9;&#9;&#9;l-57.072,98.949c-5.911,10.25-10.454,21.242-13.501,32.67L377.25,402.386c-12.24,45.902-53.968,77.96-101.475,77.96&#10;&#9;&#9;&#9;c-31.333,0-60.774-12.219-82.898-34.408L34.316,286.916c-6.126-6.127-5.581-15.63,0.309-21.519&#10;&#9;&#9;&#9;c6.279-6.279,16.448-4.158,21.349,0.744l73.753,73.753c8.612,8.612,21.447,11.165,32.699,6.504&#10;&#9;&#9;&#9;c11.252-4.661,18.524-15.543,18.524-27.722v-50.337L134.063,92.566c-1.057-3.947-1.247-14.923,11.027-18.482&#10;&#9;&#9;&#9;c7.721-2.239,15.945,3.21,18.113,11.303L216.3,284.309h28.664V46.639c0-8.128,6.751-14.997,15.436-14.997&#10;&#9;&#9;&#9;c8.036,0,14.57,7.227,14.57,15.621v237.046h28.818l55.734-207.52c2.14-7.992,10.384-12.752,18.374-10.609&#10;&#9;&#9;&#9;c7.991,2.14,12.749,10.384,10.611,18.366l-53.659,199.764h33.032l86.13-149.183c4.137-7.164,13.333-9.627,20.495-5.492&#10;&#9;&#9;&#9;C481.666,133.771,484.13,142.965,479.991,150.134z" fill="#333333" fill-opacity="1" data-original-color="#000000ff" stroke="none" stroke-opacity="1"/>
	</g>
</g><g>
</g><g>
</g><g>
</g><g>
</g><g>
</g><g>
</g><g>
</g><g>
</g><g>
</g><g>
</g><g>
</g><g>
</g><g>
</g><g>
</g><g>
</g></g></svg>