<svg id="Layer_1" enable-background="new 0 0 64 64" viewBox="0 0 64 64" xmlns="http://www.w3.org/2000/svg" width="300" height="300" version="1.1" xmlns:xlink="http://www.w3.org/1999/xlink" xmlns:svgjs="http://svgjs.dev/svgjs"><g width="100%" height="100%" transform="matrix(1,0,0,1,0,0)"><g><g><path d="m31.1 64c-10.35 0-19.04-7.76-20.2-18.05l-.48-4.28-9.48-14.8c-.8-1.25-1.05-2.73-.72-4.17.34-1.44 1.22-2.66 2.49-3.42l.2-.12c1.28-.78 2.78-.99 4.23-.6 1.44.39 2.64 1.32 3.36 2.63l3 5.44-4.49-14.14c-.45-1.42-.31-2.93.4-4.25.71-1.31 1.9-2.26 3.35-2.65l.78-.21c1.41-.39 2.89-.2 4.16.53s2.17 1.91 2.55 3.32l4.29 16.11v-19.89c0-3 2.44-5.45 5.45-5.45h.61c1.47 0 2.84.57 3.88 1.62 1.03 1.04 1.59 2.43 1.57 3.89l-.24 19.98 5.42-18.35c.45-1.51 1.53-2.76 2.96-3.41 1.43-.66 3.08-.66 4.52 0 2.49 1.13 3.76 3.96 2.95 6.57-2.15 6.91-7.06 23.36-7.67 31.09 2.78-3.86 9.4-10.28 15.64-9.4 1.86.26 3.39 1.52 4.02 3.29.63 1.78.21 3.74-1.08 5.11-3.74 3.98-10.95 11.58-17.18 17.75-3.82 3.78-8.89 5.86-14.29 5.86zm-25.39-43.7c-.63 0-1.25.17-1.81.51l-.2.12c-.82.49-1.39 1.28-1.6 2.21-.22.93-.05 1.88.46 2.69l9.6 15c.08.12.13.27.15.41l.51 4.51c1.05 9.31 8.91 16.33 18.28 16.33 4.88 0 9.47-1.88 12.92-5.3 6.2-6.15 13.39-13.73 17.13-17.7.8-.85 1.05-2.03.66-3.14-.39-1.1-1.31-1.86-2.46-2.02-5.15-.72-11.55 5.1-14.24 9.27-.42.65-1.19.93-1.93.7s-1.22-.91-1.19-1.69c.28-7.53 5.55-25.2 7.8-32.45.52-1.68-.29-3.5-1.9-4.23-.93-.42-1.98-.42-2.91 0-.92.42-1.62 1.22-1.91 2.2l-7.41 25.06c-.14.46-.6.75-1.07.68-.48-.07-.83-.49-.82-.97l.32-26.97c.01-.94-.35-1.83-1.01-2.51-.66-.67-1.55-1.04-2.5-1.04h-.61c-1.93 0-3.51 1.57-3.51 3.51v27.31c0 .49-.36.9-.84.96s-.94-.24-1.06-.71l-6.2-23.27c-.24-.91-.82-1.67-1.64-2.14-.81-.51-1.76-.63-2.67-.38l-.78.21c-.93.26-1.69.86-2.15 1.71s-.55 1.82-.26 2.73l7.46 23.48c.15.48-.08.99-.54 1.18-.45.19-.99.02-1.23-.42l-7.76-14.03c-.47-.84-1.23-1.44-2.16-1.69-.31-.08-.61-.12-.92-.12z" fill="#333333" fill-opacity="1" data-original-color="#000000ff" stroke="none" stroke-opacity="1"/></g><g><path d="m28.77 57.89c-.46 0-.88-.33-.96-.81-.58-3.44.46-7.12 2.8-9.85 2.21-2.57 5.35-4 8.57-3.97.54.01.96.45.96.98-.01.54-.43.95-.98.96-.04 0-.09 0-.13 0-2.65 0-5.11 1.17-6.93 3.3-1.97 2.29-2.85 5.38-2.36 8.26.09.53-.27 1.03-.79 1.12-.07.01-.12.01-.18.01z" fill="#333333" fill-opacity="1" data-original-color="#000000ff" stroke="none" stroke-opacity="1"/></g></g></g></svg>