<svg id="Layer_1" enable-background="new 0 0 507.334 507.334" height="300" viewBox="0 0 507.334 507.334" width="300" xmlns="http://www.w3.org/2000/svg" version="1.1" xmlns:xlink="http://www.w3.org/1999/xlink" xmlns:svgjs="http://svgjs.dev/svgjs"><g width="100%" height="100%" transform="matrix(1,0,0,1,0,0)"><g><path d="m441.099 0h-374.863c-23.966 0-43.464 19.498-43.464 43.464v420.406c0 23.966 19.498 43.464 43.463 43.464h374.863c23.966 0 43.463-19.498 43.463-43.464v-420.406c.001-23.966-19.496-43.464-43.462-43.464zm-388.327 43.464c0-7.424 6.04-13.464 13.464-13.464h374.863c7.424 0 13.463 6.04 13.463 13.464v82.122h-401.79zm401.79 420.406c0 7.424-6.039 13.464-13.463 13.464h-374.863c-7.424 0-13.463-6.04-13.463-13.464v-308.284h401.79v308.284z" fill="#333333" fill-opacity="1" data-original-color="#000000ff" stroke="none" stroke-opacity="1"/><path d="m104.64 209.507h298.055c8.284 0 15-6.716 15-15s-6.716-15-15-15h-298.055c-8.284 0-15 6.716-15 15s6.716 15 15 15z" fill="#333333" fill-opacity="1" data-original-color="#000000ff" stroke="none" stroke-opacity="1"/><path d="m104.64 444.706h298.055c8.284 0 15-6.716 15-15v-182.417c0-8.284-6.716-15-15-15h-298.055c-8.284 0-15 6.716-15 15v182.417c0 8.284 6.716 15 15 15zm283.055-30h-268.055v-14.076h268.055zm-268.055-152.417h268.055v108.341h-268.055z" fill="#333333" fill-opacity="1" data-original-color="#000000ff" stroke="none" stroke-opacity="1"/><path d="m112.833 39.475c-21.128 0-38.318 17.189-38.318 38.318s17.189 38.318 38.318 38.318 38.318-17.189 38.318-38.318-17.189-38.318-38.318-38.318zm0 46.636c-4.586 0-8.318-3.731-8.318-8.318s3.731-8.318 8.318-8.318 8.318 3.731 8.318 8.318-3.731 8.318-8.318 8.318z" fill="#333333" fill-opacity="1" data-original-color="#000000ff" stroke="none" stroke-opacity="1"/><path d="m206.722 39.475c-21.128 0-38.318 17.189-38.318 38.318s17.189 38.318 38.318 38.318 38.318-17.189 38.318-38.318-17.189-38.318-38.318-38.318zm0 46.636c-4.586 0-8.318-3.731-8.318-8.318s3.731-8.318 8.318-8.318 8.318 3.731 8.318 8.318-3.731 8.318-8.318 8.318z" fill="#333333" fill-opacity="1" data-original-color="#000000ff" stroke="none" stroke-opacity="1"/><path d="m300.612 39.475c-21.128 0-38.317 17.189-38.317 38.318s17.189 38.318 38.317 38.318c21.129 0 38.318-17.189 38.318-38.318s-17.19-38.318-38.318-38.318zm0 46.636c-4.586 0-8.317-3.731-8.317-8.318s3.731-8.318 8.317-8.318c4.587 0 8.318 3.731 8.318 8.318s-3.732 8.318-8.318 8.318z" fill="#333333" fill-opacity="1" data-original-color="#000000ff" stroke="none" stroke-opacity="1"/><path d="m394.501 39.475c-21.128 0-38.317 17.189-38.317 38.318s17.189 38.318 38.317 38.318c21.129 0 38.318-17.189 38.318-38.318s-17.189-38.318-38.318-38.318zm0 46.636c-4.586 0-8.317-3.731-8.317-8.318s3.731-8.318 8.317-8.318c4.587 0 8.318 3.731 8.318 8.318s-3.731 8.318-8.318 8.318z" fill="#333333" fill-opacity="1" data-original-color="#000000ff" stroke="none" stroke-opacity="1"/></g></g></svg>