<svg id="Layer_1" viewBox="0 0 64 64" xmlns="http://www.w3.org/2000/svg" data-name="Layer 1" width="300" height="300" version="1.1" xmlns:xlink="http://www.w3.org/1999/xlink" xmlns:svgjs="http://svgjs.dev/svgjs"><g width="100%" height="100%" transform="matrix(1,0,0,1,0,0)"><path d="m14.4814453 14.6479492c2.3417969 0 4.2470703-1.9052734 4.2470703-4.2470703s-1.9052734-4.246582-4.2470703-4.246582c-2.3408203 0-4.2460938 1.9047852-4.2460938 4.246582s1.9052734 4.2470703 4.2460938 4.2470703zm0-6.4936523c1.2392578 0 2.2470703 1.0078125 2.2470703 2.246582 0 1.2392578-1.0078125 2.2470703-2.2470703 2.2470703-1.2382812 0-2.2460938-1.0078125-2.2460938-2.2470703 0-1.2387695 1.0078125-2.246582 2.2460938-2.246582z" fill="#333333" fill-opacity="1" data-original-color="#000000ff" stroke="none" stroke-opacity="1"/><path d="m26.1601562 14.6479492c2.3417969 0 4.2470703-1.9052734 4.2470703-4.2470703s-1.9052734-4.246582-4.2470703-4.246582c-2.3408203 0-4.2460938 1.9047852-4.2460938 4.246582s1.9052734 4.2470703 4.2460938 4.2470703zm0-6.4936523c1.2392578 0 2.2470703 1.0078125 2.2470703 2.246582 0 1.2392578-1.0078125 2.2470703-2.2470703 2.2470703-1.2382812 0-2.2460938-1.0078125-2.2460938-2.2470703 0-1.2387695 1.0078125-2.246582 2.2460938-2.246582z" fill="#333333" fill-opacity="1" data-original-color="#000000ff" stroke="none" stroke-opacity="1"/><path d="m37.8398438 14.6479492c2.3408203 0 4.2460938-1.9052734 4.2460938-4.2470703s-1.9052734-4.246582-4.2460938-4.246582c-2.3417969 0-4.2470703 1.9047852-4.2470703 4.246582s1.9052734 4.2470703 4.2470703 4.2470703zm0-6.4936523c1.2382812 0 2.2460938 1.0078125 2.2460938 2.246582 0 1.2392578-1.0078125 2.2470703-2.2460938 2.2470703-1.2392578 0-2.2470703-1.0078125-2.2470703-2.2470703 0-1.2387695 1.0078125-2.246582 2.2470703-2.246582z" fill="#333333" fill-opacity="1" data-original-color="#000000ff" stroke="none" stroke-opacity="1"/><path d="m49.5185547 14.6479492c2.3408203 0 4.2460938-1.9052734 4.2460938-4.2470703s-1.9052734-4.246582-4.2460938-4.246582c-2.3417969 0-4.2470703 1.9047852-4.2470703 4.246582s1.9052734 4.2470703 4.2470703 4.2470703zm0-6.4936523c1.2382812 0 2.2460938 1.0078125 2.2460938 2.246582 0 1.2392578-1.0078125 2.2470703-2.2460938 2.2470703-1.2392578 0-2.2470703-1.0078125-2.2470703-2.2470703 0-1.2387695 1.0078125-2.246582 2.2470703-2.246582z" fill="#333333" fill-opacity="1" data-original-color="#000000ff" stroke="none" stroke-opacity="1"/><path d="m10.1269531 62h43.7597657c3.6259766 0 6.5761719-2.956543 6.5761719-6.590332v-46.819336c0-3.6337891-2.9501953-6.590332-6.5761719-6.590332h-43.7597657c-3.6337891 0-6.5898438 2.956543-6.5898438 6.590332v46.819336c0 3.6337891 2.9560547 6.590332 6.5898438 6.590332zm48.3359375-6.590332c0 2.53125-2.0527344 4.590332-4.5761719 4.590332h-43.7597656c-2.53125 0-4.5898438-2.059082-4.5898438-4.590332v-36.6074219h52.9257813zm-48.3359375-51.409668h43.7597657c2.5234375 0 4.5761719 2.059082 4.5761719 4.590332v8.2119141h-52.9257813v-8.2119141c0-2.53125 2.0585938-4.590332 4.5898438-4.590332z" fill="#333333" fill-opacity="1" data-original-color="#000000ff" stroke="none" stroke-opacity="1"/><path d="m13.5722656 53.8500977h36.8554688c1.8408203 0 3.3378906-1.4975586 3.3378906-3.3378906v-23.9838868c0-1.840332-1.4970703-3.3378906-3.3378906-3.3378906h-36.8554688c-1.8408203 0-3.3378906 1.4975586-3.3378906 3.3378906v23.9838867c0 1.840332 1.4970703 3.3378906 3.3378906 3.3378906zm-1.3378906-27.3217773c0-.737793.6005859-1.3378906 1.3378906-1.3378906h36.8554688c.7373047 0 1.3378906.6000977 1.3378906 1.3378906v23.9838867c0 .737793-.6005859 1.3378906-1.3378906 1.3378906h-36.8554688c-.7373047 0-1.3378906-.6000977-1.3378906-1.3378906v-23.9838868z" fill="#333333" fill-opacity="1" data-original-color="#000000ff" stroke="none" stroke-opacity="1"/><path d="m18.5927734 29.9257812h26.8144531c.5527344 0 1-.4477539 1-1s-.4472656-1-1-1h-26.8144531c-.5527344 0-1 .4477539-1 1s.4472656 1 1 1z" fill="#333333" fill-opacity="1" data-original-color="#000000ff" stroke="none" stroke-opacity="1"/></g></svg>