<svg xmlns="http://www.w3.org/2000/svg" id="Layer_1" data-name="Layer 1" viewBox="0 0 64 64" width="300" height="300" version="1.1" xmlns:xlink="http://www.w3.org/1999/xlink" xmlns:svgjs="http://svgjs.dev/svgjs"><g width="100%" height="100%" transform="matrix(1,0,0,1,0,0)"><path d="M38,48c-14.019,0-25-5.271-25-12,0-2.845,1.91-5.47,5.524-7.592a26.86,26.86,0,0,1,6.2-2.608A47.171,47.171,0,0,1,38,24c7.352,0,14.277,1.5,19,4.125a1,1,0,1,1-.971,1.749C51.594,27.412,45.022,26,38,26a45.152,45.152,0,0,0-12.714,1.718,24.906,24.906,0,0,0-5.744,2.411C16.611,31.851,15,33.934,15,36c0,5.42,10.533,10,23,10s23-4.58,23-10a5.822,5.822,0,0,0-2.283-4.255,1,1,0,0,1,1.335-1.49A7.818,7.818,0,0,1,63,36C63,42.729,52.019,48,38,48Z" fill="#333333" fill-opacity="1" data-original-color="#000000ff" stroke="none" stroke-opacity="1"/><path d="M56,37a1,1,0,0,1-.828-.437C54.378,35.393,48.606,32,38,32s-16.378,3.393-17.173,4.563a1,1,0,0,1-1.654-1.125C20.665,33.245,27.68,30,38,30s17.335,3.245,18.827,5.438A1,1,0,0,1,56,37Z" fill="#333333" fill-opacity="1" data-original-color="#000000ff" stroke="none" stroke-opacity="1"/><path d="M38,58C14.8,58,13,41.161,13,36a1,1,0,0,1,2,0c0,6.013,2.241,20,23,20S61,42.013,61,36a1,1,0,0,1,2,0C63,41.161,61.2,58,38,58Z" fill="#333333" fill-opacity="1" data-original-color="#000000ff" stroke="none" stroke-opacity="1"/><path d="M19.048,30.27a1,1,0,0,1-.707-.293L2.168,13.81a3.988,3.988,0,0,1,0-5.64,4.082,4.082,0,0,1,5.641,0L22.938,23.293a1,1,0,0,1-1.415,1.414L6.4,9.584a2.034,2.034,0,0,0-2.813,0,1.989,1.989,0,0,0,0,2.812L19.755,28.563a1,1,0,0,1-.707,1.707Z" fill="#333333" fill-opacity="1" data-original-color="#000000ff" stroke="none" stroke-opacity="1"/><path d="M41,18a1,1,0,0,1-.665-1.748c.249-.231,1.451-1.537-.135-3.652-2.217-2.955-.881-5.444.135-6.348a1,1,0,0,1,1.337,1.489c-.26.243-1.456,1.548.128,3.659,2.217,2.955.881,5.444-.135,6.348A1,1,0,0,1,41,18Z" fill="#333333" fill-opacity="1" data-original-color="#000000ff" stroke="none" stroke-opacity="1"/><path d="M50,22a1,1,0,0,1-.665-1.748c.249-.231,1.451-1.537-.135-3.652-2.217-2.955-.881-5.444.135-6.348a1,1,0,0,1,1.337,1.489c-.26.243-1.456,1.548.128,3.659,2.217,2.955.881,5.444-.135,6.348A1,1,0,0,1,50,22Z" fill="#333333" fill-opacity="1" data-original-color="#000000ff" stroke="none" stroke-opacity="1"/><path d="M32,22a1,1,0,0,1-.665-1.748c.249-.231,1.451-1.537-.135-3.652-2.217-2.955-.881-5.444.135-6.348a1,1,0,0,1,1.337,1.489c-.26.243-1.456,1.548.128,3.659,2.217,2.955.881,5.444-.135,6.348A1,1,0,0,1,32,22Z" fill="#333333" fill-opacity="1" data-original-color="#000000ff" stroke="none" stroke-opacity="1"/><circle cx="6" cy="12" r="1" fill="#333333" fill-opacity="1" data-original-color="#000000ff" stroke="none" stroke-opacity="1"/></g></svg>