<svg id="Line" viewBox="0 0 64 64" xmlns="http://www.w3.org/2000/svg" width="300" height="300" version="1.1" xmlns:xlink="http://www.w3.org/1999/xlink" xmlns:svgjs="http://svgjs.dev/svgjs"><g width="100%" height="100%" transform="matrix(-1,0,0,1,63.99999237060547,0)"><g fill="rgb(0,0,0)"><g><path d="m53.70605 37.72168c-.82812 0-1.5-.67188-1.5-1.5 0-4.72168-9.18262-9.77637-22.85303-9.77637-8.61182 0-16.69629 2.22852-20.59619 5.67773-.61914.5498-1.56787.49219-2.11719-.12891-.54883-.62109-.49072-1.56836.12988-2.11816 4.48438-3.9668 13.13818-6.43066 22.5835-6.43066 14.49658 0 25.85303 5.6123 25.85303 12.77637 0 .82812-.67188 1.5-1.5 1.5z" fill="#333333" fill-opacity="1" data-original-color="#000000ff" stroke="none" stroke-opacity="1"/><path d="m52.31641 41.48047c-.45117 0-.89844-.20312-1.19336-.58984-3.11328-4.0791-12.06543-6.92773-21.77002-6.92773-9.70508 0-18.65771 2.84863-21.77051 6.92773-.50293.6582-1.44336.7832-2.10254.28223-.6582-.50293-.78467-1.44434-.28223-2.10254 3.75879-4.9248 13.24023-8.10742 24.15527-8.10742s20.396 3.18262 24.15479 8.10742c.50293.6582.37598 1.59961-.28223 2.10254-.27148.20703-.5918.30762-.90918.30762z" fill="#333333" fill-opacity="1" data-original-color="#000000ff" stroke="none" stroke-opacity="1"/><path d="m48.92285 31.00977c-.125 0-.25195-.01562-.37793-.04785-.80176-.20898-1.2832-1.02734-1.0752-1.8291.37891-1.45703 1.72754-6.31641 3.19531-7.69629.50684-.47656 1.26562-.84766 2.22656-1.31836 2.42871-1.18848 4.6084-2.41602 4.6084-4.36035 0-1.24512-1.22656-2.25781-2.73438-2.25781-1.5752 0-3.13574 1.82227-5.11133 4.13086-2.81348 3.28613-6.31445 7.37695-12.37988 9.28613-.79102.24805-1.63281-.19043-1.88086-.98047-.24902-.79004.19043-1.63184.98047-1.88086 5.24609-1.65234 8.30371-5.22461 11.00195-8.37695 2.37891-2.7793 4.43262-5.17871 7.3877-5.17871 3.16309 0 5.73633 2.3584 5.73633 5.25781 0 3.97754-3.9375 5.9043-6.29004 7.05566-.55176.26953-1.30859.63965-1.49023.80859-.51172.49512-1.60742 3.42285-2.3457 6.26465-.17578.67578-.78418 1.12305-1.45117 1.12305z" fill="#333333" fill-opacity="1" data-original-color="#000000ff" stroke="none" stroke-opacity="1"/><path d="m14.19873 21.5c-.46777 0-.92822-.21777-1.22119-.62695-.48193-.67285-.32715-1.61035.34619-2.09277.03418-.02832.5708-.47949.5708-1.35156 0-1.24219-.36865-1.76953-.92627-2.56836-.65527-.93848-1.46826-2.10352-1.46826-4.28906 0-2.41504 1.63721-3.65723 1.82373-3.79102.6748-.4834 1.61035-.32715 2.09326.34668.47656.66504.33057 1.58789-.32275 2.0752-.07617.06152-.59424.51172-.59424 1.36914 0 1.24219.36865 1.76953.92627 2.56836.65527.93848 1.46826 2.10352 1.46826 4.28906 0 2.41504-1.63721 3.65723-1.82373 3.79102-.26465.18945-.56982.28027-.87207.28027z" fill="#333333" fill-opacity="1" data-original-color="#000000ff" stroke="none" stroke-opacity="1"/><path d="m24.50146 21.5c-.46777 0-.92822-.21777-1.22119-.62695-.48193-.67285-.32715-1.61035.34619-2.09277.03418-.02832.5708-.47949.5708-1.35156 0-1.24219-.36865-1.76953-.92627-2.56836-.65527-.93848-1.46826-2.10352-1.46826-4.28906 0-2.41504 1.63721-3.65723 1.82373-3.79102.67432-.4834 1.61084-.32715 2.09326.34668.47656.66504.33057 1.58789-.32275 2.0752-.07617.06152-.59424.51172-.59424 1.36914 0 1.24219.36865 1.76953.92627 2.56836.65527.93848 1.46826 2.10352 1.46826 4.28906 0 2.41504-1.63721 3.65723-1.82373 3.79102-.26465.18945-.56982.28027-.87207.28027z" fill="#333333" fill-opacity="1" data-original-color="#000000ff" stroke="none" stroke-opacity="1"/><path d="m34.80371 21.5c-.4668 0-.92773-.21777-1.2207-.62695-.48242-.67285-.32715-1.61035.34668-2.09277.03418-.02832.57031-.47949.57031-1.35156 0-1.24219-.36816-1.76953-.92578-2.56836-.65576-.93848-1.46875-2.10352-1.46875-4.28906 0-2.41504 1.6377-3.65723 1.82422-3.79102.67285-.48047 1.61035-.32715 2.09277.34668.47656.66504.33105 1.58789-.32324 2.0752-.0752.06152-.59375.51172-.59375 1.36914 0 1.24219.36816 1.76953.92578 2.56836.65527.93848 1.46875 2.10352 1.46875 4.28906 0 2.41504-1.6377 3.65723-1.82422 3.79102-.26465.18945-.56934.28027-.87207.28027z" fill="#333333" fill-opacity="1" data-original-color="#000000ff" stroke="none" stroke-opacity="1"/></g><path d="m29.35303 57.5c-16.18848 0-25.85303-7.9541-25.85303-21.27832 0-.82812.67139-1.5 1.5-1.5s1.5.67188 1.5 1.5c0 4.72168 9.18311 9.77637 22.85303 9.77637s22.85303-5.05469 22.85303-9.77637c0-.82812.67188-1.5 1.5-1.5s1.5.67188 1.5 1.5c0 13.32422-9.66504 21.27832-25.85303 21.27832zm-21.63574-14.19238c3.86084 9.95508 15.91064 11.19238 21.63574 11.19238s17.7749-1.2373 21.63623-11.19238c-4.58105 3.45312-12.48242 5.69043-21.63623 5.69043-9.15332 0-17.05469-2.2373-21.63574-5.69043z" fill="#333333" fill-opacity="1" data-original-color="#000000ff" stroke="none" stroke-opacity="1"/></g></g></svg>