<svg id="Layer_1" enable-background="new 0 0 53 53" viewBox="0 0 53 53" xmlns="http://www.w3.org/2000/svg" width="300" height="300" version="1.1" xmlns:xlink="http://www.w3.org/1999/xlink" xmlns:svgjs="http://svgjs.dev/svgjs"><g width="100%" height="100%" transform="matrix(1,0,0,1,0,0)"><g><g><g><path d="m39.2207031 15.9846191c-.1738281 0-.3427734-.0600586-.4785156-.1723633-1.1318359-.9384766-2.3701172-1.7485352-3.6787109-2.4077148-.1894531-.0952148-.3300781-.2661133-.3857422-.4707031-.0566406-.2041016-.0244141-.4228516.0898438-.6015625l2.0097656-3.159668c.2001953-.3242188.5234375-.5576172.90625-.6479492.3867188-.0908203.7851562-.0253906 1.1210938.1826172l2.6289062 1.675293c.6894531.4458008.8925781 1.3344727.4658203 2.0258789-.0019531.0029297-.0039062.0053711-.0048828.0078125l-2.0400391 3.2197266c-.1152344.1821289-.3037109.3056641-.5166016.3393555-.0390625.0063476-.078125.0092772-.1171875.0092772zm-2.7568359-3.5361328c.8945312.4956055 1.7548828 1.0576172 2.5703125 1.6796875l1.578125-2.4902344-2.6054688-1.6606445zm4.796875-.4335937h.0097656z" fill="#333333" fill-opacity="1" data-original-color="#000000ff" stroke="none" stroke-opacity="1"/></g></g><g><g><path d="m26.5 51.1506348c-11.3779297 0-20.6347656-9.2568359-20.6347656-20.6347656s9.2568359-20.6342774 20.6347656-20.6342774 20.6347656 9.2563477 20.6347656 20.6342773-9.2568359 20.6347657-20.6347656 20.6347657zm0-39.769043c-10.5507812 0-19.1347656 8.5834961-19.1347656 19.1342773s8.5839844 19.1347657 19.1347656 19.1347657 19.1347656-8.5839844 19.1347656-19.1347656-8.5839844-19.1342774-19.1347656-19.1342774z" fill="#333333" fill-opacity="1" data-original-color="#000000ff" stroke="none" stroke-opacity="1"/></g></g><g><g><path d="m26.5 45.5251465c-8.2753906 0-15.0087891-6.7329102-15.0087891-15.0092773 0-8.2758789 6.7333984-15.0087891 15.0087891-15.0087891s15.0087891 6.7329102 15.0087891 15.0087891c0 8.2763671-6.7333985 15.0092773-15.0087891 15.0092773zm0-28.5180664c-7.4492188 0-13.5087891 6.0600586-13.5087891 13.5087891 0 7.4492188 6.0595703 13.5092773 13.5087891 13.5092773s13.5087891-6.0600586 13.5087891-13.5092773c0-7.4487305-6.0595703-13.5087891-13.5087891-13.5087891z" fill="#333333" fill-opacity="1" data-original-color="#000000ff" stroke="none" stroke-opacity="1"/></g></g><g><g><path d="m28.5996094 11.5046387c-.03125 0-.0625-.0019531-.09375-.0058594-1.2148438-.1518555-2.8164062-.1508789-4.0195312 0-.2138672.027832-.4287109-.0390625-.5898438-.1816406s-.2539062-.347168-.2539062-.5625v-3.5795899c0-.4140625.3359375-.75.75-.75h4.2070312c.4140625 0 .75.3359375.75.75v3.5795898c0 .215332-.0927734.4199219-.2539062.5625-.1376954.1215821-.3144532.1875001-.4960938.1875001zm-3.4570313-3.5795899v2.0043945c.8476562-.0581055 1.8544922-.059082 2.7070312 0v-2.0043945z" fill="#333333" fill-opacity="1" data-original-color="#000000ff" stroke="none" stroke-opacity="1"/></g></g><g><g><path d="m31.2861328 7.9216309h-9.5732422c-.8730469 0-1.5830078-.7099609-1.5830078-1.5830078v-2.90625c0-.8730469.7099609-1.5830078 1.5830078-1.5830078h9.5732422c.8730469 0 1.5830078.7099609 1.5830078 1.5830078v2.90625c0 .8730468-.7099609 1.5830078-1.5830078 1.5830078zm-9.5732422-4.5722657c-.0458984 0-.0830078.0371094-.0830078.0830078v2.90625c0 .0458984.0371094.0830078.0830078.0830078h9.5732422c.0458984 0 .0830078-.0371094.0830078-.0830078v-2.90625c0-.0458984-.0371094-.0830078-.0830078-.0830078z" fill="#333333" fill-opacity="1" data-original-color="#000000ff" stroke="none" stroke-opacity="1"/></g></g><g><g><path d="m26.5 18.8845215c-.4140625 0-.75-.3359375-.75-.75v-1.8774414c0-.4140625.3359375-.75.75-.75s.75.3359375.75.75v1.8774414c0 .4140625-.3359375.75-.75.75z" fill="#333333" fill-opacity="1" data-original-color="#000000ff" stroke="none" stroke-opacity="1"/></g></g><g><g><path d="m20.3095703 20.5432129c-.2597656 0-.5117188-.1342773-.6503906-.375l-.9384766-1.6259766c-.2070312-.3588867-.0839844-.8173828.2744141-1.0244141.3603516-.2080078.8183594-.0834961 1.0244141.2744141l.9384766 1.6259766c.2070312.3588867.0839844.8173828-.2744141 1.0244141-.1181641.0683593-.2470704.1005859-.3740235.1005859z" fill="#333333" fill-opacity="1" data-original-color="#000000ff" stroke="none" stroke-opacity="1"/></g></g><g><g><path d="m15.7763672 25.0749512c-.1269531 0-.2558594-.0322266-.3740234-.1005859l-1.6259766-.9384766c-.3583984-.2070312-.4814453-.6655273-.2744141-1.0244141.2070312-.3579102.6640625-.4824219 1.0244141-.2744141l1.6259766.9384766c.3583984.2070312.4814453.6655273.2744141 1.0244141-.138672.2407226-.3906251.375-.6503907.375z" fill="#333333" fill-opacity="1" data-original-color="#000000ff" stroke="none" stroke-opacity="1"/></g></g><g><g><path d="m14.1181641 31.2658691h-1.8769531c-.4140625 0-.75-.3359375-.75-.75s.3359375-.75.75-.75h1.8769531c.4140625 0 .75.3359375.75.75s-.3359375.75-.75.75z" fill="#333333" fill-opacity="1" data-original-color="#000000ff" stroke="none" stroke-opacity="1"/></g></g><g><g><path d="m14.1523438 38.395752c-.2597656 0-.5117188-.1342773-.6503906-.375-.2070312-.3583984-.0839844-.8173828.2744141-1.0244141l1.6259766-.9389648c.359375-.2089844.8183594-.0839844 1.0244141.2744141.2070312.3583984.0839844.8173828-.2744141 1.0244141l-1.6259766.9389648c-.1181642.0683593-.2470704.1005859-.3740235.1005859z" fill="#333333" fill-opacity="1" data-original-color="#000000ff" stroke="none" stroke-opacity="1"/></g></g><g><g><path d="m19.3691406 43.614502c-.1269531 0-.2558594-.0322266-.3740234-.1005859-.3583984-.2070312-.4814453-.6655273-.2744141-1.0244141l.9384766-1.6254883c.2070312-.3583984.6640625-.4819336 1.0244141-.2744141.3583984.2070312.4814453.6655273.2744141 1.0244141l-.9384766 1.6254883c-.1386719.2407226-.3906251.375-.6503907.375z" fill="#333333" fill-opacity="1" data-original-color="#000000ff" stroke="none" stroke-opacity="1"/></g></g><g><g><path d="m26.5 45.5251465c-.4140625 0-.75-.3359375-.75-.75v-1.8774414c0-.4140625.3359375-.75.75-.75s.75.3359375.75.75v1.8774414c0 .4140625-.3359375.75-.75.75z" fill="#333333" fill-opacity="1" data-original-color="#000000ff" stroke="none" stroke-opacity="1"/></g></g><g><g><path d="m33.6298828 43.614502c-.2597656 0-.5117188-.1342773-.6503906-.375l-.9384766-1.6254883c-.2070312-.3588867-.0839844-.8173828.2744141-1.0244141.359375-.2075195.8183594-.0839844 1.0244141.2744141l.9384766 1.6254883c.2070312.3588867.0839844.8173828-.2744141 1.0244141-.1181641.0683593-.2470704.1005859-.3740235.1005859z" fill="#333333" fill-opacity="1" data-original-color="#000000ff" stroke="none" stroke-opacity="1"/></g></g><g><g><path d="m38.8476562 38.395752c-.1269531 0-.2558594-.0322266-.3740234-.1005859l-1.6259766-.9389648c-.3583984-.2070312-.4814453-.6660156-.2744141-1.0244141.2060547-.3583984.6650391-.4833984 1.0244141-.2744141l1.6259766.9389648c.3583984.2070312.4814453.6660156.2744141 1.0244141-.1386719.2407226-.390625.375-.6503907.375z" fill="#333333" fill-opacity="1" data-original-color="#000000ff" stroke="none" stroke-opacity="1"/></g></g><g><g><path d="m40.7587891 31.2658691h-1.8769531c-.4140625 0-.75-.3359375-.75-.75s.3359375-.75.75-.75h1.8769531c.4140625 0 .75.3359375.75.75s-.3359375.75-.75.75z" fill="#333333" fill-opacity="1" data-original-color="#000000ff" stroke="none" stroke-opacity="1"/></g></g><g><g><path d="m37.2236328 25.0749512c-.2597656 0-.5117188-.1342773-.6503906-.375-.2070312-.3588867-.0839844-.8173828.2744141-1.0244141l1.6259766-.9384766c.3603516-.2080078.8183594-.0834961 1.0244141.2744141.2070312.3588867.0839844.8173828-.2744141 1.0244141l-1.6259766.9384766c-.1181641.0683593-.2470704.1005859-.3740235.1005859z" fill="#333333" fill-opacity="1" data-original-color="#000000ff" stroke="none" stroke-opacity="1"/></g></g><g><g><path d="m32.6894531 20.5432129c-.1269531 0-.2558594-.0322266-.3740234-.1005859-.3583984-.2070312-.4814453-.6655273-.2744141-1.0244141l.9384766-1.6259766c.2060547-.3579102.6650391-.4824219 1.0244141-.2744141.3583984.2070312.4814453.6655273.2744141 1.0244141l-.9384766 1.6259766c-.1386719.2407226-.390625.375-.6503907.375z" fill="#333333" fill-opacity="1" data-original-color="#000000ff" stroke="none" stroke-opacity="1"/></g></g><g><g><path d="m31.8857422 31.2663574h-3.1191406c-.4140625 0-.75-.3359375-.75-.75s.3359375-.75.75-.75h3.1191406c.4140625 0 .75.3359375.75.75s-.3359375.75-.75.75z" fill="#333333" fill-opacity="1" data-original-color="#000000ff" stroke="none" stroke-opacity="1"/></g></g><g><g><path d="m25.3369141 29.3259277c-.2568359 0-.5058594-.1313477-.6464844-.3676758l-3.3193359-5.5996094c-.2109375-.355957-.0927734-.8164062.2626953-1.0273438.3574219-.2128906.8164062-.0927734 1.0283203.2626953l3.3193359 5.5996094c.2109375.355957.0927734.8164062-.2626953 1.0273438-.1201172.0712891-.2519531.1049805-.3818359.1049805z" fill="#333333" fill-opacity="1" data-original-color="#000000ff" stroke="none" stroke-opacity="1"/></g></g><g><g><path d="m26.5009766 33.5227051c-1.6611328 0-3.0117188-1.3510742-3.0117188-3.0117188 0-1.6547852 1.3505859-3.0014648 3.0117188-3.0014648s3.0117188 1.3466797 3.0117188 3.0014648c-.0000001 1.6606446-1.350586 3.0117188-3.0117188 3.0117188zm0-4.5131836c-.8339844 0-1.5117188.6733398-1.5117188 1.5014648 0 .8334961.6777344 1.5117188 1.5117188 1.5117188s1.5117188-.6782227 1.5117188-1.5117188c-.0000001-.828125-.6777345-1.5014648-1.5117188-1.5014648z" fill="#333333" fill-opacity="1" data-original-color="#000000ff" stroke="none" stroke-opacity="1"/></g></g></g></g></svg>