<svg version="1.1" id="svg555" xml:space="preserve" width="300" height="300" viewBox="0 0 682.66669 682.66669" xmlns="http://www.w3.org/2000/svg" xmlns:svg="http://www.w3.org/2000/svg" xmlns:xlink="http://www.w3.org/1999/xlink" xmlns:svgjs="http://svgjs.dev/svgjs"><g width="100%" height="100%" transform="matrix(1,0,0,1,0,0)"><defs id="defs559"><clipPath clipPathUnits="userSpaceOnUse" id="clipPath569"><path d="M 0,512 H 512 V 0 H 0 Z" id="path567" fill="#333333" fill-opacity="1" data-original-color="#000000ff" stroke="none" stroke-opacity="1"/></clipPath></defs><g id="g561" transform="matrix(1.3333333,0,0,-1.3333333,0,682.66667)"><g id="g563"><g id="g565" clip-path="url(#clipPath569)"><g id="g571" transform="translate(466,225)"><path d="m 0,0 c 0,-115.98 -94.02,-210 -210,-210 -115.98,0 -210,94.02 -210,210 0,115.98 94.02,210 210,210 C -94.02,210 0,115.98 0,0 Z" style="stroke-linecap: butt; stroke-linejoin: miter; stroke-miterlimit: 10; stroke-dasharray: none;" id="path573" fill="none" fill-opacity="1" stroke="#333333" stroke-opacity="1" data-original-stroke-color="#000000ff" stroke-width="30" data-original-stroke-width="30"/></g><g id="g575" transform="translate(226,432.8733)"><path d="M 0,0 V 64.127 H 60 V 0" style="stroke-linecap: butt; stroke-linejoin: miter; stroke-miterlimit: 10; stroke-dasharray: none;" id="path577" fill="none" fill-opacity="1" stroke="#333333" stroke-opacity="1" data-original-stroke-color="#000000ff" stroke-width="30" data-original-stroke-width="30"/></g><g id="g579" transform="translate(181,497)"><path d="M 0,0 H 45" style="stroke-linecap: butt; stroke-linejoin: miter; stroke-miterlimit: 10; stroke-dasharray: none;" id="path581" fill="none" fill-opacity="1" stroke="#333333" stroke-opacity="1" data-original-stroke-color="#000000ff" stroke-width="30" data-original-stroke-width="30"/></g><g id="g583" transform="translate(286.0005,497)"><path d="M 0,0 H 45" style="stroke-linecap: butt; stroke-linejoin: miter; stroke-miterlimit: 10; stroke-dasharray: none;" id="path585" fill="none" fill-opacity="1" stroke="#333333" stroke-opacity="1" data-original-stroke-color="#000000ff" stroke-width="30" data-original-stroke-width="30"/></g><g id="g587" transform="translate(406,225)"><path d="m 0,0 c 0,-82.843 -67.157,-150 -150,-150 -82.843,0 -150,67.157 -150,150 0,82.843 67.157,150 150,150 C -67.157,150 0,82.843 0,0 Z" style="stroke-linecap: butt; stroke-linejoin: miter; stroke-miterlimit: 10; stroke-dasharray: none;" id="path589" fill="none" fill-opacity="1" stroke="#333333" stroke-opacity="1" data-original-stroke-color="#000000ff" stroke-width="30" data-original-stroke-width="30"/></g><g id="g591" transform="translate(256,375)"><path d="M 0,0 V -120" style="stroke-linecap: butt; stroke-linejoin: miter; stroke-miterlimit: 10; stroke-dasharray: none;" id="path593" fill="none" fill-opacity="1" stroke="#333333" stroke-opacity="1" data-original-stroke-color="#000000ff" stroke-width="30" data-original-stroke-width="30"/></g><g id="g595" transform="translate(286,225)"><path d="M 0,0 H 120" style="stroke-linecap: butt; stroke-linejoin: miter; stroke-miterlimit: 10; stroke-dasharray: none;" id="path597" fill="none" fill-opacity="1" stroke="#333333" stroke-opacity="1" data-original-stroke-color="#000000ff" stroke-width="30" data-original-stroke-width="30"/></g><g id="g599" transform="translate(286,225)"><path d="m 0,0 c 0,-16.569 -13.432,-30 -30,-30 -16.568,0 -30,13.431 -30,30 0,16.569 13.432,30 30,30 C -13.432,30 0,16.569 0,0 Z" style="stroke-linecap: butt; stroke-linejoin: miter; stroke-miterlimit: 10; stroke-dasharray: none;" id="path601" fill="none" fill-opacity="1" stroke="#333333" stroke-opacity="1" data-original-stroke-color="#000000ff" stroke-width="30" data-original-stroke-width="30"/></g><g id="g603" transform="translate(256,120)"><path d="M 0,0 V -45" style="stroke-linecap: butt; stroke-linejoin: miter; stroke-miterlimit: 10; stroke-dasharray: none;" id="path605" fill="none" fill-opacity="1" stroke="#333333" stroke-opacity="1" data-original-stroke-color="#000000ff" stroke-width="30" data-original-stroke-width="30"/></g><g id="g607" transform="translate(106,225)"><path d="M 0,0 H 45" style="stroke-linecap: butt; stroke-linejoin: miter; stroke-miterlimit: 10; stroke-dasharray: none;" id="path609" fill="none" fill-opacity="1" stroke="#333333" stroke-opacity="1" data-original-stroke-color="#000000ff" stroke-width="30" data-original-stroke-width="30"/></g><g id="g611" transform="translate(330.2461,150.7539)"><path d="M 0,0 31.82,-31.82" style="stroke-linecap: butt; stroke-linejoin: miter; stroke-miterlimit: 10; stroke-dasharray: none;" id="path613" fill="none" fill-opacity="1" stroke="#333333" stroke-opacity="1" data-original-stroke-color="#000000ff" stroke-width="30" data-original-stroke-width="30"/></g><g id="g615" transform="translate(149.9341,331.0659)"><path d="M 0,0 31.82,-31.82" style="stroke-linecap: butt; stroke-linejoin: miter; stroke-miterlimit: 10; stroke-dasharray: none;" id="path617" fill="none" fill-opacity="1" stroke="#333333" stroke-opacity="1" data-original-stroke-color="#000000ff" stroke-width="30" data-original-stroke-width="30"/></g><g id="g619" transform="translate(330.2461,299.2461)"><path d="M 0,0 31.82,31.82" style="stroke-linecap: butt; stroke-linejoin: miter; stroke-miterlimit: 10; stroke-dasharray: none;" id="path621" fill="none" fill-opacity="1" stroke="#333333" stroke-opacity="1" data-original-stroke-color="#000000ff" stroke-width="30" data-original-stroke-width="30"/></g><g id="g623" transform="translate(149.9341,118.9341)"><path d="M 0,0 31.82,31.82" style="stroke-linecap: butt; stroke-linejoin: miter; stroke-miterlimit: 10; stroke-dasharray: none;" id="path625" fill="none" fill-opacity="1" stroke="#333333" stroke-opacity="1" data-original-stroke-color="#000000ff" stroke-width="30" data-original-stroke-width="30"/></g></g></g></g></g></svg>