
        <svg xmlns="http://www.w3.org/2000/svg" xmlns:xlink="http://www.w3.org/1999/xlink" version="1.1" width="2689.5597207883347" height="3181.830575824067" viewBox="0 0 2689.5597207883347 3181.830575824067">
			
			<g transform="scale(9.091528791203364) translate(10, 10)">
				<defs id="SvgjsDefs1852"/><g id="SvgjsG1853" featureKey="symbolFeature-0" transform="matrix(3.2837069738212166,0,0,3.2837069738212166,40.00000008263731,0.00007897470974545842)" fill="#000"><title xmlns="http://www.w3.org/2000/svg">Packing and Shipping - Outline - 016 - Box</title><desc xmlns="http://www.w3.org/2000/svg">Created with Sketch.</desc><g xmlns="http://www.w3.org/2000/svg" stroke="none" stroke-width="1" fill-rule="evenodd"><g fill-rule="nonzero"><path d="M59.44727,47.10547 L47.23633,41 L55.44727,36.89453 C55.487507,36.8677968 55.5256414,36.8380268 55.56134,36.80548 C55.6219124,36.7679786 55.6782414,36.7240218 55.72934,36.67438 C55.8043942,36.5720516 55.8712329,36.4639441 55.92923,36.35107 C55.9511746,36.2823165 55.9654808,36.2113555 55.97189,36.13947 C55.9847793,36.0937591 55.9941763,36.0471349 56,36 L56,8 C55.9998325,7.65347492 55.8203456,7.33171648 55.5255799,7.14952743 C55.2308142,6.96733837 54.8627569,6.95067017 54.55273,7.10547 L45.34229,11.71069 L37.832,0.44531 C37.5521145,0.0258635219 37.0038464,-0.119781307 36.5527,0.10547 L29,3.88184 L23.44727,1.10547 C23.42527,1.09447 23.40143,1.09619 23.37909,1.08698 C23.1344906,0.995226238 22.8649158,0.995290192 22.62036,1.08716 C22.59821,1.09631 22.57452,1.09454 22.55273,1.10547 L0.55273,12.10547 C0.495987118,12.1367707 0.442485699,12.1736174 0.39301,12.21547 C0.37616,12.22853 0.35742,12.23689 0.34131,12.25105 C0.253933312,12.3292318 0.18113624,12.4223104 0.12631,12.52595 C0.1207,12.5362 0.11075,12.54213 0.10544,12.55268 C0.09689,12.56968 0.09854,12.58827 0.0911,12.60554 C0.053212013,12.6929562 0.0282017281,12.785405 0.01685,12.88 C0.01343,12.90814 0.00616,12.93494 0.00519,12.96313 C0.0047,12.97571 -1.24536518e-15,12.98737 -1.24536518e-15,13 L-1.24536518e-15,41 C-8.47533706e-05,41.3788065 0.213910123,41.7251326 0.55273,41.89453 L11,47.11816 L11,52 C10.999931,52.2652376 11.1052657,52.5196316 11.292817,52.707183 C11.4803684,52.8947343 11.7347624,53.000069 12,53 L22.76367,53 L36.55273,59.89453 C36.8343295,60.0351568 37.1656705,60.0351568 37.44727,59.89453 L59.44727,48.89453 C59.7860317,48.7250687 60.0000025,48.3787831 60.0000025,48 C60.0000025,47.6212169 59.7860317,47.2749313 59.44727,47.10547 Z M44,39.38184 L24,29.38184 L24,24.61816 L44,14.61816 L44,39.38184 Z M24,31.61816 L42.76367,41 L24,50.38184 L24,31.61816 Z M54,35.38184 L46,39.38184 L46,13.61816 L54,9.61816 L54,35.38184 Z M36.65723,2.28906 L43.53955,12.61206 L23.34229,22.71069 L16.46,12.3877 L36.65723,2.28906 Z M14.55273,11.10547 C14.2960422,11.2336325 14.1068073,11.4659218 14.0331862,11.7432198 C13.9595651,12.0205178 14.0086578,12.3160818 14.16797,12.55469 L20.0791,21.42139 L3.23633,13 L23,3.11816 L26.76367,5 L14.55273,11.10547 Z M2,40.38184 L2,14.61816 L18.76367,23 L12,23 C11.7347624,22.999931 11.4803684,23.1052657 11.292817,23.292817 C11.1052657,23.4803684 10.999931,23.7347624 11,24 L11,44.88184 L2,40.38184 Z M22,51 L13,51 L13,25 L22,25 L22,51 Z M37,57.88184 L25.2359,51.99976 L45,42.11816 L56.76367,48 L37,57.88184 Z"/></g></g></g><g id="SvgjsG1854" featureKey="nameFeature-0" transform="matrix(2.66864746235542,0,0,2.66864746235542,-2.6686480986105563,204.61747867599428)" fill="#000"><path d="M13.8 15.46 q0 1.46 -0.88 2.6 q-0.86 1.08 -2.37 1.68 t-3.41 0.6 q-1.74 0 -3.38 -0.81 t-2.76 -2.25 l1.56 -1.46 q1.94 2.34 4.58 2.34 q1.16 0 2.12 -0.28 q1.06 -0.32 1.64 -0.9 q0.66 -0.64 0.66 -1.52 q0 -1.06 -0.66 -1.6 q-0.56 -0.46 -1.66 -0.6 q-0.64 -0.08 -2.1 -0.08 q-2.68 0 -4.09 -0.98 t-1.41 -2.88 q0 -1.2 0.71 -2.28 t1.95 -1.72 q1.28 -0.68 2.84 -0.68 q1.76 0 3.18 0.54 q1.52 0.58 2.82 1.82 l-1.36 1.6 q-1.22 -0.98 -2.22 -1.37 t-2.42 -0.39 q-0.82 0 -1.53 0.34 t-1.13 0.91 t-0.42 1.21 q0 1.72 3.18 1.72 q2.54 0 4.02 0.52 q1.4 0.5 2 1.52 q0.54 0.9 0.54 2.4 z M21.66 6.66 l-0.82 -1.84 l2.4 0 l7.18 15.18 l-2.44 0 l-0.98 -2.18 l-4.54 0 q-1.28 0 -2.3 0.24 q-0.9 0.22 -1.5 0.58 q-0.54 0.32 -0.72 0.66 l-0.38 0.7 l-2.36 0 z M23.26 15.620000000000001 l2.76 0 l-3.26 -6.3 l-3.3 7.14 q0.44 -0.38 1.34 -0.6 q1.02 -0.24 2.46 -0.24 z M35.36 20 l-2.14 0 l0 -14.92 l2.14 0 l0 14.92 z M50.22 20 l-10.46 0 l0 -14.92 l2.18 0 l0 12.74 l8.28 0 l0 2.18 z M65.72 12.440000000000001 q0 -1.6 -0.82 -2.9 q-0.78 -1.26 -2.13 -1.98 t-2.93 -0.72 q-1.64 0 -2.99 0.74 t-2.11 2.02 q-0.78 1.34 -0.78 2.98 q0 1.56 0.84 2.88 q0.8 1.24 2.15 1.97 t2.92 0.73 t2.92 -0.76 t2.13 -2.04 q0.8 -1.34 0.8 -2.92 z M67.88000000000001 12.559999999999999 q0 2.16 -1.12 3.98 q-1.08 1.74 -2.93 2.77 t-3.99 1.03 q-2.22 0 -4.08 -1.08 q-1.82 -1.04 -2.86 -2.86 q-1.08 -1.86 -1.08 -4.08 q0 -2.14 1.14 -3.94 q1.08 -1.72 2.93 -2.73 t3.97 -1.01 q2.18 0 4.04 1.06 q1.82 1.04 2.88 2.82 q1.1 1.86 1.1 4.04 z M73.46000000000001 7.26 l0 4.96 q0.62 -0.36 1.38 -0.48 q0.56 -0.1 1.44 -0.1 l2.84 0 q1.18 0 1.84 -0.54 q0.7 -0.58 0.7 -1.74 q0 -1.1 -0.74 -1.64 q-0.64 -0.46 -1.8 -0.46 l-5.66 0 z M79.84000000000002 17.64 l-1.82 -3.82 l-1.74 0 q-0.82 0 -1.44 0.1 q-0.76 0.14 -1.38 0.48 l0 5.6 l-2.18 0 l0 -14.92 l7.84 0 q1.38 0 2.44 0.52 t1.64 1.48 q0.62 1.02 0.62 2.4 q0 1.68 -0.9 2.76 t-2.54 1.5 l1.16 2.38 q0.5 0.74 0.78 1.04 q0.34 0.38 0.65 0.51 t0.81 0.13 l0.22 0 l0.48 -0.02 l0 2.22 q-1.16 0 -1.72 -0.08 q-0.94 -0.16 -1.6 -0.62 q-0.78 -0.56 -1.32 -1.66 z M89.36000000000001 4.82 l-0.46 4.82 l-1.38 0 l-0.44 -4.82 l2.28 0 z M104.36 15.46 q0 1.46 -0.88 2.6 q-0.86 1.08 -2.37 1.68 t-3.41 0.6 q-1.74 0 -3.38 -0.81 t-2.76 -2.25 l1.56 -1.46 q1.94 2.34 4.58 2.34 q1.16 0 2.12 -0.28 q1.06 -0.32 1.64 -0.9 q0.66 -0.64 0.66 -1.52 q0 -1.06 -0.66 -1.6 q-0.56 -0.46 -1.66 -0.6 q-0.64 -0.08 -2.1 -0.08 q-2.68 0 -4.09 -0.98 t-1.41 -2.88 q0 -1.2 0.71 -2.28 t1.95 -1.72 q1.28 -0.68 2.84 -0.68 q1.76 0 3.18 0.54 q1.52 0.58 2.82 1.82 l-1.36 1.6 q-1.22 -0.98 -2.22 -1.37 t-2.42 -0.39 q-0.82 0 -1.53 0.34 t-1.13 0.91 t-0.42 1.21 q0 1.72 3.18 1.72 q2.54 0 4.02 0.52 q1.4 0.5 2 1.52 q0.54 0.9 0.54 2.4 z"/></g><g id="SvgjsG1855" featureKey="nameFeature-1" transform="matrix(3.890428736270046,0,0,3.890428736270046,-8.558943405304198,250.94841489333723)" fill="#000"><path d="M4.38 14.02 l0 5.98 l-2.18 0 l0 -14.92 l10.5 0 l0 2.2 l-8.32 0 l0 4.52 q0.62 -0.36 1.38 -0.48 q0.56 -0.1 1.44 -0.1 l3.26 0 l0 2.22 l-3.26 0 q-0.82 0 -1.44 0.1 q-0.76 0.14 -1.38 0.48 z M18.28 14.02 l0 3.8 l9.2 0 l0 2.18 l-11.38 0 l0 -14.92 l10.5 0 l0 2.2 l-8.32 0 l0 4.52 q0.62 -0.36 1.38 -0.48 q0.56 -0.1 1.44 -0.1 l3.26 0 l0 2.22 l-3.26 0 q-0.82 0 -1.44 0.1 q-0.76 0.14 -1.38 0.48 z M35.64 6.66 l-0.82 -1.84 l2.4 0 l7.18 15.18 l-2.44 0 l-0.98 -2.18 l-4.54 0 q-1.28 0 -2.3 0.24 q-0.9 0.22 -1.5 0.58 q-0.54 0.32 -0.72 0.66 l-0.38 0.7 l-2.36 0 z M37.24 15.620000000000001 l2.76 0 l-3.26 -6.3 l-3.3 7.14 q0.44 -0.38 1.34 -0.6 q1.02 -0.24 2.46 -0.24 z M58.8 15.46 q0 1.46 -0.88 2.6 q-0.86 1.08 -2.37 1.68 t-3.41 0.6 q-1.74 0 -3.38 -0.81 t-2.76 -2.25 l1.56 -1.46 q1.94 2.34 4.58 2.34 q1.16 0 2.12 -0.28 q1.06 -0.32 1.64 -0.9 q0.66 -0.64 0.66 -1.52 q0 -1.06 -0.66 -1.6 q-0.56 -0.46 -1.66 -0.6 q-0.64 -0.08 -2.1 -0.08 q-2.68 0 -4.09 -0.98 t-1.41 -2.88 q0 -1.2 0.71 -2.28 t1.95 -1.72 q1.28 -0.68 2.84 -0.68 q1.76 0 3.18 0.54 q1.52 0.58 2.82 1.82 l-1.36 1.6 q-1.22 -0.98 -2.22 -1.37 t-2.42 -0.39 q-0.82 0 -1.53 0.34 t-1.13 0.91 t-0.42 1.21 q0 1.72 3.18 1.72 q2.54 0 4.02 0.52 q1.4 0.5 2 1.52 q0.54 0.9 0.54 2.4 z M73.1 7.279999999999999 l-5.26 0 l0 12.72 l-2.12 0 l0 -12.72 l-5.32 0 l0 -2.2 l12.7 0 l0 2.2 z"/></g>
			</g>
		</svg>
	