<?xml version="1.0" encoding="UTF-8" standalone="no"?>
<!-- Created with Inkscape (http://www.inkscape.org/) -->

<svg
   version="1.1"
   id="svg5718"
   xml:space="preserve"
   width="682.66669"
   height="682.66669"
   viewBox="0 0 682.66669 682.66669"
   xmlns="http://www.w3.org/2000/svg"
   xmlns:svg="http://www.w3.org/2000/svg"><defs
     id="defs5722"><clipPath
       clipPathUnits="userSpaceOnUse"
       id="clipPath5732"><path
         d="M 0,512 H 512 V 0 H 0 Z"
         id="path5730" /></clipPath></defs><g
     id="g5724"
     transform="matrix(1.3333333,0,0,-1.3333333,0,682.66667)"><g
       id="g5726"><g
         id="g5728"
         clip-path="url(#clipPath5732)"><g
           id="g5734"
           transform="translate(374.7705,182.543)"><path
             d="m 0,0 -100.411,28.784 55.406,224.354 c 7.362,27.477 24.62,51.792 50,64.638 5.873,2.973 12.032,4.533 18.5,3.787 0.785,-0.09 2.466,-0.009 2.466,-0.009 0.831,-0.156 1.658,-0.344 2.479,-0.564 7.952,-2.131 14.837,-7.119 19.339,-14.011 15.558,-23.815 20.241,-53.126 12.878,-80.604 z"
             style="fill:#ffc269;fill-opacity:1;fill-rule:nonzero;stroke:none"
             id="path5736" /></g><g
           id="g5738"
           transform="translate(400.7314,504.0972)"><path
             d="m 0,0 c -0.65,-0.29 -1.281,-0.607 -1.911,-0.937 -25.551,-13.49 -44.51,-37.45 -52.131,-65.89 l -61.8,-230.64 -17.54,4.7 47.863,166.266 0.983,16.045 11.805,44.059 c 7.37,27.48 26.08,50.52 51.46,63.37 4.709,2.39 9.879,3.6 15.089,3.6 C -4.121,0.573 -2.05,0.39 0,0"
             style="fill:#ffa95f;fill-opacity:1;fill-rule:nonzero;stroke:none"
             id="path5740" /></g><g
           id="g5742"
           transform="translate(347.1104,189.9497)"><path
             d="m 0,0 -79.761,21.38 49.14,181.287 c 2.713,-1.468 5.083,-2.009 7.683,-3.666 20.366,-12.972 37.115,-31.6 47.667,-54.23 C 48.05,94.78 36.45,37.3 0,0"
             style="fill:#ffa95f;fill-opacity:1;fill-rule:nonzero;stroke:none"
             id="path5744" /></g><g
           id="g5746"
           transform="translate(332.25,383.3599)"><path
             d="m 0,0 -47.36,-176.73 -17.54,4.7 48.845,182.311 C -10.464,7.251 -5.09,3.82 0,0"
             style="fill:#ff8b5a;fill-opacity:1;fill-rule:nonzero;stroke:none"
             id="path5748" /></g><g
           id="g5750"
           transform="translate(357.3428,327.9604)"><path
             d="m 0,0 c -26.375,56.562 -93.608,81.033 -150.171,54.658 -1.687,-0.787 -3.347,-1.611 -4.976,-2.47 0,0 -0.64,-0.825 -1.103,-1.077 -51.994,-28.306 -73.94,-92.234 -48.578,-146.624 26.375,-56.561 91.784,-75.154 148.346,-48.779 34.784,16.221 58.789,41.979 64.937,77.119 0.143,0.814 0.868,2.483 0.868,2.483 C 12.568,-43.411 9.779,-20.972 0,0"
             style="fill:#a36b5b;fill-opacity:1;fill-rule:nonzero;stroke:none"
             id="path5752" /></g><g
           id="g5754"
           transform="translate(366.666,263.2705)"><path
             d="m 0,0 c -5.51,-36.11 -28.386,-68.891 -63.986,-85.48 -56.56,-26.371 -123.79,-1.9 -150.17,54.659 -25.58,54.87 -3.315,119.8 49.685,147.699 -3.259,-21.279 -0.465,-43.729 9.315,-64.698 26.38,-56.56 93.61,-81.031 150.17,-54.66 C -3.296,-1.69 -1.63,-0.87 0,0"
             style="fill:#8e5644;fill-opacity:1;fill-rule:nonzero;stroke:none"
             id="path5756" /></g><g
           id="g5758"
           transform="translate(234.125,221.2539)"><path
             d="m 0,0 -85.294,-32.106 -67.107,185.887 c -8.212,22.563 -9.352,47.455 1.978,68.625 1.876,3.506 4.134,6.476 7.221,8.88 0.771,0.601 2.178,1.849 2.178,1.849 1.656,1.032 3.425,1.898 5.284,2.574 6.529,2.376 13.705,2.261 20.154,-0.324 22.287,-8.935 39.716,-26.934 47.928,-49.497 z"
             style="fill:#ffe07d;fill-opacity:1;fill-rule:nonzero;stroke:none"
             id="path5760" /></g><g
           id="g5762"
           transform="translate(160.04,194.29)"><path
             d="m 0,0 -14.13,-5.14 -67.65,185.89 c -8.22,22.56 -6.44,47.55 4.89,68.72 1.64,3.06 3.82,5.77 6.4,8.01 1.11,0.96 2.301,1.838 3.551,2.619 -9.57,-22.29 -10.061,-48.539 -1.29,-72.639 z"
             style="fill:#ffd064;fill-opacity:1;fill-rule:nonzero;stroke:none"
             id="path5764" /></g><g
           id="g5766"
           transform="translate(380.4639,7.3276)"><path
             d="m 0,0 h -245.315 c -1.37,0 -2.707,0.138 -3.999,0.4 0,0 -2.523,1.495 -3.836,2.081 -6.986,3.119 -10.229,9.374 -10.229,17.519 l -0.235,183.886 H 20 L 17.983,168.821 20,161.792 V 20 C 20,8.954 11.046,0 0,0"
             style="fill:#fff0af;fill-opacity:1;fill-rule:nonzero;stroke:none"
             id="path5768" /></g><g
           id="g5770"
           transform="translate(115.1504,230.9575)"><path
             d="m 0,0 v -61.837 -141.79 c 0,-9.681 6.869,-17.753 15.999,-19.603 L 16,-59.879 c 0,2.055 1.257,3.901 3.169,4.653 l 18.057,7.102 c 0.94,0.371 1.987,0.371 2.928,0 L 81.08,-64.218 c 3.069,-1.21 6.3,-1.82 9.6,-1.82 3.299,0 6.54,0.61 9.599,1.82 l 40.916,16.094 c 0.942,0.371 1.988,0.371 2.929,0 l 40.915,-16.094 c 3.07,-1.21 6.311,-1.82 9.61,-1.82 3.3,0 6.531,0.61 9.601,1.82 l 40.915,16.094 c 0.941,0.371 1.988,0.371 2.929,0 l 30.685,-12.074 c 2.12,-0.83 4.311,-1.38 6.531,-1.639 V 0 Z"
             style="fill:#f6d190;fill-opacity:1;fill-rule:nonzero;stroke:none"
             id="path5772" /></g><g
           id="g5774"
           transform="translate(403.5312,241.5107)"><path
             d="M 0,0 H -286.682 L -289.718,-0.319 -290.45,-1 c -5.648,0 -10.227,-4.579 -10.227,-10.227 v -34.119 c 0,-7.21 6.261,-12.155 12.971,-9.516 l 1.027,-0.596 33.247,13.08 c 2.407,0.946 5.081,0.946 7.488,0 l 44.501,-17.507 c 2.406,-0.947 5.082,-0.947 7.488,0 l 44.493,17.507 c 2.406,0.946 5.082,0.946 7.488,0 l 44.495,-17.507 c 2.407,-0.947 5.083,-0.947 7.489,0 l 44.492,17.507 c 2.407,0.946 5.083,0.946 7.489,0 l 34.265,-13.483 c 6.71,-2.64 13.971,2.306 13.971,9.516 v 36.118 C 10.227,-4.579 5.648,0 0,0"
             style="fill:#fff0af;fill-opacity:1;fill-rule:nonzero;stroke:none"
             id="path5776" /></g><g
           id="g5778"
           transform="translate(116.8496,241.5107)"><path
             d="m 0,0 0.003,-55.458 -1.032,-0.403 c -6.7,-2.64 -13.971,2.31 -13.971,9.52 v 36.11 c 0,5.65 4.58,10.23 10.23,10.23 z"
             style="fill:#f6d190;fill-opacity:1;fill-rule:nonzero;stroke:none"
             id="path5780" /></g><g
           id="g5782"
           transform="translate(317.0547,116.2383)"><path
             d="m 0,0 c 0,-19.051 -23.287,-34.722 -53.14,-36.622 0,0 -4.046,0.171 -6.108,0.171 -32.723,0 -57.424,16.118 -57.424,36.451 0,20.332 24.701,36.629 57.424,36.629 2.102,0 6.223,-0.015 6.223,-0.015 C -23.229,34.682 0,19.026 0,0"
             style="fill:#a36b5b;fill-opacity:1;fill-rule:nonzero;stroke:none"
             id="path5784" /></g><g
           id="g5786"
           transform="translate(264.3105,79.6426)"><path
             d="m 0,0 c -2.141,-0.15 -4.301,-0.223 -6.5,-0.223 -32.73,0 -59.25,16.491 -59.25,36.82 0,20.33 26.52,36.81 59.25,36.81 2.199,0 4.359,-0.066 6.5,-0.216 C -29.671,71.181 -52.75,55.567 -52.75,36.597 -52.75,17.627 -29.671,2.01 0,0"
             style="fill:#8e5644;fill-opacity:1;fill-rule:nonzero;stroke:none"
             id="path5788" /></g><g
           id="g5790"
           transform="translate(437.7725,449.3628)"><path
             d="M 0,0 C 1.964,-13.355 1.227,-27.116 -2.345,-40.444 L -47.181,-207.777"
             style="fill:none;stroke:#000000;stroke-width:15;stroke-linecap:round;stroke-linejoin:round;stroke-miterlimit:10;stroke-dasharray:none;stroke-opacity:1"
             id="path5792" /></g><g
           id="g5794"
           transform="translate(311.9736,377.8809)"><path
             d="m 0,0 16.029,59.822 c 7.363,27.477 26.075,50.52 51.455,63.366 7.344,3.717 15.802,4.595 23.753,2.464 7.951,-2.131 14.837,-7.119 19.339,-14.01 1.508,-2.309 2.914,-4.669 4.217,-7.074"
             style="fill:none;stroke:#000000;stroke-width:15;stroke-linecap:round;stroke-linejoin:round;stroke-miterlimit:10;stroke-dasharray:none;stroke-opacity:1"
             id="path5796" /></g><g
           id="g5798"
           transform="translate(364.2695,438.2729)"><path
             d="M 0,0 0.726,-0.566 C 11.861,-9.241 26.092,-12.92 40.036,-10.728"
             style="fill:none;stroke:#000000;stroke-width:15;stroke-linecap:round;stroke-linejoin:round;stroke-miterlimit:10;stroke-dasharray:none;stroke-opacity:1"
             id="path5800" /></g><g
           id="g5802"
           transform="translate(352.0488,392.6655)"><path
             d="M 0,0 0.727,-0.565 C 11.861,-9.241 26.092,-12.919 40.036,-10.728"
             style="fill:none;stroke:#000000;stroke-width:15;stroke-linecap:round;stroke-linejoin:round;stroke-miterlimit:10;stroke-dasharray:none;stroke-opacity:1"
             id="path5804" /></g><g
           id="g5806"
           transform="translate(350.8037,340.2896)"><path
             d="M 0,0 C 9.014,-4.098 19.11,-5.523 29.062,-3.958"
             style="fill:none;stroke:#000000;stroke-width:15;stroke-linecap:round;stroke-linejoin:round;stroke-miterlimit:10;stroke-dasharray:none;stroke-opacity:1"
             id="path5808" /></g><g
           id="g5810"
           transform="translate(222.3555,388.4243)"><path
             d="M 0,0 C -5.12,-1.548 -10.193,-3.479 -15.184,-5.806 -24.668,-10.229 -33.25,-15.8 -40.841,-22.278"
             style="fill:none;stroke:#000000;stroke-width:15;stroke-linecap:round;stroke-linejoin:round;stroke-miterlimit:10;stroke-dasharray:none;stroke-opacity:1"
             id="path5812" /></g><g
           id="g5814"
           transform="translate(361.1514,241.6548)"><path
             d="m 0,0 c 9.854,27.152 9.362,58.06 -3.809,86.306 -18.868,40.463 -58.647,64.503 -100.469,65.254"
             style="fill:none;stroke:#000000;stroke-width:15;stroke-linecap:round;stroke-linejoin:round;stroke-miterlimit:10;stroke-dasharray:none;stroke-opacity:1"
             id="path5816" /></g><g
           id="g5818"
           transform="translate(231.9189,352.2998)"><path
             d="M 0,0 -3.067,-9.204"
             style="fill:none;stroke:#000000;stroke-width:15;stroke-linecap:round;stroke-linejoin:round;stroke-miterlimit:10;stroke-dasharray:none;stroke-opacity:1"
             id="path5820" /></g><g
           id="g5822"
           transform="translate(278.6777,351.1729)"><path
             d="M 0,0 3.634,-8.995"
             style="fill:none;stroke:#000000;stroke-width:15;stroke-linecap:round;stroke-linejoin:round;stroke-miterlimit:10;stroke-dasharray:none;stroke-opacity:1"
             id="path5824" /></g><g
           id="g5826"
           transform="translate(247.3633,306.9434)"><path
             d="M 0,0 -9.413,-2.347"
             style="fill:none;stroke:#000000;stroke-width:15;stroke-linecap:round;stroke-linejoin:round;stroke-miterlimit:10;stroke-dasharray:none;stroke-opacity:1"
             id="path5828" /></g><g
           id="g5830"
           transform="translate(309.6396,317.5303)"><path
             d="M 0,0 -3.068,-9.204"
             style="fill:none;stroke:#000000;stroke-width:15;stroke-linecap:round;stroke-linejoin:round;stroke-miterlimit:10;stroke-dasharray:none;stroke-opacity:1"
             id="path5832" /></g><g
           id="g5834"
           transform="translate(275.8926,281.7383)"><path
             d="M 0,0 -3.067,-9.204"
             style="fill:none;stroke:#000000;stroke-width:15;stroke-linecap:round;stroke-linejoin:round;stroke-miterlimit:10;stroke-dasharray:none;stroke-opacity:1"
             id="path5836" /></g><g
           id="g5838"
           transform="translate(330.835,277.2935)"><path
             d="M 0,0 -8.644,-4.404"
             style="fill:none;stroke:#000000;stroke-width:15;stroke-linecap:round;stroke-linejoin:round;stroke-miterlimit:10;stroke-dasharray:none;stroke-opacity:1"
             id="path5840" /></g><g
           id="g5842"
           transform="translate(126.627,242.1333)"><path
             d="m 0,0 -48.372,132.902 c -8.212,22.563 -6.431,47.555 4.899,68.724 3.279,6.126 8.702,10.828 15.231,13.204 6.529,2.376 13.705,2.261 20.154,-0.325 22.287,-8.934 39.716,-26.934 47.928,-49.497 L 99.796,0.282"
             style="fill:none;stroke:#000000;stroke-width:15;stroke-linecap:round;stroke-linejoin:round;stroke-miterlimit:10;stroke-dasharray:none;stroke-opacity:1"
             id="path5844" /></g><g
           id="g5846"
           transform="translate(105.6631,385.1538)"><path
             d="M 0,0 0.797,-0.041 C 13.01,-0.664 24.937,3.796 33.743,12.282"
             style="fill:none;stroke:#000000;stroke-width:15;stroke-linecap:round;stroke-linejoin:round;stroke-miterlimit:10;stroke-dasharray:none;stroke-opacity:1"
             id="path5848" /></g><g
           id="g5850"
           transform="translate(119.6533,346.7153)"><path
             d="m 0,0 0.797,-0.041 c 12.214,-0.623 24.14,3.838 32.947,12.323"
             style="fill:none;stroke:#000000;stroke-width:15;stroke-linecap:round;stroke-linejoin:round;stroke-miterlimit:10;stroke-dasharray:none;stroke-opacity:1"
             id="path5852" /></g><g
           id="g5854"
           transform="translate(133.6445,308.2769)"><path
             d="M 0,0 0.796,-0.041 C 13.01,-0.664 24.937,3.797 33.743,12.282"
             style="fill:none;stroke:#000000;stroke-width:15;stroke-linecap:round;stroke-linejoin:round;stroke-miterlimit:10;stroke-dasharray:none;stroke-opacity:1"
             id="path5856" /></g><g
           id="g5858"
           transform="translate(147.6348,269.8384)"><path
             d="M 0,0 0.796,-0.041 C 13.01,-0.664 24.937,3.797 33.743,12.282"
             style="fill:none;stroke:#000000;stroke-width:15;stroke-linecap:round;stroke-linejoin:round;stroke-miterlimit:10;stroke-dasharray:none;stroke-opacity:1"
             id="path5860" /></g><g
           id="g5862"
           transform="translate(115.1484,122.6172)"><path
             d="M 0,0 V 62.617"
             style="fill:none;stroke:#000000;stroke-width:15;stroke-linecap:round;stroke-linejoin:round;stroke-miterlimit:10;stroke-dasharray:none;stroke-opacity:1"
             id="path5864" /></g><g
           id="g5866"
           transform="translate(400.4639,185.1704)"><path
             d="m 0,0 v -157.843 c 0,-11.046 -8.954,-20 -20,-20 h -245.315 c -11.045,0 -20,8.954 -20,20 v 60.141"
             style="fill:none;stroke:#000000;stroke-width:15;stroke-linecap:round;stroke-linejoin:round;stroke-miterlimit:10;stroke-dasharray:none;stroke-opacity:1"
             id="path5868" /></g><g
           id="g5870"
           transform="translate(280.8721,241.5107)"><path
             d="m 0,0 h -168.791 c -5.647,0 -10.227,-4.579 -10.227,-10.227 v -36.119 c 0,-7.21 7.261,-12.155 13.971,-9.516 l 34.275,13.484 c 2.406,0.946 5.081,0.946 7.487,0 l 44.501,-17.507 c 2.406,-0.947 5.082,-0.947 7.488,0 l 44.493,17.507 c 2.407,0.946 5.082,0.946 7.489,0 l 44.495,-17.507 c 2.406,-0.947 5.082,-0.947 7.488,0 l 44.492,17.507 c 2.407,0.946 5.083,0.946 7.489,0 l 34.265,-13.483 c 6.71,-2.64 13.971,2.306 13.971,9.516 v 36.118 C 132.886,-4.579 128.308,0 122.659,0 h -87.68"
             style="fill:none;stroke:#000000;stroke-width:15;stroke-linecap:round;stroke-linejoin:round;stroke-miterlimit:10;stroke-dasharray:none;stroke-opacity:1"
             id="path5872" /></g><g
           id="g5874"
           transform="translate(252.9541,48.2329)"><path
             d="M 0,0 H 70.301"
             style="fill:none;stroke:#000000;stroke-width:15;stroke-linecap:round;stroke-linejoin:round;stroke-miterlimit:10;stroke-dasharray:none;stroke-opacity:1"
             id="path5876" /></g><g
           id="g5878"
           transform="translate(192.3574,48.2329)"><path
             d="M 0,0 H 29.918"
             style="fill:none;stroke:#000000;stroke-width:15;stroke-linecap:round;stroke-linejoin:round;stroke-miterlimit:10;stroke-dasharray:none;stroke-opacity:1"
             id="path5880" /></g><g
           id="g5882"
           transform="translate(317.0547,116.2383)"><path
             d="m 0,0 c 0,-20.333 -26.526,-36.815 -59.248,-36.815 -32.723,0 -59.249,16.482 -59.249,36.815 0,20.332 26.526,36.814 59.249,36.814 C -26.526,36.814 0,20.332 0,0 Z"
             style="fill:none;stroke:#000000;stroke-width:15;stroke-linecap:round;stroke-linejoin:round;stroke-miterlimit:10;stroke-dasharray:none;stroke-opacity:1"
             id="path5884" /></g><g
           id="g5886"
           transform="translate(247.0684,122.3457)"><path
             d="M 0,0 -10.226,-12.215"
             style="fill:none;stroke:#000000;stroke-width:15;stroke-linecap:round;stroke-linejoin:round;stroke-miterlimit:10;stroke-dasharray:none;stroke-opacity:1"
             id="path5888" /></g><g
           id="g5890"
           transform="translate(278.7705,122.3457)"><path
             d="M 0,0 -10.227,-12.215"
             style="fill:none;stroke:#000000;stroke-width:15;stroke-linecap:round;stroke-linejoin:round;stroke-miterlimit:10;stroke-dasharray:none;stroke-opacity:1"
             id="path5892" /></g></g></g></g></svg>
