<svg id="Capa_1" enable-background="new 0 0 511.999 511.999" height="512" viewBox="0 0 511.999 511.999" width="512" xmlns="http://www.w3.org/2000/svg"><g><g><circle cx="142.383" cy="114.25" fill="#80cb8e" r="105.356"/><circle cx="142.383" cy="114.25" fill="#f6e266" r="74.779"/><path d="m474.969 22.831-96.128 189.587-17.32-8.779-12.92-6.55 96.129-189.588 12.92 6.55z" fill="#da4a54"/><path d="m296.842 98.327h212.565v14.485h-212.565z" fill="#c32430" transform="matrix(.452 -.892 .892 .452 126.661 417.376)"/><path d="m468.819 114.25v333.165c0 31.53-25.55 57.079-57.079 57.079h-212.277c-31.53 0-57.079-25.55-57.079-57.079v-333.165z" fill="#d3effb"/><path d="m428.62 114.25-49.779 98.168-30.24-15.329 41.999-82.839z" fill="#dd542e"/><path d="m300.17 504.491h-100.708c-31.52 0-57.079-25.55-57.079-57.079v-333.162h100.709v333.162c-.001 31.529 25.559 57.079 57.078 57.079z" fill="#90d8f9"/><path d="m172.383 217.888c0-62.413 87.169-36.889 157.768-18.86l-16.188 40.5-115.546 9.556" fill="#f9efaf"/><path d="m356.424 191.613-34.297-34.297c-11.71-11.71-30.697-11.71-42.407 0l-34.297 34.297c-11.71 11.71-11.71 30.697 0 42.407l34.297 34.297c11.71 11.71 30.697 11.71 42.407 0l34.297-34.297c11.711-11.711 11.711-30.697 0-42.407z" fill="#90d8f9"/><path d="m438.82 178.999v268.416c0 14.93-12.15 27.08-27.08 27.08h-212.277c-14.93 0-27.08-12.15-27.08-27.08v-229.526c23.49 9.15 46.059 11.12 67.699 8.89 1.01-.1 2.01-.22 3.01-.34 40.079-4.84 76.969-23.7 110.748-37.409 30.93-12.571 59.24-20.821 84.98-10.031z" fill="#f6e266"/><path d="m249.912 474.495h-50.449c-14.93 0-27.08-12.15-27.08-27.08v-229.526c23.49 9.15 46.059 11.12 67.699 8.89 1.01-.1 2.01-.22 3.01-.34v220.977c0 9.799 2.47 19.019 6.82 27.079z" fill="#eab14d"/><g fill="#d3effb"><path d="m356.421 234.018-34.289 34.3c-11.71 11.71-30.7 11.71-42.41 0l-34.299-34.3c-2.19-2.19-3.97-4.64-5.34-7.24 41.249-4.23 79.139-23.7 113.758-37.749l2.58 2.58c11.71 11.71 11.71 30.699 0 42.409z"/><path d="m410.179 394.974-13.754-46.512c-4.696-15.881-21.378-24.948-37.259-20.252l-46.512 13.754c-15.881 4.696-24.948 21.378-20.252 37.259l13.754 46.512c4.696 15.881 21.378 24.948 37.259 20.252l46.512-13.754c15.881-4.696 24.948-21.378 20.252-37.259z"/><path d="m321.411 367.556-24.25 42.009c-8.28 14.34-26.62 19.26-40.969 10.98l-13.1-7.57-28.9-16.69c-14.34-8.28-19.26-26.62-10.98-40.959l24.25-42.009c3.65-6.33 9.26-10.82 15.63-13.15 8.06-2.95 17.32-2.45 25.34 2.18l41.999 24.25c14.34 8.28 19.26 26.62 10.98 40.959z"/></g><path d="m243.092 300.167v112.809l-28.9-16.69c-14.34-8.28-19.26-26.62-10.98-40.959l24.25-42.009c3.651-6.331 9.26-10.821 15.63-13.151z" fill="#90d8f9"/></g><g><path d="m403.618 346.335c-5.863-19.821-26.76-31.179-46.579-25.317l-31.447 9.299c-3.042-4.134-6.9-7.618-11.41-10.215l-42.002-24.25c-17.905-10.331-40.88-4.179-51.213 13.716l-24.249 42.009c-5.007 8.67-6.335 18.772-3.742 28.445 2.594 9.67 8.796 17.753 17.466 22.759l42.003 24.261c5.888 3.397 12.322 5.012 18.677 5.012 9.57 0 18.95-3.673 26-10.422l1.842 6.231c2.84 9.602 9.248 17.523 18.046 22.305 5.572 3.029 11.681 4.568 17.85 4.568 3.57 0 7.162-.516 10.682-1.557l46.512-13.754c19.821-5.861 31.179-26.756 25.317-46.578zm-112.951 59.481c-6.201 10.739-19.984 14.432-30.723 8.235l-42.001-24.26c-5.201-3.003-8.923-7.853-10.478-13.654-1.555-5.802-.759-11.86 2.244-17.06l24.249-42.009c6.198-10.733 19.979-14.424 30.724-8.225l42.008 24.254c1.021.588 1.982 1.254 2.886 1.983-19.228 6.242-30.133 26.77-24.367 46.27l6.633 22.429zm97.133 19.225-46.512 13.754c-5.76 1.704-11.838 1.061-17.115-1.807-5.277-2.869-9.121-7.62-10.824-13.38l-13.755-46.512c-3.517-11.89 3.297-24.424 15.186-27.94l46.512-13.754c2.119-.627 4.26-.926 6.365-.926 9.707 0 18.685 6.342 21.575 16.113l13.754 46.512c3.517 11.89-3.295 24.424-15.186 27.94z"/><path d="m395.02 241.448c-13.381 0-24.267 10.886-24.267 24.267s10.887 24.267 24.267 24.267c13.381 0 24.267-10.886 24.267-24.267s-10.886-24.267-24.267-24.267zm0 33.535c-5.11 0-9.268-4.157-9.268-9.268s4.157-9.268 9.268-9.268c5.11 0 9.268 4.157 9.268 9.268s-4.158 9.268-9.268 9.268z"/><path d="m216.679 292.202c12.05 0 21.852-9.803 21.852-21.852s-9.803-21.852-21.852-21.852-21.851 9.803-21.851 21.852c0 12.05 9.802 21.852 21.851 21.852zm0-28.704c3.778 0 6.852 3.074 6.852 6.852s-3.074 6.852-6.852 6.852-6.852-3.074-6.852-6.852c.001-3.778 3.074-6.852 6.852-6.852z"/><path d="m482.098 20.499c-.618-1.891-1.963-3.458-3.736-4.357l-30.24-15.33c-3.696-1.873-8.207-.396-10.081 3.297l-52.048 102.641h-131.001c-3.875-58.746-52.894-105.358-112.604-105.358-24.632 0-48.04 7.798-67.692 22.552-3.312 2.487-3.981 7.188-1.495 10.501 2.486 3.312 7.187 3.982 10.501 1.495 17.034-12.788 37.328-19.548 58.686-19.548 51.436 0 93.731 39.89 97.575 90.358h-15.657c-3.803-41.865-39.083-74.779-81.922-74.779-45.356 0-82.257 36.889-82.278 82.24 0 .013-.002.026-.002.039s.002.026.002.039c.02 42.821 32.925 78.081 74.777 81.883v15.653c-50.467-3.845-90.354-46.139-90.354-97.574 0-21.358 6.76-41.652 19.548-58.687 2.486-3.312 1.817-8.014-1.495-10.5-3.313-2.487-8.015-1.817-10.501 1.496-14.754 19.653-22.552 43.06-22.552 67.692 0 59.708 46.61 108.727 105.354 112.604v220.563c0 35.61 28.971 64.581 64.581 64.581h212.276c35.61 0 64.581-28.971 64.581-64.581v-333.169c0-4.142-3.357-7.5-7.5-7.5h-27.99l40.829-80.527c.898-1.774 1.057-3.833.438-5.724zm-347.215 160.601c-12.937-1.442-24.772-6.569-34.441-14.302l34.441-34.441zm15-133.701c12.938 1.442 24.772 6.568 34.442 14.302l-34.442 34.442zm-15 48.743-34.44-34.441c9.669-7.733 21.504-12.859 34.44-14.302zm-10.606 10.608h-48.744c1.442-12.938 6.568-24.772 14.302-34.442zm-.001 15-34.441 34.441c-7.733-9.669-12.859-21.504-14.301-34.441zm70.656-49.442c7.734 9.67 12.86 21.504 14.302 34.442h-48.744zm266.388 49.442v325.668c0 27.339-22.242 49.581-49.581 49.581h-212.276c-27.339 0-49.581-22.242-49.581-49.581v-325.668h228.504l-27.327 53.891-23.629-23.629c-7.08-7.08-16.494-10.979-26.507-10.979s-19.427 3.899-26.508 10.979l-21.575 21.576c-36.161-5.692-59.629-2.789-73.667 9.066-9.482 8.008-14.291 19.863-14.291 35.234h.004v.002 229.528c0 19.067 15.513 34.58 34.58 34.58h212.269c19.067 0 34.58-15.513 34.58-34.58v-185.048c0-4.142-3.357-7.5-7.5-7.5s-7.5 3.358-7.5 7.5v185.049c0 10.796-8.783 19.58-19.58 19.58h-212.268c-10.797 0-19.58-8.784-19.58-19.58v-218.962c19.468 6.059 38.23 7.605 56.306 6.247 1.174 1.626 2.48 3.173 3.926 4.619l34.298 34.297c7.08 7.081 16.494 10.979 26.507 10.979s19.427-3.899 26.507-10.979l34.298-34.297c12.811-12.811 14.39-32.664 4.743-47.214 23.841-9.008 45.396-14.061 64.845-7.882v48.144c0 4.142 3.357 7.5 7.5 7.5s7.5-3.358 7.5-7.5v-53.371c0-3.022-1.813-5.749-4.602-6.917-10.136-4.248-20.552-5.818-31.218-5.506l22.729-44.828h28.094zm-93.453 53.915 27.339-53.915h21.201l-23.803 46.947c-8.118 1.615-16.367 4.038-24.737 6.968zm-16.746 53.051-34.298 34.297c-4.247 4.247-9.893 6.586-15.899 6.586-6.007 0-11.653-2.339-15.9-6.586l-30.639-30.639c29.142-5.214 56.424-16.904 81.93-27.835 5.329-2.284 10.555-4.522 15.683-6.654 7.854 8.82 7.579 22.375-.877 30.831zm-106.981-15.9c0-6.006 2.339-11.653 6.587-15.9l34.296-34.297c4.248-4.247 9.894-6.586 15.901-6.586 6.006 0 11.652 2.339 15.899 6.586l23.783 23.782c-3.384 1.431-6.783 2.887-10.201 4.352-26.573 11.389-55.187 23.65-85.503 27.808-.487-1.855-.762-3.777-.762-5.745zm-14.327 7.098c-16.127.653-32.703-1.311-49.68-7.171.814-8.246 3.682-14.375 8.719-18.629 9.079-7.668 25.735-10.051 50.7-7.208-6.715 7.009-10.412 16.173-10.412 25.91 0 2.409.231 4.782.673 7.098zm194.2-113.164h-21.201l45.215-89.168 16.861 8.548z"/></g></g></svg>