<svg id="Capa_1" enable-background="new 0 0 512 512" height="512" viewBox="0 0 512 512" width="512" xmlns="http://www.w3.org/2000/svg"><g><path d="m416 172.16v289.84c0 22.09-17.91 40-40 40h-240c-22.09 0-40-17.91-40-40v-289.84c0-14.5 3.94-28.73 11.4-41.16l18.6-31h260l18.6 31c7.46 12.43 11.4 26.66 11.4 41.16z" fill="#fff"/><path d="m220.079 235.088c18.561-18.55 16.561-48.625-2-67.175s-48.654-18.55-67.215 0c-3.258 3.256-8.069 10.733-8.078 10.746-15.016 21.288-45.684 72.018-46.758 131.328-.023 1.252-.032 80.103-.028 81.362l54.864 46.739c18.561 18.55 48.654 18.55 67.215 0s20.561-48.625 2-67.175c0-.001-67.873-67.992 0-135.825z" fill="#a0e4a5"/><path d="m373.372 285.333c3.118-16.031 11.594-33.143 28.707-50.246 18.561-18.55 18.561-48.625 0-67.176-18.561-18.55-48.654-18.55-67.215 0-3.258 3.256-8.069 10.733-8.078 10.746-12.887 18.269-37.301 58.223-44.645 106.675h91.231z" fill="#89dd8e"/><path d="m310.079 235.088c18.561-18.55 18.561-48.625 0-67.175s-48.654-18.55-67.215 0c-3.258 3.256-8.069 10.733-8.078 10.746-25.372 35.969-95.424 155.989 8.078 259.43 18.561 18.55 48.654 18.55 67.215 0s18.561-48.625 0-67.175c0-.002-67.873-67.993 0-135.826z" fill="#b8ecbc"/><path d="m400.435 440.609c-46.012 46.044-94.964 61.391-139.775 61.391-67.894 0-126.281-35.252-150.535-52.349-.01-.011-8.378-5.395-12.023-9.041-.725-.725-1.429-1.47-2.102-2.237v-70.742c.673-.767 1.377-1.512 2.102-2.237 20.764-20.774 54.41-20.774 75.174 0 75.899 75.951 151.984 0 151.984 0 20.764-20.774 54.41-20.774 75.174 0 20.754 20.764 20.754 54.442.001 75.215z" fill="#a0e4a5"/><path d="m416 396h-103.716c-5.304 0-10.391-2.107-14.142-5.858l-28.284-28.284c-3.751-3.751-5.858-8.838-5.858-14.142v-83.431c0-5.304 2.107-10.391 5.858-14.142l28.284-28.284c3.751-3.751 8.838-5.858 14.142-5.858h103.716z" fill="#ffd88e"/><path d="m416 100h-320v-50c0-22.091 17.909-40 40-40h240c22.091 0 40 17.909 40 40z" fill="#ddb7a2"/><g><path d="m136 50c-5.523 0-10 4.478-10 10s4.477 10 10 10h84c5.523 0 10-4.478 10-10s-4.477-10-10-10z"/><path d="m266 60c0 5.522 4.477 10 10 10h44c5.523 0 10-4.478 10-10s-4.477-10-10-10h-44c-5.523 0-10 4.478-10 10z"/><circle cx="308.14" cy="10" r="10"/><path d="m423.07 107.069c1.86-1.859 2.93-4.439 2.93-7.069v-50c0-6.75-1.32-13.3-3.93-19.46-2.52-5.96-6.12-11.3-10.72-15.891-4.59-4.6-9.93-8.199-15.89-10.72-6.16-2.61-12.71-3.929-19.46-3.929h-22.86c-5.51 0-10 4.49-10 10s4.49 10 10 10h22.86c16.51.029 29.97 13.49 30 30v40h-300v-40c.03-16.51 13.49-29.971 30-30h127.14c5.52 0 10-4.49 10-10s-4.48-10-10-10h-127.14c-6.75 0-13.3 1.319-19.46 3.93-5.96 2.521-11.3 6.12-15.89 10.72-4.6 4.591-8.2 9.931-10.72 15.891-2.61 6.159-3.93 12.709-3.93 19.459v50c0 2.63 1.07 5.21 2.93 7.069 1.86 1.861 4.44 2.931 7.07 2.931h12.338l-9.512 15.854c-8.391 13.98-12.826 29.993-12.826 46.306v289.84c0 27.57 22.43 50 50 50h240c27.57 0 50-22.43 50-50v-289.84c0-16.313-4.435-32.326-12.825-46.305l-9.514-15.855h12.339c2.63 0 5.21-1.07 7.07-2.931zm-317.07 203.285c.017-.083.027-.147.027-.187 1.042-57.479 31.881-107.25 45.043-125.91 2.084-3.224 5.277-7.687 6.864-9.272 14.634-14.624 38.444-14.624 53.077 0 3.038 3.036 5.53 6.466 7.455 10.148-13.67 21.708-31.238 55.925-37.837 96.325-4.56 27.917-2.997 55.489 4.304 80.842.055.189.026.093-.001-.001-1.594-1.456-3.008-2.399-4.583-3.975-11.931-11.937-27.792-18.511-44.66-18.511-10.532 0-20.659 2.587-29.689 7.426zm156.787 58.575 14.503 14.503c-.897.327-1.799.649-2.718.956-21.001 6.992-41.142 6.292-60.217-2.023-41.976-84.874 9.11-170.306 28.604-197.943.035-.049 5.388-7.851 6.975-9.437 7.318-7.313 16.926-10.969 26.539-10.969 9.609 0 19.223 3.657 26.538 10.969 7.087 7.083 10.99 16.499 10.99 26.515v4.5c-8.012 0-17.261 3.12-22.929 8.786l-28.283 28.284c-5.667 5.666-8.788 13.199-8.788 21.214v83.432c-.001 8.014 3.12 15.548 8.786 21.213zm-126.787 123.071c-16.542 0-30-13.458-30-30v-3.033c12.214 8.478 33.564 21.84 60.691 33.033zm-20.113-50.522s-7.684-5.242-9.887-7.173v-62.646c8.052-7.648 18.549-11.846 29.689-11.846 11.524 0 22.361 4.492 30.513 12.648 42.818 42.849 86.003 40.452 114.688 30.901 4.147-1.381 8.097-2.948 11.84-4.621 5.44 4.691 12.298 7.258 19.554 7.258h93.569c-.69 10.039-4.84 19.882-12.492 27.541-38.764 38.791-83.411 58.46-132.701 58.46-65.98 0-123.224-35.332-144.773-50.522zm290.113 20.522c0 16.542-13.458 30-30 30h-29.132c20.895-10.317 40.641-24.614 59.132-42.835zm0-206h-37c-5.523 0-10 4.478-10 10s4.477 10 10 10h37v20h-82c-5.523 0-10 4.478-10 10s4.477 10 10 10h82v20h-82c-5.523 0-10 4.478-10 10s4.477 10 10 10h82v30h-93.716c-2.671 0-5.183-1.04-7.071-2.929l-28.285-28.286c-1.888-1.888-2.928-4.398-2.928-7.069v-83.432c0-2.671 1.04-5.182 2.929-7.07l28.283-28.284c1.889-1.89 4.401-2.93 7.072-2.93h93.716zm-.275-50h-71.92c.116-1.491.195-2.989.195-4.5 0-4.576-.543-9.066-1.576-13.409.876-1.289 7.923-11.52 9.51-13.106 14.634-14.624 38.443-14.624 53.076 0 7.087 7.083 10.99 16.499 10.99 26.515 0 1.517-.098 3.017-.275 4.5zm-1.519-49.548c-22.561-17.903-55.56-16.449-76.41 4.387-1.695 1.694-3.559 4.047-5.201 6.285-1.65-2.202-3.465-4.304-5.446-6.285-22.429-22.416-58.924-22.416-81.353 0-1.69 1.689-3.547 4.032-5.185 6.263-1.668-2.188-3.484-4.286-5.462-6.263-22.429-22.416-58.924-22.416-81.353 0-3.566 3.563-7.887 10.048-9.295 12.218-6.993 9.931-18.467 27.848-28.5 50.913v-51.81c0-12.688 3.449-25.142 9.975-36.016l15.686-26.144h248.676l15.688 26.146c3.794 6.322 6.54 13.18 8.18 20.306z"/></g></g></svg>