<?xml version="1.0" encoding="iso-8859-1"?>
<!-- Generator: Adobe Illustrator 19.0.0, SVG Export Plug-In . SVG Version: 6.00 Build 0)  -->
<svg version="1.1" id="Capa_1" xmlns="http://www.w3.org/2000/svg" xmlns:xlink="http://www.w3.org/1999/xlink" x="0px" y="0px"
	 viewBox="0 0 512 512" style="enable-background:new 0 0 512 512;" xml:space="preserve">
<path style="fill:#E6E6E6;" d="M504.322,301.154c0,52.435-47.235,94.94-99.67,94.94h-18.908l-95.37-24.467l4.463-0.092
	l103.908-2.027c32.77-6.163,59.755-34.418,59.755-68.354c0-61.475-7.658-68.672-53.848-69.501l-24.672-2.846l12.919-11.834
	l11.752-10.77C491.096,206.203,504.322,206.807,504.322,301.154z"/>
<path style="fill:#CCCCCC;" d="M480.305,301.154c0,46.508-48.863,84.202-103.11,84.202h-19.563l-62.795-13.82l103.908-2.027
	c32.77-6.163,59.755-34.418,59.755-68.354c0-61.475-7.658-68.672-53.848-69.501l-24.672-2.846l12.919-11.834
	C468.256,217.321,480.305,222.644,480.305,301.154z"/>
<path style="fill:#E6E6E6;" d="M324.11,442.176L324.11,442.176H126.512l0,0C78.649,427.508,45.97,383.313,45.97,333.253V166.771
	h358.683v166.482C404.653,383.313,371.973,427.508,324.11,442.176z"/>
<path style="fill:#CCCCCC;" d="M167.261,442.173h-40.744c-23.925-7.33-44.071-22.041-58.219-41.185
	c-14.158-19.133-22.327-42.7-22.327-67.73V166.769h73.964v166.489c0,25.03,4.801,48.596,13.114,67.73
	C141.371,420.132,153.205,434.843,167.261,442.173z"/>
<path style="fill:#A6C8E8;" d="M442.944,442.176H7.678l0,0c20.822,37.671,60.465,61.056,103.508,61.056h228.249
	C382.478,503.232,422.123,479.847,442.944,442.176L442.944,442.176z"/>
<path style="fill:#81A9C9;" d="M138.2,442.176h-30.714H7.678l0,0c20.822,37.672,60.465,61.057,103.508,61.057h99.808
	C167.952,503.233,138.2,485.253,138.2,442.176z"/>
<path d="M81.794,426.469c1.437,1.204,3.186,1.792,4.925,1.792c2.194,0,4.372-0.936,5.891-2.749
	c2.722-3.251,2.293-8.094-0.958-10.816c-6.422-5.378-12.206-11.524-17.192-18.273c-13.616-18.414-20.812-40.256-20.812-63.165
	v-95.923c0-4.24-3.438-7.678-7.678-7.678s-7.678,3.438-7.678,7.678v95.923c0,26.22,8.237,51.219,23.82,72.294
	C67.818,413.274,74.44,420.311,81.794,426.469z"/>
<path d="M442.944,434.498h-151.69c-4.24,0-7.678,3.438-7.678,7.678c0,4.24,3.438,7.678,7.678,7.678h137.734
	c-20.632,28.481-53.851,45.701-89.553,45.701H111.186c-35.698,0-68.919-17.223-89.553-45.701h244.025
	c4.24,0,7.678-3.438,7.678-7.678c0-4.24-3.438-7.678-7.678-7.678H7.678c-2.717,0-5.232,1.436-6.613,3.777
	c-1.381,2.341-1.421,5.236-0.106,7.614c22.167,40.107,64.404,65.021,110.228,65.021h228.249c45.824,0,88.061-24.914,110.228-65.021
	c1.314-2.378,1.275-5.274-0.106-7.614C448.176,435.934,445.661,434.498,442.944,434.498z"/>
<path d="M491.865,212.436c-15.461-13.086-39.953-13.863-79.535-13.909v-31.757c0-4.24-3.438-7.678-7.678-7.678H45.969
	c-4.24,0-7.678,3.438-7.678,7.678v44.971c0,4.24,3.438,7.678,7.678,7.678s7.678-3.438,7.678-7.678v-37.293h343.328v158.811
	c0,31.506-13.854,61.19-38.009,81.441c-3.249,2.724-3.675,7.567-0.951,10.817c1.518,1.812,3.696,2.746,5.887,2.746
	c1.74,0,3.491-0.589,4.928-1.794c8.021-6.724,15.042-14.363,20.978-22.692h14.847c27.207,0,54.449-10.89,74.743-29.88
	C500.422,354.225,512,328.391,512,301.155C512,253.616,508.886,226.844,491.865,212.436z M412.33,239.566
	c17.985,0.794,26.053,3.253,30.58,8.898c6.589,8.216,7.912,26.252,7.912,52.689c0,24.859-16.984,47.644-41.107,57.209
	c1.718-8.175,2.615-16.58,2.615-25.104V239.566z M468.907,362.682c-17.48,16.356-40.899,25.737-64.251,25.737h-5.535
	c2.039-4.006,3.856-8.121,5.439-12.331c35.424-8.698,61.618-40.163,61.618-74.934c0-31.272-1.799-50.462-11.289-62.296
	c-8.562-10.677-21.847-13.795-42.559-14.656v-10.315c37.905,0.084,58.726,1.054,69.615,10.27c10.991,9.303,14.7,28.732,14.7,76.997
	C496.644,324.094,486.794,345.945,468.907,362.682z"/>
<path d="M135.059,127.991c0,4.24,3.438,7.678,7.678,7.678s7.678-3.438,7.678-7.678c0-7.179,2.7-10.454,6.436-14.987
	c4.431-5.375,9.943-12.063,9.943-24.756c0-12.692-5.513-19.38-9.943-24.755c-3.737-4.533-6.436-7.808-6.436-14.987
	c0-7.177,2.7-10.452,6.436-14.984c4.43-5.375,9.943-12.062,9.943-24.753c0-4.24-3.438-7.678-7.678-7.678
	c-4.24,0-7.678,3.438-7.678,7.678c0,7.177-2.7,10.452-6.436,14.984c-4.43,5.375-9.943,12.062-9.943,24.753
	c0,12.692,5.513,19.38,9.943,24.755c3.737,4.533,6.436,7.808,6.436,14.987s-2.7,10.454-6.437,14.988
	C140.572,108.61,135.059,115.298,135.059,127.991z"/>
<path d="M209.444,127.991c0,4.24,3.438,7.678,7.678,7.678s7.678-3.438,7.678-7.678c0-7.179,2.7-10.454,6.436-14.987
	c4.431-5.375,9.943-12.063,9.943-24.756c0-12.692-5.513-19.38-9.943-24.755c-3.737-4.533-6.436-7.808-6.436-14.987
	c0-7.177,2.7-10.452,6.436-14.984c4.43-5.375,9.943-12.062,9.943-24.753c0-4.24-3.438-7.678-7.678-7.678s-7.678,3.438-7.678,7.678
	c0,7.177-2.7,10.452-6.436,14.984c-4.43,5.375-9.943,12.062-9.943,24.753c0,12.692,5.513,19.38,9.943,24.755
	c3.737,4.533,6.436,7.808,6.436,14.987s-2.7,10.454-6.437,14.988C214.956,108.61,209.444,115.298,209.444,127.991z"/>
<path d="M283.828,127.991c0,4.24,3.438,7.678,7.678,7.678s7.678-3.438,7.678-7.678c0-7.179,2.7-10.454,6.436-14.987
	c4.431-5.375,9.943-12.063,9.943-24.756c0-12.692-5.513-19.38-9.943-24.755c-3.737-4.533-6.436-7.808-6.436-14.987
	c0-7.177,2.7-10.452,6.436-14.984c4.43-5.375,9.943-12.062,9.943-24.753c0-4.24-3.438-7.678-7.678-7.678
	c-4.24,0-7.678,3.438-7.678,7.678c0,7.177-2.7,10.452-6.436,14.984c-4.43,5.375-9.943,12.062-9.943,24.753
	c0,12.692,5.513,19.38,9.943,24.755c3.737,4.533,6.436,7.808,6.436,14.987s-2.7,10.454-6.437,14.988
	C289.34,108.61,283.828,115.298,283.828,127.991z"/>
<g>
</g>
<g>
</g>
<g>
</g>
<g>
</g>
<g>
</g>
<g>
</g>
<g>
</g>
<g>
</g>
<g>
</g>
<g>
</g>
<g>
</g>
<g>
</g>
<g>
</g>
<g>
</g>
<g>
</g>
</svg>
