<?xml version="1.0" encoding="UTF-8" standalone="no"?>
<!-- Created with Inkscape (http://www.inkscape.org/) -->

<svg
   version="1.1"
   id="svg7479"
   xml:space="preserve"
   width="682.66669"
   height="682.66669"
   viewBox="0 0 682.66669 682.66669"
   xmlns="http://www.w3.org/2000/svg"
   xmlns:svg="http://www.w3.org/2000/svg"><defs
     id="defs7483"><clipPath
       clipPathUnits="userSpaceOnUse"
       id="clipPath7493"><path
         d="M 0,512 H 512 V 0 H 0 Z"
         id="path7491" /></clipPath></defs><g
     id="g7485"
     transform="matrix(1.3333333,0,0,-1.3333333,0,682.66667)"><g
       id="g7487"><g
         id="g7489"
         clip-path="url(#clipPath7493)"><g
           id="g7495"
           transform="translate(419.0912,458.8)"><path
             d="m 0,0 v -33.562 c 0,-31.782 11.129,-62.561 31.454,-86.995 v 0 c 20.326,-24.433 31.455,-55.212 31.455,-86.995 V -419.65 c 0,-16.099 -13.051,-29.15 -29.15,-29.15 h -70.998 -19.704 -70.998 c -16.099,0 -29.15,13.051 -29.15,29.15 v 212.098 c 0,31.783 11.128,62.562 31.454,86.995 v 0 c 20.326,24.434 31.455,55.213 31.455,86.995 V 0 Z"
             style="fill:#dff6fc;fill-opacity:1;fill-rule:nonzero;stroke:none"
             id="path7497" /></g><g
           id="g7499"
           transform="translate(482,228.4795)"><path
             d="m 0,0 -3.333,23.609 v 0 C -32.682,-6.11 -80.659,-6.11 -110.008,23.608 l -0.013,0.013 c -29.338,29.706 -77.292,29.719 -106.646,0.028 L -220,20.793 V -189.33 c 0,-16.099 13.051,-29.149 29.15,-29.149 h 70.998 19.704 70.998 c 16.099,0 29.15,13.05 29.15,29.149 z"
             style="fill:#ffffff;fill-opacity:1;fill-rule:nonzero;stroke:none"
             id="path7501" /></g><path
           d="M 310,174.891 H 30 V 10 h 280 z"
           style="fill:#ffd89e;fill-opacity:1;fill-rule:nonzero;stroke:none"
           id="path7503" /><g
           id="g7505"
           transform="translate(30,174.8908)"><path
             d="m 0,0 198.71,81.109 6.385,-0.471 C 247.327,77.521 280,42.347 280,0 v 0 z"
             style="fill:#ffcb7c;fill-opacity:1;fill-rule:nonzero;stroke:none"
             id="path7507" /></g><g
           id="g7509"
           transform="translate(221.7697,251.6497)"><path
             d="m 0,0 c 5.934,-14.28 -0.833,-30.667 -15.113,-36.6 -14.281,-5.934 -30.667,0.833 -36.601,15.113 z"
             style="fill:#ff9d6c;fill-opacity:1;fill-rule:nonzero;stroke:none"
             id="path7511" /></g><g
           id="g7513"
           transform="translate(416.3333,502)"><path
             d="m 0,0 h -88.667 c -11.045,0 -20,-8.954 -20,-20 v 0 c 0,-11.046 8.955,-20 20,-20 H 0 c 11.046,0 20,8.954 20,20 v 0 C 20,-8.954 11.046,0 0,0"
             style="fill:#cff1fb;fill-opacity:1;fill-rule:nonzero;stroke:none"
             id="path7515" /></g><g
           id="g7517"
           transform="translate(262,249.6669)"><path
             d="m 0,0 v 1.582 c 0,31.782 11.129,62.561 31.454,86.994 v 0 c 20.326,24.434 31.455,55.213 31.455,86.995 v 33.562"
             style="fill:none;stroke:#000000;stroke-width:20;stroke-linecap:round;stroke-linejoin:round;stroke-miterlimit:10;stroke-dasharray:none;stroke-opacity:1"
             id="path7519" /></g><g
           id="g7521"
           transform="translate(482,104.624)"><path
             d="m 0,0 v -65.474 c 0,-16.099 -13.051,-29.15 -29.15,-29.15 h -70.998 -19.704 -56.481"
             style="fill:none;stroke:#000000;stroke-width:20;stroke-linecap:round;stroke-linejoin:round;stroke-miterlimit:10;stroke-dasharray:none;stroke-opacity:1"
             id="path7523" /></g><g
           id="g7525"
           transform="translate(419.0912,458.8)"><path
             d="m 0,0 v -33.562 c 0,-31.782 11.129,-62.561 31.454,-86.995 v 0 c 20.326,-24.433 31.455,-55.212 31.455,-86.995 v -66.624"
             style="fill:none;stroke:#000000;stroke-width:20;stroke-linecap:round;stroke-linejoin:round;stroke-miterlimit:10;stroke-dasharray:none;stroke-opacity:1"
             id="path7527" /></g><g
           id="g7529"
           transform="translate(416.3333,502)"><path
             d="m 0,0 h -88.667 c -11.045,0 -20,-8.954 -20,-20 v 0 c 0,-11.046 8.955,-20 20,-20 H 0 c 11.046,0 20,8.954 20,20 v 0 C 20,-8.954 11.046,0 0,0 Z"
             style="fill:none;stroke:#000000;stroke-width:20;stroke-linecap:round;stroke-linejoin:round;stroke-miterlimit:10;stroke-dasharray:none;stroke-opacity:1"
             id="path7531" /></g><g
           id="g7533"
           transform="translate(478.6667,252.0883)"><path
             d="m 0,0 v 0 c -29.349,-29.718 -77.325,-29.719 -106.674,-0.001 l -0.013,0.013 c -29.338,29.707 -77.293,29.719 -106.646,0.028"
             style="fill:none;stroke:#000000;stroke-width:20;stroke-linecap:round;stroke-linejoin:round;stroke-miterlimit:10;stroke-dasharray:none;stroke-opacity:1"
             id="path7535" /></g><g
           id="g7537"
           transform="translate(30,129.75)"><path
             d="M 0,0 C 17.535,0 31.75,-14.215 31.75,-31.75 31.75,-49.285 17.535,-63.5 0,-63.5 Z"
             style="fill:#ff9d6c;fill-opacity:1;fill-rule:nonzero;stroke:none"
             id="path7539" /></g><g
           id="g7541"
           transform="translate(155.3784,38)"><path
             d="m 0,0 c 0,-15.464 -12.536,-28 -28,-28 -15.464,0 -28,12.536 -28,28 0,15.464 12.536,28 28,28 C -12.536,28 0,15.464 0,0"
             style="fill:#ff9d6c;fill-opacity:1;fill-rule:nonzero;stroke:none"
             id="path7543" /></g><g
           id="g7545"
           transform="translate(216.9881,118.8908)"><path
             d="m 0,0 c 0,-11.046 -8.954,-20 -20,-20 -11.046,0 -20,8.954 -20,20 0,11.046 8.954,20 20,20 C -8.954,20 0,11.046 0,0"
             style="fill:#ff9d6c;fill-opacity:1;fill-rule:nonzero;stroke:none"
             id="path7547" /></g><g
           id="g7549"
           transform="translate(268.129,30)"><path
             d="m 0,0 c 0,-11.046 -8.954,-20 -20,-20 -11.046,0 -20,8.954 -20,20 0,11.046 8.954,20 20,20 C -8.954,20 0,11.046 0,0"
             style="fill:#ff9d6c;fill-opacity:1;fill-rule:nonzero;stroke:none"
             id="path7551" /></g><path
           d="M 310,174.891 H 30 V 10 h 280 z"
           style="fill:none;stroke:#000000;stroke-width:20;stroke-linecap:round;stroke-linejoin:round;stroke-miterlimit:10;stroke-dasharray:none;stroke-opacity:1"
           id="path7553" /><g
           id="g7555"
           transform="translate(30,174.8908)"><path
             d="m 0,0 198.71,81.109 6.385,-0.471 C 247.327,77.521 280,42.347 280,0 v 0"
             style="fill:none;stroke:#000000;stroke-width:20;stroke-linecap:round;stroke-linejoin:round;stroke-miterlimit:10;stroke-dasharray:none;stroke-opacity:1"
             id="path7557" /></g><g
           id="g7559"
           transform="translate(30,129.75)"><path
             d="M 0,0 C 17.535,0 31.75,-14.215 31.75,-31.75 31.75,-49.285 17.535,-63.5 0,-63.5"
             style="fill:none;stroke:#000000;stroke-width:20;stroke-linecap:round;stroke-linejoin:round;stroke-miterlimit:10;stroke-dasharray:none;stroke-opacity:1"
             id="path7561" /></g><g
           id="g7563"
           transform="translate(155.3784,38)"><path
             d="m 0,0 c 0,-15.464 -12.536,-28 -28,-28 -15.464,0 -28,12.536 -28,28 0,15.464 12.536,28 28,28 C -12.536,28 0,15.464 0,0 Z"
             style="fill:none;stroke:#000000;stroke-width:20;stroke-linecap:round;stroke-linejoin:round;stroke-miterlimit:10;stroke-dasharray:none;stroke-opacity:1"
             id="path7565" /></g><g
           id="g7567"
           transform="translate(216.9881,118.8908)"><path
             d="m 0,0 c 0,-11.046 -8.954,-20 -20,-20 -11.046,0 -20,8.954 -20,20 0,11.046 8.954,20 20,20 C -8.954,20 0,11.046 0,0 Z"
             style="fill:none;stroke:#000000;stroke-width:20;stroke-linecap:round;stroke-linejoin:round;stroke-miterlimit:10;stroke-dasharray:none;stroke-opacity:1"
             id="path7569" /></g><g
           id="g7571"
           transform="translate(268.129,30)"><path
             d="m 0,0 c 0,-11.046 -8.954,-20 -20,-20 -11.046,0 -20,8.954 -20,20 0,11.046 8.954,20 20,20 C -8.954,20 0,11.046 0,0 Z"
             style="fill:none;stroke:#000000;stroke-width:20;stroke-linecap:round;stroke-linejoin:round;stroke-miterlimit:10;stroke-dasharray:none;stroke-opacity:1"
             id="path7573" /></g><g
           id="g7575"
           transform="translate(221.7697,251.6497)"><path
             d="m 0,0 c 5.934,-14.28 -0.833,-30.667 -15.113,-36.6 -14.281,-5.934 -30.667,0.833 -36.601,15.113"
             style="fill:none;stroke:#000000;stroke-width:20;stroke-linecap:round;stroke-linejoin:round;stroke-miterlimit:10;stroke-dasharray:none;stroke-opacity:1"
             id="path7577" /></g><g
           id="g7579"
           transform="translate(127.3784,118.8908)"><path
             d="M 0,0 V 0"
             style="fill:none;stroke:#000000;stroke-width:20;stroke-linecap:round;stroke-linejoin:round;stroke-miterlimit:10;stroke-dasharray:none;stroke-opacity:1"
             id="path7581" /></g><g
           id="g7583"
           transform="translate(273,98.8908)"><path
             d="M 0,0 V 0"
             style="fill:none;stroke:#000000;stroke-width:20;stroke-linecap:round;stroke-linejoin:round;stroke-miterlimit:10;stroke-dasharray:none;stroke-opacity:1"
             id="path7585" /></g><g
           id="g7587"
           transform="translate(482,144.6242)"><path
             d="M 0,0 V 0"
             style="fill:none;stroke:#000000;stroke-width:20;stroke-linecap:round;stroke-linejoin:round;stroke-miterlimit:10;stroke-dasharray:none;stroke-opacity:1"
             id="path7589" /></g></g></g></g></svg>
