<?xml version="1.0" encoding="iso-8859-1"?>
<!-- Generator: Adobe Illustrator 19.0.0, SVG Export Plug-In . SVG Version: 6.00 Build 0)  -->
<svg version="1.1" id="Capa_1" xmlns="http://www.w3.org/2000/svg" xmlns:xlink="http://www.w3.org/1999/xlink" x="0px" y="0px"
	 viewBox="0 0 512.001 512.001" style="enable-background:new 0 0 512.001 512.001;" xml:space="preserve">
<path style="fill:#F2F2F2;" d="M17.135,130.438h324.986v66.474H171.351C112.99,196.912,57.207,172.867,17.135,130.438
	L17.135,130.438z"/>
<path style="fill:#CCCCCC;" d="M17.135,130.438L17.135,130.438c7.616,8.065,15.803,15.46,24.466,22.158h270.977v44.316h29.544
	v-66.474H17.135z"/>
<path style="fill:#F9D53D;" d="M364.279,196.912v-22.158h118.177c12.237,0,22.158-9.921,22.158-22.158l0,0
	c0-12.237-9.921-22.158-22.158-22.158H343.967l-1.847,66.474H364.279z"/>
<path style="fill:#F7A246;" d="M482.456,130.438H343.967l-0.508,20.312h118.685c12.237,0,22.158,9.921,22.158,22.158l0,0
	c0,0.597-0.031,1.186-0.077,1.77c11.409-0.903,20.388-10.44,20.388-22.081l0,0C504.614,140.358,494.694,130.438,482.456,130.438z"/>
<path style="fill:#D85829;" d="M142.698,226.456h236.354c32.634,0,59.088,26.455,59.088,59.088l0,0
	c0,32.634-26.455,59.088-59.088,59.088H142.697"/>
<path style="fill:#FFFFFF;" d="M312.577,344.633c32.634,0,59.088-26.455,59.088-59.088s-26.455-59.088-59.088-59.088h-92.326
	c32.634,0,59.088,26.455,59.088,59.088s-26.455,59.088-59.088,59.088H312.577z"/>
<path style="fill:#A2421F;" d="M379.051,226.456H142.697v22.158h216.042c32.634,0,59.088,26.455,59.088,59.088l0,0
	c0,9.94-2.465,19.299-6.801,27.518c16.306-10.518,27.113-28.83,27.113-49.677l0,0C438.139,252.911,411.685,226.456,379.051,226.456z
	"/>
<path style="fill:#CCCCCC;" d="M266.362,248.614h35.136c32.634,0,59.088,26.455,59.088,59.088c0,5.077-0.642,10.004-1.846,14.705
	c8.081-10.107,12.925-22.916,12.925-36.863c0-32.634-26.455-59.088-59.088-59.088h-92.326
	C238.907,226.456,255.533,235.111,266.362,248.614z"/>
<circle style="fill:#BF8D7A;" cx="142.698" cy="285.545" r="59.088"/>
<path style="fill:#8F6A5C;" d="M116.846,285.545c0-26.862,17.93-49.521,42.47-56.702c-5.274-1.543-10.847-2.386-16.619-2.386
	c-32.634,0-59.088,26.455-59.088,59.088s26.455,59.088,59.088,59.088c5.772,0,11.345-0.843,16.619-2.386
	C134.777,335.066,116.846,312.405,116.846,285.545z"/>
<path style="fill:#F9D53D;" d="M373.512,344.633h125.177c3.273,0,5.926,2.653,5.926,5.926v25.079c0,3.273-2.653,5.926-5.926,5.926
	H23.06c-3.273,0-5.926-2.653-5.926-5.926v-25.079c0-3.273,2.653-5.926,5.926-5.926h130.716"/>
<path style="fill:#F7A246;" d="M373.512,364.945h125.177c3.273,0,5.926,1.194,5.926,2.667v11.286c0,1.472-2.653,2.667-5.926,2.667
	H23.06c-3.273,0-5.926-1.194-5.926-2.667v-11.286c0-1.472,2.653-2.667,5.926-2.667h130.716"/>
<g>
	<rect x="135.312" y="248.614" style="fill:#FFFFFF;" width="14.772" height="14.772"/>
	<rect x="105.768" y="263.387" style="fill:#FFFFFF;" width="14.772" height="14.772"/>
	<rect x="164.857" y="263.387" style="fill:#FFFFFF;" width="14.772" height="14.772"/>
	<rect x="135.312" y="278.159" style="fill:#FFFFFF;" width="14.772" height="14.772"/>
	<rect x="105.768" y="292.931" style="fill:#FFFFFF;" width="14.772" height="14.772"/>
	<rect x="164.857" y="292.931" style="fill:#FFFFFF;" width="14.772" height="14.772"/>
	<rect x="135.312" y="307.703" style="fill:#FFFFFF;" width="14.772" height="14.772"/>
</g>
<rect x="290.419" y="241.228" width="14.772" height="14.772"/>
<rect x="319.964" y="315.089" width="14.772" height="14.772"/>
<rect x="460.299" y="278.159" style="fill:#F9D53D;" width="14.772" height="14.772"/>
<path d="M501.978,285.545C508.12,280.127,512,272.201,512,263.387h-14.772c0,8.145-6.627,14.772-14.772,14.772v14.772
	c8.145,0,14.772,6.627,14.772,14.772H512C512,298.888,508.12,290.962,501.978,285.545z"/>
<path d="M498.688,337.247h-77.92c13.28-10.736,22.354-26.469,24.337-44.316h7.807v-14.772h-7.807
	c-3.687-33.19-31.898-59.088-66.054-59.088H142.698c-36.655,0-66.474,29.82-66.474,66.474c0,20.865,9.671,39.507,24.757,51.702
	H23.061c-7.34,0-13.312,5.972-13.312,13.312v25.079c0,7.34,5.972,13.312,13.312,13.312h475.628c7.34,0,13.312-5.972,13.312-13.312
	v-25.079C512,343.218,506.028,337.247,498.688,337.247z M379.051,233.842c28.509,0,51.702,23.193,51.702,51.702
	c0,28.509-23.193,51.702-51.702,51.702h-24.757c15.086-12.196,24.757-30.837,24.757-51.702s-9.671-39.507-24.757-51.702
	L379.051,233.842L379.051,233.842z M312.577,233.842c9.722,0,18.823,2.701,26.599,7.386h-26.599v14.772h42.393
	c1.63,2.331,3.078,4.797,4.311,7.386h-17.159v14.772h21.622c0.347,2.414,0.536,4.878,0.536,7.386
	c0,28.508-23.193,51.702-51.702,51.702h-50.608c2.786-2.252,5.388-4.72,7.776-7.386h42.832v-14.772h-32.801
	c1.189-2.385,2.238-4.849,3.139-7.386h22.276v-14.772h-18.886c0.27-2.427,0.421-4.889,0.421-7.386
	c0-20.865-9.671-39.507-24.757-51.702L312.577,233.842L312.577,233.842z M220.251,233.842c28.509,0,51.702,23.194,51.702,51.702
	c0,28.508-23.193,51.702-51.702,51.702h-35.836c15.086-12.196,24.757-30.837,24.757-51.702s-9.671-39.507-24.757-51.702
	L220.251,233.842L220.251,233.842z M90.995,285.545c0-28.508,23.193-51.702,51.702-51.702s51.702,23.194,51.702,51.702
	c0,28.508-23.193,51.702-51.702,51.702S90.995,314.053,90.995,285.545z M497.228,374.177H24.521v-22.158h472.707V374.177z"/>
<path d="M349.507,204.298H171.351c-60.131,0-118.299-25.072-159.586-68.789L0,123.052h349.507V204.298z M35.36,137.824
	c37.259,33.044,85.894,51.702,135.991,51.702h163.383v-51.702H35.36z"/>
<g>
	<rect x="105.768" y="145.21" style="fill:#FFFFFF;" width="59.088" height="14.772"/>
	<rect x="179.629" y="145.21" style="fill:#FFFFFF;" width="22.158" height="14.772"/>
	<polygon style="fill:#FFFFFF;" points="319.963,178.447 305.191,178.447 305.191,159.982 216.558,159.982 216.558,145.21 
		319.963,145.21 	"/>
</g>
<path d="M371.665,204.298h-14.772v-36.93h125.563c8.145,0,14.772-6.627,14.772-14.772c0-8.145-6.627-14.772-14.772-14.772H358.739
	v-14.772h123.716c16.291,0,29.544,13.254,29.544,29.544s-13.254,29.544-29.544,29.544H371.665V204.298z"/>
<rect x="467.685" y="145.21" width="14.772" height="14.772"/>
<rect x="438.141" y="145.21" width="14.772" height="14.772"/>
<rect x="408.596" y="145.21" width="14.772" height="14.772"/>
<g>
</g>
<g>
</g>
<g>
</g>
<g>
</g>
<g>
</g>
<g>
</g>
<g>
</g>
<g>
</g>
<g>
</g>
<g>
</g>
<g>
</g>
<g>
</g>
<g>
</g>
<g>
</g>
<g>
</g>
</svg>
