<svg id="Icons" height="300" viewBox="0 0 60 60" width="300" xmlns="http://www.w3.org/2000/svg" version="1.1" xmlns:xlink="http://www.w3.org/1999/xlink" xmlns:svgjs="http://svgjs.dev/svgjs"><g width="100%" height="100%" transform="matrix(1,0,0,1,0,0)"><path d="m9.335 48.47a.5.5 0 0 1 -.268-.922l.651-.413-2.044 1.179a.5.5 0 0 1 -.626-.761l1.382-1.578-2.015 1.163a.5.5 0 0 1 -.664-.713l.637-.941a.5.5 0 0 1 -.5-.245.5.5 0 0 1 .182-.682l1.655-.957a.5.5 0 0 1 .616.091.5.5 0 0 1 .048.622l-.591.873 2.751-1.586a.5.5 0 0 1 .626.761l-1.382 1.576 20.216-11.671a.5.5 0 0 1 .517.854l-.646.41.13-.074a.5.5 0 0 1 .539.841l-8.261 5.851 7.724-4.459a.5.5 0 0 1 .543.838l-5.675 4.1 5.134-2.963a.5.5 0 0 1 .562.823l-4.687 3.748 4.127-2.381a.5.5 0 0 1 .6.793l-2.957 2.848 2.363-1.363a.5.5 0 0 1 .664.713l-1.09 1.608.427-.246a.5.5 0 0 1 .5.865l-2.316 1.328a.5.5 0 0 1 -.664-.713l1.09-1.608-4.022 2.321a.5.5 0 0 1 -.6-.793l2.956-2.847-6.303 3.64a.5.5 0 0 1 -.562-.823l4.688-3.747-7.921 4.57a.5.5 0 0 1 -.543-.838l5.674-4.093-8.546 4.931a.5.5 0 0 1 -.539-.84l8.259-5.85-11.589 6.69a.5.5 0 0 1 -.25.07z" fill="#bf5555" fill-opacity="1" data-original-color="#bf5555ff" stroke="none" stroke-opacity="1"/><path d="m13.983 42.91a.5.5 0 0 1 -.283-.91l6.951-4.873-6.881 3.973a.5.5 0 0 1 -.537-.843l7.128-4.97-8.861 5.113a.5.5 0 0 1 -.522-.851l3.116-2.026-4.987 2.877a.5.5 0 0 1 -.52-.852l4.167-2.686-6.129 3.538a.5.5 0 0 1 -.631-.756l1.658-1.954-4.31 2.49a.5.5 0 0 1 -.625-.764l1.256-1.422-1.623.937a.5.5 0 0 1 -.65-.731l.541-.712a.5.5 0 0 1 -.176-.926l1.661-.962a.5.5 0 0 1 .647.735l-.373.486 2.124-1.221a.5.5 0 0 1 .625.763l-1.257 1.421 4.155-2.4a.5.5 0 0 1 .631.756l-1.657 1.96 21.379-12.348a.5.5 0 0 1 .52.852l-4.165 2.686 3.645-2.105a.5.5 0 0 1 .522.851l-3.119 2.027 2.6-1.5a.5.5 0 0 1 .536.843l-7.124 4.968 6.59-3.8a.5.5 0 0 1 .537.842l-6.956 4.876 6.421-3.706a.5.5 0 0 1 .5.865l-16.275 9.4a.494.494 0 0 1 -.249.059z" fill="#bf5555" fill-opacity="1" data-original-color="#bf5555ff" stroke="none" stroke-opacity="1"/><path d="m10.725 35.557a.5.5 0 0 1 -.274-.919l4.276-2.792-3.527 2.037a.5.5 0 0 1 -.528-.848l6.851-4.591-7.3 4.213a.5.5 0 0 1 -.523-.847l7.908-5.3-10.218 5.89a.5.5 0 0 1 -.524-.851l7.789-5.083-8.955 5.172a.5.5 0 0 1 -.7-.65l.824-1.714-.256.148a.5.5 0 0 1 -.5-.865l1.658-.957a.5.5 0 0 1 .7.649l-.826 1.713 23.392-13.5a.5.5 0 0 1 .524.852l-7.791 5.084 7.275-4.198a.5.5 0 0 1 .528.848l-7.905 5.3 7.377-4.261a.5.5 0 0 1 .528.848l-6.85 4.59 6.322-3.651a.5.5 0 0 1 .523.852l-4.283 2.8 3.76-2.174a.5.5 0 1 1 .5.865l-19.525 11.272a.5.5 0 0 1 -.25.068z" fill="#bf5555" fill-opacity="1" data-original-color="#bf5555ff" stroke="none" stroke-opacity="1"/><path d="m11.021 26.391a.5.5 0 0 1 -.276-.917l5.714-3.787-5.759 3.327a.5.5 0 0 1 -.521-.853l2.832-1.832-3.611 2.085a.5.5 0 0 1 -.539-.842l7.875-5.537-11.036 6.365a.5.5 0 0 1 -.6-.786l1.251-1.249-3.464 2a.5.5 0 0 1 -.6-.785l1.23-1.235-1.939 1.117a.5.5 0 0 1 -.688-.674l.785-1.428-.108.062a.5.5 0 0 1 -.5-.865l1.658-.957a.5.5 0 0 1 .688.673l-.785 1.427 3.645-2.1a.5.5 0 0 1 .605.785l-1.23 1.235 3.5-2.02a.5.5 0 0 1 .6.786l-1.248 1.246 17.425-10.06a.5.5 0 0 1 .538.842l-7.874 5.537 11.056-6.384a.5.5 0 0 1 .522.853l-2.834 1.833 2.656-1.533a.5.5 0 0 1 .527.849l-5.71 3.785 5.184-2.994a.5.5 0 1 1 .5.866l-19.221 11.1a.5.5 0 0 1 -.248.065z" fill="#bf5555" fill-opacity="1" data-original-color="#bf5555ff" stroke="none" stroke-opacity="1"/><path d="m13.024 18.569a.5.5 0 0 1 -.3-.9l1.684-1.28-1.505.868a.5.5 0 0 1 -.6-.794l2.033-1.949-3.266 1.886a.5.5 0 0 1 -.579-.808l.671-.588-2.419 1.396a.5.5 0 0 1 -.586-.8l.887-.8-2.528 1.455a.5.5 0 0 1 -.6-.788l1.075-1.067-1.516.875a.5.5 0 0 1 -.675-.7l.7-1.126a.5.5 0 0 1 -.434-.9l1.66-.949a.5.5 0 0 1 .674.7l-.7 1.115 3.15-1.818a.5.5 0 0 1 .6.788l-1.07 1.062 3.22-1.857a.5.5 0 0 1 .586.8l-.888.8 2.791-1.611a.5.5 0 0 1 .579.809l-.671.586 2.424-1.4a.5.5 0 0 1 .6.794l-2.032 1.947 4.757-2.746a.5.5 0 0 1 .553.831l-1.685 1.281 3.664-2.115a.5.5 0 0 1 .5.865l-10.504 6.069a.491.491 0 0 1 -.25.069z" fill="#bf5555" fill-opacity="1" data-original-color="#bf5555ff" stroke="none" stroke-opacity="1"/><path d="m39.426 50.458a.5.5 0 0 1 -.285-.91l8.359-5.809-11.16 6.444a.5.5 0 0 1 -.527-.849l9.6-6.415-11.642 6.718a.5.5 0 0 1 -.527-.85l11.922-7.91-13.741 7.933a.5.5 0 0 1 -.522-.853l10.736-6.925-11.98 6.916a.5.5 0 0 1 -.521-.852l13.062-8.459-14.273 8.24a.5.5 0 0 1 -.522-.853l14.409-9.324-15.491 8.945a.5.5 0 0 1 -.518-.855l13.121-8.37-13.9 8.024a.5.5 0 0 1 -.514-.857l7.627-4.749-8.013 4.626a.5.5 0 0 1 -.516-.856l10.885-6.842-11.306 6.527a.5.5 0 0 1 -.517-.855l12.571-7.946-12.954 7.479a.5.5 0 0 1 -.521-.853l16.663-10.759-17.11 9.877a.5.5 0 0 1 -.512-.858l5.191-3.205-5.17 2.983a.5.5 0 0 1 -.517-.855l11.969-7.558-12 6.928a.5.5 0 0 1 -.52-.854l15-9.647-14.992 8.654a.5.5 0 0 1 -.522-.852l14.92-9.655-14.744 8.512a.5.5 0 0 1 -.52-.853l11.659-7.453-11.263 6.504a.5.5 0 0 1 -.513-.857l1.222-.756-.708.408a.5.5 0 0 1 -.522-.852l10.933-7.07-10.256 5.919a.5.5 0 0 1 -.519-.854l6.63-4.228-5.808 3.354a.5.5 0 0 1 -.524-.852l7.919-5.163-6.811 3.933a.5.5 0 0 1 -.519-.855l1.477-.939-.337.194a.5.5 0 0 1 -.533-.845l6.8-4.67-4.8 2.773a.5.5 0 0 1 -.566-.82l4.835-3.941-.018.01a.5.5 0 1 1 -.5-.865l5.418-3.125a.5.5 0 0 1 .565.82l-4.834 3.94 10.5-6.062a.5.5 0 0 1 .533.845l-6.8 4.672 9.379-5.421a.5.5 0 0 1 .519.854l-1.49.948 2.666-1.539a.5.5 0 0 1 .523.852l-7.914 5.159 9.488-5.477a.5.5 0 0 1 .519.854l-6.625 4.229 7.762-4.481a.5.5 0 0 1 .521.853l-10.936 7.067 12.224-7.06a.5.5 0 0 1 .513.858l-1.239.767 1.77-1.022a.5.5 0 0 1 .52.854l-11.658 7.453 12.626-7.289a.5.5 0 0 1 .522.852l-14.919 9.654 15.954-9.206a.5.5 0 0 1 .521.853l-15 9.647 15.827-9.137a.5.5 0 0 1 .516.855l-11.971 7.557 12.459-7.193a.5.5 0 0 1 .512.859l-5.184 3.2 5.362-3.1a.5.5 0 0 1 .522.853l-16.66 10.763 17.162-9.909a.5.5 0 0 1 .518.856l-12.567 7.943 12.75-7.361a.5.5 0 0 1 .515.855l-10.894 6.849 10.923-6.309a.5.5 0 0 1 .515.858l-7.615 4.742 7.5-4.327a.5.5 0 0 1 .519.854l-13.13 8.374 13.011-7.507a.5.5 0 0 1 .521.852l-14.4 9.32 14.129-8.163a.5.5 0 0 1 .522.853l-13.065 8.463 12.6-7.275a.5.5 0 0 1 .522.853l-10.746 6.93 10.09-5.826a.5.5 0 0 1 .527.85l-11.921 7.909 10.94-6.315a.5.5 0 0 1 .527.848l-9.595 6.413 8.265-4.772a.5.5 0 0 1 .536.843l-8.352 5.806 6.327-3.653a.5.5 0 0 1 .527.849l-1.781 1.187a.506.506 0 0 1 .463.225.5.5 0 0 1 -.124.677l-3.07 2.251a.5.5 0 0 1 -.024.851l-5.413 3.125a.5.5 0 0 1 -.545-.836l1.029-.754-4.659 2.69a.5.5 0 0 1 -.527-.849l1.173-.782-3.2 1.848a.491.491 0 0 1 -.25.065z" fill="#e26767" fill-opacity="1" data-original-color="#e26767ff" stroke="none" stroke-opacity="1"/><path d="m37.6 46.4a.5.5 0 0 1 -.276-.917l2.834-1.874-4.226 2.44a.5.5 0 0 1 -.532-.849l6.5-4.351-8.016 4.627a.5.5 0 0 1 -.523-.851l5.386-3.5-6.409 3.7a.5.5 0 0 1 -.524-.851l7.506-4.9-8.5 4.909a.5.5 0 0 1 -.515-.856l1.3-.814-1.754 1.013a.5.5 0 0 1 -.525-.851l10.184-6.675-11.059 6.388a.5.5 0 0 1 -.523-.852l10.4-6.778-11.088 6.4a.5.5 0 0 1 -.522-.852l10.882-7.086-11.413 6.589a.5.5 0 0 1 -.522-.852l10.229-6.618-10.571 6.1a.5.5 0 0 1 -.515-.856l3.692-2.311-3.7 2.138a.5.5 0 0 1 -.515-.857l1.787-1.114-1.7.98a.5.5 0 0 1 -.521-.853l9.239-5.966-9.224 5.325a.5.5 0 0 1 -.521-.852l8.769-5.663-8.591 4.959a.5.5 0 0 1 -.515-.857l1.329-.832-.968.559a.5.5 0 0 1 -.527-.849l10.352-6.88-9.9 5.716a.5.5 0 0 1 -.517-.855l.954-.6-.36.208a.5.5 0 0 1 -.531-.845l9.028-6.148-8.078 4.663a.5.5 0 0 1 -.525-.849l3.863-2.549-2.758 1.588a.5.5 0 0 1 -.53-.847l3.365-2.275-1.864 1.076a.5.5 0 0 1 -.573-.815l4.222-3.578a.5.5 0 0 1 -.491-.87l4.811-2.777a.5.5 0 0 1 .573.814l-4.223 3.577 9.254-5.344a.5.5 0 0 1 .53.846l-3.364 2.278 5.089-2.938a.5.5 0 0 1 .525.85l-3.858 2.546 5.194-3a.5.5 0 0 1 .532.845l-9.031 6.15 10.725-6.192a.5.5 0 0 1 .516.856l-.946.6 1.553-.9a.5.5 0 0 1 .527.849l-10.356 6.889 11.536-6.66a.5.5 0 0 1 .516.857l-1.321.826 1.7-.984a.5.5 0 0 1 .522.853l-8.771 5.665 9.421-5.44a.5.5 0 0 1 .522.853l-9.248 5.966 9.768-5.64a.5.5 0 0 1 .515.858l-1.791 1.115 1.925-1.11a.5.5 0 0 1 .515.856l-3.669 2.306 3.789-2.187a.5.5 0 0 1 .521.853l-10.238 6.621 10.468-6.044a.5.5 0 0 1 .523.851l-10.873 7.081 10.992-6.345a.5.5 0 0 1 .524.851l-10.408 6.782 10.346-5.972a.5.5 0 0 1 .524.85l-10.185 6.675 9.949-5.744a.5.5 0 0 1 .516.857l-1.31.821.874-.5a.5.5 0 0 1 .524.851l-7.5 4.893 6.943-4.008a.5.5 0 0 1 .522.852l-5.379 3.5 4.646-2.682a.5.5 0 0 1 .528.848l-6.512 4.36 5.463-3.164a.5.5 0 0 1 .525.85l-2.828 1.87 1.591-.918a.5.5 0 0 1 .538.841l-4.02 2.839 2.013-1.162a.5.5 0 0 1 .553.83l-2.818 2.15a.5.5 0 0 1 .01.871l-4.811 2.775a.5.5 0 0 1 -.552-.83l1.3-.993-4.677 2.7a.5.5 0 0 1 -.538-.841l4.027-2.842-6.4 3.7a.494.494 0 0 1 -.25.06z" fill="#eaf2f2" fill-opacity="1" data-original-color="#eaf2f2ff" stroke="none" stroke-opacity="1"/><g fill="#262626"><path d="m26.134 19.671c-17.26 24.893 26.957 39.6 29.591 10.134.288-15.205-20.339-21.721-29.591-10.134zm16.366-4.829c14.43 3.335 15.748 25.278 1.6 30.005-25.182 6.792-27.551-34.692-1.6-30.005z" fill="#000000" fill-opacity="1" data-original-color="#262626ff" stroke="none" stroke-opacity="1"/><path d="m.316 22.6c1.325 4.015 7.2.442 9.632 2.539a1.533 1.533 0 0 1 -1.4 2.353c-1.919-.292-4.503.548-4.248 2.908.353 2.548 3.107 1.937 4.913 2.182a1.511 1.511 0 0 1 -.28 2.911c-2.833.027-9.933-.602-6.956 4.279 2.792 1.645 6.528.321 9.661.74a1.489 1.489 0 1 1 -.017 2.976c-2.048.147-5.658-.749-6.289 2.095-1.224 5.693 19.751 1.891 23.938 2.93 39.493 12.834 40.308-49.432 1.193-37.007-8.306.838-18.049-1.882-25.679 1.113-2.233 4.088 3.338 4.152 5.975 3.892 1.416.179 2.447 2.517.31 2.977-2.19.471-11.823-1.748-10.753 3.112zm42.852-11.66c18.257 3.8 20.256 31.352 2.555 37.491-31.843 8.954-35.483-42.475-2.555-37.495zm-40.868 9.76c3.051-.774 15.1 1.633 10.312-4.8-1.678-1.065-6.36.8-6.844-1.689-1.174-3.582 19.5-.926 22.761-1.7-13.262 7-13.533 27.788-.343 34.976-2.072-.53-28.225 1.96-19.88-2.976 2.17-.182 5.464.753 6.331-1.983a2.451 2.451 0 0 0 -2.379-3.039c-2.707-.206-5.478.133-8.175 0-1.58-.26-1.863-2.755-.141-2.976 2.339-.21 6.281 1 7.6-1.662 1.08-4.742-3.9-2.309-5.528-4.048a1.44 1.44 0 0 1 1.237-2.29c1.892.191 4.529-.3 4.481-2.706-.051-5.282-12.149.881-9.432-5.107z" fill="#000000" fill-opacity="1" data-original-color="#262626ff" stroke="none" stroke-opacity="1"/><path d="m38.549 19.365c1.049.216 1.469-.887 1.08-1.667-1.066-.553-1.929 1.129-1.08 1.667z" fill="#000000" fill-opacity="1" data-original-color="#262626ff" stroke="none" stroke-opacity="1"/><path d="m30.459 22.41c1.066.672 2.016-.478.73-1.171-1.023-.434-1.889.509-.73 1.171z" fill="#000000" fill-opacity="1" data-original-color="#262626ff" stroke="none" stroke-opacity="1"/><path d="m26.578 30.473a3.312 3.312 0 0 0 1.9-.161c1.334-1.373-3.426-.982-1.9.161z" fill="#000000" fill-opacity="1" data-original-color="#262626ff" stroke="none" stroke-opacity="1"/><path d="m30.1 38.979c.691.311 2.493-1.186 1.541-1.7-.694-.306-2.496 1.191-1.541 1.7z" fill="#000000" fill-opacity="1" data-original-color="#262626ff" stroke="none" stroke-opacity="1"/><path d="m39.455 40.648c-1.038-.2-1.477.863-1.086 1.646 1.054.522 1.931-1.111 1.086-1.646z" fill="#000000" fill-opacity="1" data-original-color="#262626ff" stroke="none" stroke-opacity="1"/><path d="m46.727 38.691c1.094.8 2.03-.523.721-1.207-1.048-.571-1.906.563-.721 1.207z" fill="#000000" fill-opacity="1" data-original-color="#262626ff" stroke="none" stroke-opacity="1"/><path d="m49.706 30.364c.578-.04 2.017.194 1.971-.633-.495-.394-3.356.135-1.971.633z" fill="#000000" fill-opacity="1" data-original-color="#262626ff" stroke="none" stroke-opacity="1"/><path d="m46.332 22.6c.6.22 2.41-1.082 1.6-1.472-.603-.216-2.411 1.087-1.6 1.472z" fill="#000000" fill-opacity="1" data-original-color="#262626ff" stroke="none" stroke-opacity="1"/><path d="m35.437 32.17c5.683-1.717 4.169-4.441 4.287-9.365-2.812-.9-.94 5.457-1.448 7.169-.776.35-6.176 2.891-2.839 2.196z" fill="#000000" fill-opacity="1" data-original-color="#262626ff" stroke="none" stroke-opacity="1"/></g></g></svg>