<?xml version="1.0" encoding="UTF-8" standalone="no"?>
<!-- Created with Inkscape (http://www.inkscape.org/) -->

<svg
   version="1.1"
   id="svg1341"
   xml:space="preserve"
   width="682.66669"
   height="682.66669"
   viewBox="0 0 682.66669 682.66669"
   xmlns="http://www.w3.org/2000/svg"
   xmlns:svg="http://www.w3.org/2000/svg"><defs
     id="defs1345"><clipPath
       clipPathUnits="userSpaceOnUse"
       id="clipPath1355"><path
         d="M 0,512 H 512 V 0 H 0 Z"
         id="path1353" /></clipPath></defs><g
     id="g1347"
     transform="matrix(1.3333333,0,0,-1.3333333,0,682.66667)"><g
       id="g1349"><g
         id="g1351"
         clip-path="url(#clipPath1355)"><g
           id="g1357"
           transform="translate(426.2515,415.7295)"><path
             d="m 0,0 c -3.728,3.614 -8.025,6.858 -12.919,9.533 -4.866,2.675 -9.96,4.667 -15.167,5.976 -10.672,2.647 -21.798,2.476 -32.127,-0.228 -14.456,-3.813 -27.404,-12.606 -35.656,-25.611 -2.618,-4.126 -4.041,-7.598 -5.777,-12.151 -7.968,-26.92 -25.98,-64.882 -24.842,-122.138 l 80.73,18.583 48.831,51.137 c 1.935,2.191 3.699,4.553 5.293,7.057 8.338,13.119 10.301,28.116 6.801,41.832 C 12.72,-16.363 7.569,-7.342 0,0"
             style="fill:#ffdb4f;fill-opacity:1;fill-rule:evenodd;stroke:none"
             id="path1359" /></g><g
           id="g1361"
           transform="translate(405.165,454.7441)"><path
             d="m 0,0 c -2.39,9.049 -7.171,17.558 -13.858,23.591 l -17.33,15.68 c -3.557,3.215 -5.15,2.817 -6.602,-1.594 l -7.085,-21.513 c -4.126,-12.493 -1.594,-28.031 5.748,-39.897 10.33,2.703 27.545,-8.452 38.245,-11.127 0,7.882 -1.309,24.245 0.882,34.86"
             style="fill:#ccf49e;fill-opacity:1;fill-rule:evenodd;stroke:none"
             id="path1363" /></g><g
           id="g1365"
           transform="translate(445.4307,433.4297)"><path
             d="M 0,0 C 5.236,8.025 8.338,17.245 8.196,25.981 L 7.826,48.462 C 7.74,53.101 6.317,53.898 1.935,51.735 L -19.407,41.177 c -8.48,-4.183 -15.822,-11.439 -20.859,-19.863 -4.41,-7.37 -7,-15.651 -7,-23.505 5.663,-14.314 15.025,-20.859 28.087,-15.509 C -11.524,-13.802 -4.837,-7.427 0,0"
             style="fill:#ccf49e;fill-opacity:1;fill-rule:evenodd;stroke:none"
             id="path1367" /></g><g
           id="g1369"
           transform="translate(481.0864,404.2612)"><path
             d="m 0,0 16.818,16.164 c 3.443,3.301 3.045,4.809 -1.708,6.147 l -23.078,6.63 c -8.536,2.447 -18.382,2.39 -27.688,0.227 -4.837,-7.427 -20.573,-13.801 -28.2,-17.7 7.541,-7.342 21.741,-16.363 24.188,-26.01 C -25.127,-14.655 -9.618,-9.277 0,0"
             style="fill:#ccf49e;fill-opacity:1;fill-rule:evenodd;stroke:none"
             id="path1371" /></g><g
           id="g1373"
           transform="translate(409.2061,388.2686)"><path
             d="m 0,0 c 2.846,-11.155 2.077,-23.164 -2.789,-34.319 -1.138,-2.533 -2.476,-5.066 -4.012,-7.513 -1.594,-2.504 -3.387,-4.866 -5.293,-7.057 -15.822,-16.562 -31.643,-33.124 -47.437,-49.686 h 30.819 l 20.374,21.343 28.457,29.794 c 1.935,2.191 3.699,4.553 5.293,7.057 8.337,13.119 10.3,28.116 6.8,41.832 -2.447,9.647 -7.597,18.668 -15.167,26.01 -3.728,3.614 -8.024,6.858 -12.919,9.533 -4.866,2.675 -9.959,4.667 -15.167,5.976 -10.671,2.647 -21.797,2.476 -32.127,-0.228 -0.826,-0.227 -1.622,-0.455 -2.447,-0.711 0.796,-0.142 1.565,-0.342 2.333,-0.541 C -22.623,36.339 -5.35,21.001 0,0"
             style="fill:#ffc269;fill-opacity:1;fill-rule:evenodd;stroke:none"
             id="path1375" /></g><g
           id="g1377"
           transform="translate(367.3755,492.4214)"><path
             d="M 0,0 -2.476,-7.456 9.646,-18.412 c 6.659,-6.033 11.44,-14.542 13.83,-23.562 -3.244,-5.464 -5.52,-11.412 -6.488,-17.331 4.61,-0.142 9.248,-0.739 13.802,-1.878 0,7.854 2.589,16.135 7,23.506 -2.391,9.049 -7.171,17.558 -13.858,23.591 L 6.602,1.593 C 3.044,4.809 1.451,4.411 0,0"
             style="fill:#b3e59e;fill-opacity:1;fill-rule:evenodd;stroke:none"
             id="path1379" /></g><g
           id="g1381"
           transform="translate(437.1787,463.3379)"><path
             d="m 0,0 c 0.142,-8.708 -2.931,-17.928 -8.167,-25.953 -3.472,-5.293 -7.854,-10.045 -12.862,-13.773 3.727,-2.305 7.114,-4.98 10.102,-7.882 7.655,3.898 14.342,10.273 19.179,17.7 5.236,8.025 8.338,17.245 8.196,25.981 l -0.37,22.481 c -0.086,4.639 -1.509,5.436 -5.891,3.273 l -10.443,-5.18 z"
             style="fill:#b3e59e;fill-opacity:1;fill-rule:evenodd;stroke:none"
             id="path1383" /></g><g
           id="g1385"
           transform="translate(468.5659,413.4531)"><path
             d="m 0,0 c -7.655,-7.371 -19.037,-12.265 -30.676,-13.916 1.48,-3.158 2.675,-6.459 3.529,-9.817 14.541,-0.114 30.049,5.264 39.668,14.541 L 29.338,6.972 c 3.444,3.301 3.045,4.809 -1.707,6.147 L 16.875,16.22 c -0.029,-0.028 -0.058,-0.056 -0.086,-0.056 z"
             style="fill:#b3e59e;fill-opacity:1;fill-rule:evenodd;stroke:none"
             id="path1387" /></g><g
           id="g1389"
           transform="translate(209.813,392.48)"><path
             d="m 0,0 c -9.704,7.228 -19.749,8.139 -19.749,36.312 v 36.652 l -38.672,9.049 -33.692,-9.049 V 36.312 c 0,-52.533 -37.449,-37.365 -37.449,-88.73 v -50.369 l 106.655,-27.119 C 2.362,-117.556 15.053,-56.458 0,0"
             style="fill:#b1d7fe;fill-opacity:1;fill-rule:evenodd;stroke:none"
             id="path1391" /></g><g
           id="g1393"
           transform="translate(198.8003,468.7734)"><path
             d="M 0,0 V 30.079 C 0,31.9 -1.622,33.38 -3.585,33.38 h -82.666 c -1.963,0 -3.557,-1.48 -3.557,-3.301 V 0 c 0,-1.821 1.594,-3.33 3.557,-3.33 h 5.15 72.365 5.151 C -1.622,-3.33 0,-1.821 0,0"
             style="fill:#ccf49e;fill-opacity:1;fill-rule:evenodd;stroke:none"
             id="path1395" /></g><g
           id="g1397"
           transform="translate(161.9209,465.4438)"><path
             d="M 0,0 V -41.149 C 0,-69.321 10.045,-70.232 19.749,-77.46 12.891,-91.603 7.199,-107.596 3.13,-124.784 c -4.212,-17.758 -6.26,-35.031 -6.345,-50.966 h 28.2 c -0.314,17.159 1.679,36.026 6.288,55.462 4.07,17.188 9.79,33.181 16.619,47.324 -9.704,7.228 -19.749,8.139 -19.749,36.312 l 0,36.652 z"
             style="fill:#73bffd;fill-opacity:1;fill-rule:evenodd;stroke:none"
             id="path1399" /></g><g
           id="g1401"
           transform="translate(170.6284,498.8525)"><path
             d="m 0,0 v -30.079 c 0,-1.821 -1.593,-3.33 -3.557,-3.33 h 22.993 5.15 c 1.964,0 3.586,1.509 3.586,3.33 V 0 c 0,1.821 -1.622,3.301 -3.586,3.301 H -3.557 C -1.593,3.301 0,1.821 0,0"
             style="fill:#b3e59e;fill-opacity:1;fill-rule:evenodd;stroke:none"
             id="path1403" /></g><g
           id="g1405"
           transform="translate(324.6055,393.2485)"><path
             d="m 0,0 c -4.211,33.01 -18.155,56.771 -39.241,61.125 -26.009,5.351 -55.575,-20.432 -75.551,-61.894 -6.83,-14.143 -12.55,-30.135 -16.619,-47.324 -4.61,-19.436 -6.602,-38.303 -6.289,-55.462 l 72.734,-58.423 51.051,58.423 c 3.5,9.277 6.517,19.123 8.964,29.396 C 1.366,-47.381 2.789,-21.685 0,0"
             style="fill:#f7b081;fill-opacity:1;fill-rule:evenodd;stroke:none"
             id="path1407" /></g><g
           id="g1409"
           transform="translate(255.9976,9.8467)"><path
             d="M 0,0 18.069,99.002 0,279.847 -224.435,198.544 V 5.15 c 0,-2.817 2.305,-5.122 5.094,-5.15 z"
             style="fill:#ffc89f;fill-opacity:1;fill-rule:evenodd;stroke:none"
             id="path1411" /></g><g
           id="g1413"
           transform="translate(480.4321,14.9971)"><path
             d="m 0,0 v 193.394 l -224.435,81.302 V -5.15 H -5.15 -5.094 C -2.276,-5.122 0,-2.817 0,0"
             style="fill:#f7b081;fill-opacity:1;fill-rule:evenodd;stroke:none"
             id="path1415" /></g><g
           id="g1417"
           transform="translate(217.126,213.4565)"><path
             d="m 0,0 38.872,76.237 h -69.092 -106.655 -28.228 c -2.76,0 -6.204,-2.277 -7.598,-5.037 L -209.011,0 c -1.423,-2.789 -0.285,-5.065 2.475,-5.065 h 20.973 177.965 c 2.761,0 6.204,2.276 7.598,5.065"
             style="fill:#ffdecf;fill-opacity:1;fill-rule:evenodd;stroke:none"
             id="path1419" /></g><g
           id="g1421"
           transform="translate(503.8799,213.4565)"><path
             d="m 0,0 -36.31,71.2 c -1.395,2.76 -4.837,5.037 -7.598,5.037 h -79.478 -69.803 -54.693 L -209.011,0 c 1.394,-2.789 4.837,-5.065 7.597,-5.065 H -23.448 -2.476 C 0.313,-5.065 1.423,-2.789 0,0"
             style="fill:#ffdecf;fill-opacity:1;fill-rule:evenodd;stroke:none"
             id="path1423" /></g><g
           id="g1425"
           transform="translate(480.4321,208.3911)"><path
             d="m 0,0 h -177.966 c -2.76,0 -6.203,2.277 -7.597,5.065 l -38.872,76.237 v -51.08 l 27.575,-55.549 c 1.394,-2.788 4.837,-5.036 7.597,-5.036 h 153.237 c 8.566,0 7.314,1.479 7.314,-6.944 V -198.544 H -5.15 c 2.845,0.028 5.15,2.304 5.15,5.15 z"
             style="fill:#db9975;fill-opacity:1;fill-rule:evenodd;stroke:none"
             id="path1427" /></g><g
           id="g1429"
           transform="translate(209.5283,208.3911)"><path
             d="M 0,0 H -177.966 V -30.363 H 10.102 c 2.76,0 6.175,2.276 7.598,5.036 l 28.769,55.549 v 51.08 L 7.598,5.065 C 6.204,2.277 2.76,0 0,0"
             style="fill:#fcb788;fill-opacity:1;fill-rule:evenodd;stroke:none"
             id="path1431" /></g><g
           id="g1433"
           transform="translate(459.9722,289.6934)"><path
             d="m 0,0 h -39.014 c 2.789,0 6.204,-2.277 7.598,-5.037 l 36.311,-71.2 c 1.394,-2.76 0.313,-5.008 -2.391,-5.065 H 20.46 41.432 c 2.789,0 3.899,2.277 2.476,5.065 l -36.31,71.2 C 6.203,-2.277 2.76,0 0,0"
             style="fill:#ffcbbe;fill-opacity:1;fill-rule:evenodd;stroke:none"
             id="path1435" /></g><g
           id="g1437"
           transform="translate(219.4878,289.6934)"><path
             d="m 0,0 -38.871,-76.237 c -1.423,-2.788 -4.809,-5.036 -7.598,-5.065 h 0.029 36.481 c 2.76,0 6.203,2.277 7.597,5.065 L 36.51,0 Z"
             style="fill:#ffcbbe;fill-opacity:1;fill-rule:evenodd;stroke:none"
             id="path1439" /></g><g
           id="g1441"
           transform="translate(260.4082,450.7603)"><path
             d="m 0,0 c 19.692,-5.606 32.725,-28.799 36.794,-60.5 2.76,-21.712 1.366,-47.381 -4.98,-74.159 -2.191,-9.192 -4.837,-18.013 -7.854,-26.408 h 26.322 c 3.5,9.277 6.517,19.123 8.964,29.396 6.317,26.778 7.74,52.475 4.951,74.159 C 59.986,-24.501 46.042,-0.74 24.956,3.614 16.846,5.264 8.395,3.927 0,0"
             style="fill:#db9975;fill-opacity:1;fill-rule:evenodd;stroke:none"
             id="path1443" /></g><g
           id="g1445"
           transform="translate(255.9976,289.6934)"><path
             d="M 0,0 V -279.847"
             style="fill:none;stroke:#000000;stroke-width:15;stroke-linecap:round;stroke-linejoin:round;stroke-miterlimit:10;stroke-dasharray:none;stroke-opacity:1"
             id="path1447" /></g><g
           id="g1449"
           transform="translate(255.9976,289.6934)"><path
             d="m 0,0 h -203.975 c -2.76,0 -6.203,-2.277 -7.598,-5.037 l -36.31,-71.2 c -1.423,-2.788 -0.284,-5.065 2.476,-5.065 h 198.938 c 2.76,0 6.203,2.277 7.597,5.065 z"
             style="fill:none;stroke:#000000;stroke-width:15;stroke-linecap:round;stroke-linejoin:round;stroke-miterlimit:10;stroke-dasharray:none;stroke-opacity:1"
             id="path1451" /></g><g
           id="g1453"
           transform="translate(31.5625,128.9678)"><path
             d="m 0,0 v 79.423 m 448.87,0 v -193.394 c 0,-2.817 -2.334,-5.15 -5.151,-5.15 H 5.151 c -2.818,0 -5.151,2.333 -5.151,5.15 v 79.197"
             style="fill:none;stroke:#000000;stroke-width:15;stroke-linecap:round;stroke-linejoin:round;stroke-miterlimit:10;stroke-dasharray:none;stroke-opacity:1"
             id="path1455" /></g><g
           id="g1457"
           transform="translate(367.4038,208.3345)"><path
             d="m 0,0 -64.938,0.057 c -2.76,0.028 -6.203,2.276 -7.597,5.065 l -38.871,76.237 H 92.568 c 2.761,0 6.203,-2.277 7.598,-5.037 l 36.31,-71.2 C 137.899,2.333 136.789,0.085 134,0.057 L 34.773,0"
             style="fill:none;stroke:#000000;stroke-width:15;stroke-linecap:round;stroke-linejoin:round;stroke-miterlimit:10;stroke-dasharray:none;stroke-opacity:1"
             id="path1459" /></g><g
           id="g1461"
           transform="translate(429.1538,341.3994)"><path
             d="M 0,0 -47.863,26.408"
             style="fill:none;stroke:#000000;stroke-width:15;stroke-linecap:round;stroke-linejoin:round;stroke-miterlimit:10;stroke-dasharray:none;stroke-opacity:1"
             id="path1463" /></g><g
           id="g1465"
           transform="translate(195.2148,502.1533)"><path
             d="m 0,0 h -82.666 c -1.963,0 -3.557,-1.479 -3.557,-3.301 V -33.38 c 0,-1.821 1.594,-3.329 3.557,-3.329 H 0 c 1.963,0 3.585,1.508 3.585,3.329 V -3.301 C 3.585,-1.479 1.963,0 0,0 Z"
             style="fill:none;stroke:#000000;stroke-width:15;stroke-linecap:round;stroke-linejoin:round;stroke-miterlimit:10;stroke-dasharray:none;stroke-opacity:1"
             id="path1467" /></g><g
           id="g1469"
           transform="translate(186.9058,289.6934)"><path
             d="m 0,0 c -0.313,17.159 1.679,36.026 6.289,55.462 15.992,67.501 57.253,116.39 92.169,109.219 34.917,-7.2 50.254,-67.757 34.291,-135.285 C 130.301,19.123 127.285,9.277 123.785,0"
             style="fill:none;stroke:#000000;stroke-width:15;stroke-linecap:round;stroke-linejoin:round;stroke-miterlimit:10;stroke-dasharray:none;stroke-opacity:1"
             id="path1471" /></g><g
           id="g1473"
           transform="translate(324.6055,393.2485)"><path
             d="m 0,0 1.679,4.411 c 1.138,2.646 2.504,5.236 4.098,7.74 17.045,26.864 54.181,35.742 82.95,19.863 28.797,-15.879 38.33,-50.511 21.285,-77.375 -1.594,-2.504 -3.358,-4.866 -5.293,-7.057 l -48.831,-51.137"
             style="fill:none;stroke:#000000;stroke-width:15;stroke-linecap:round;stroke-linejoin:round;stroke-miterlimit:10;stroke-dasharray:none;stroke-opacity:1"
             id="path1475" /></g><g
           id="g1477"
           transform="translate(398.165,431.2388)"><path
             d="m 0,0 c -0.028,16.846 11.923,35.514 27.859,43.368 l 21.342,10.558 c 4.382,2.163 5.805,1.366 5.89,-3.273 l 0.37,-22.481 C 55.717,11.354 43.937,-7.399 28.086,-15.509"
             style="fill:none;stroke:#000000;stroke-width:15;stroke-linecap:round;stroke-linejoin:round;stroke-miterlimit:10;stroke-dasharray:none;stroke-opacity:1"
             id="path1479" /></g><g
           id="g1481"
           transform="translate(366.0381,431.0107)"><path
             d="m 0,0 c -7.342,11.867 -9.875,27.404 -5.749,39.897 l 7.086,21.514 c 1.452,4.41 3.045,4.809 6.602,1.593 l 17.33,-15.68 C 31.956,41.292 36.737,32.783 39.127,23.733"
             style="fill:none;stroke:#000000;stroke-width:15;stroke-linecap:round;stroke-linejoin:round;stroke-miterlimit:10;stroke-dasharray:none;stroke-opacity:1"
             id="path1483" /></g><g
           id="g1485"
           transform="translate(441.4185,389.7197)"><path
             d="m 0,0 c 14.541,-0.114 30.05,5.265 39.668,14.542 l 16.818,16.163 c 3.443,3.301 3.045,4.809 -1.708,6.147 L 31.7,43.482 C 23.164,45.93 13.318,45.873 4.012,43.71"
             style="fill:none;stroke:#000000;stroke-width:15;stroke-linecap:round;stroke-linejoin:round;stroke-miterlimit:10;stroke-dasharray:none;stroke-opacity:1"
             id="path1487" /></g><g
           id="g1489"
           transform="translate(209.813,392.48)"><path
             d="M 0,0 C -9.704,7.228 -19.749,8.139 -19.749,36.312 V 72.964 H -92.113 V 36.312 c 0,-52.533 -37.449,-37.365 -37.449,-88.73 v -50.369"
             style="fill:none;stroke:#000000;stroke-width:15;stroke-linecap:round;stroke-linejoin:round;stroke-miterlimit:10;stroke-dasharray:none;stroke-opacity:1"
             id="path1491" /></g><g
           id="g1493"
           transform="translate(285.5635,326.1182)"><path
             d="M 0,0 -58.278,12.009"
             style="fill:none;stroke:#000000;stroke-width:15;stroke-linecap:round;stroke-linejoin:round;stroke-miterlimit:10;stroke-dasharray:none;stroke-opacity:1"
             id="path1495" /></g><g
           id="g1497"
           transform="translate(284.7383,374.5522)"><path
             d="M 0,0 -34.859,7.171"
             style="fill:none;stroke:#000000;stroke-width:15;stroke-linecap:round;stroke-linejoin:round;stroke-miterlimit:10;stroke-dasharray:none;stroke-opacity:1"
             id="path1499" /></g><g
           id="g1501"
           transform="translate(400.8682,311.0361)"><path
             d="M 0,0 -34.489,19.038"
             style="fill:none;stroke:#000000;stroke-width:15;stroke-linecap:round;stroke-linejoin:round;stroke-miterlimit:10;stroke-dasharray:none;stroke-opacity:1"
             id="path1503" /></g><g
           id="g1505"
           transform="translate(81.8164,105.9746)"><path
             d="M 0,0 H 62.889"
             style="fill:none;stroke:#000000;stroke-width:15;stroke-linecap:round;stroke-linejoin:round;stroke-miterlimit:10;stroke-dasharray:none;stroke-opacity:1"
             id="path1507" /></g><g
           id="g1509"
           transform="translate(81.8164,68.2402)"><path
             d="M 0,0 H 62.889"
             style="fill:none;stroke:#000000;stroke-width:15;stroke-linecap:round;stroke-linejoin:round;stroke-miterlimit:10;stroke-dasharray:none;stroke-opacity:1"
             id="path1511" /></g></g></g></g></svg>
