<?xml version="1.0" encoding="UTF-8"?>
<svg xmlns="http://www.w3.org/2000/svg" xmlns:xlink="http://www.w3.org/1999/xlink" version="1.1" id="Capa_1" x="0px" y="0px" viewBox="0 0 512 512" style="enable-background:new 0 0 512 512;" xml:space="preserve" width="512" height="512">
<g>
	<g>
		<g>
			<ellipse style="fill:#FD8087;" cx="253.162" cy="322.494" rx="94.313" ry="85.991"/>
			<path style="fill:#FE646F;" d="M256.734,236.585c34.075,14.183,58.029,47.727,58.029,86.862&#10;&#9;&#9;&#9;&#9;c0,37.246-21.698,69.432-53.168,84.679c48.134-3.892,85.88-40.733,85.88-85.631C347.476,276.094,307.164,238.3,256.734,236.585z"/>
			<path style="fill:#97DA7B;" d="M332.797,278.967l-40.197-11.755c-3.468-1.014-6.995,1.402-7.302,5.002l-2.273,26.663&#10;&#9;&#9;&#9;&#9;c-0.37,4.337-5.817,6.037-8.588,2.68l-17.794-21.555c-1.805-2.187-5.157-2.187-6.962,0l-17.794,21.555&#10;&#9;&#9;&#9;&#9;c-2.771,3.356-8.218,1.656-8.588-2.68l-2.273-26.663c-0.307-3.6-3.834-6.017-7.302-5.002l-40.197,11.755&#10;&#9;&#9;&#9;&#9;c-3.299,0.965-6.107-2.518-4.501-5.557c15.563-29.463,47.399-49.653,84.137-49.653s68.574,20.19,84.137,49.653&#10;&#9;&#9;&#9;&#9;C338.904,276.45,336.097,279.932,332.797,278.967z"/>
			<path style="fill:#68CA44;" d="M337.299,273.41c-15.563-29.463-47.399-49.653-84.137-49.653c-11.501,0-22.52,1.979-32.712,5.602&#10;&#9;&#9;&#9;&#9;c31.519,0,59.407,15.44,76.533,39.135l35.814,10.474C336.096,279.932,338.904,276.45,337.299,273.41z"/>
		</g>
		<g>
			<path style="fill:#68CA44;" d="M342.007,378.23l12.765,29.23c46.647,4.252,92.261-14.874,121.925-50.866&#10;&#9;&#9;&#9;&#9;c1.808-2.194,2.221-5.225,1.084-7.831l-7.649-17.515c-1.484-3.397-5.992-4.061-8.418-1.259&#10;&#9;&#9;&#9;&#9;C432.023,364.282,387.506,382.377,342.007,378.23z"/>
			<path style="fill:#68CA44;" d="M342.007,446.303l12.765-29.23c46.647-4.252,92.261,14.875,121.925,50.866&#10;&#9;&#9;&#9;&#9;c1.808,2.194,2.221,5.225,1.084,7.831l-7.649,17.515c-1.484,3.397-5.992,4.061-8.418,1.259&#10;&#9;&#9;&#9;&#9;C432.023,460.25,387.506,442.155,342.007,446.303z"/>
		</g>
		<path style="fill:#97DA7B;" d="M368.281,396.318v31.896h128.246c4.403,0,7.972-3.569,7.972-7.972v-15.951&#10;&#9;&#9;&#9;c0-4.403-3.569-7.972-7.972-7.972H368.281z"/>
		<path style="fill:#FE9738;" d="M7.5,412.266c0,35.836,216.851,82.462,303.322,82.462c44.997,0,81.475-37.465,81.475-82.462&#10;&#9;&#9;&#9;s-36.478-82.462-81.475-82.462C224.351,329.804,7.5,376.43,7.5,412.266z"/>
		<path style="fill:#FE7D43;" d="M310.822,329.804c-0.746,0-1.503,0.004-2.268,0.011c32.4,14.127,53.956,48.051,51.24,85.184&#10;&#9;&#9;&#9;c-2.963,40.506-33.935,73.054-72.56,78.828c8.604,0.59,16.532,0.902,23.588,0.902c44.998,0,81.475-37.465,81.475-82.462&#10;&#9;&#9;&#9;S355.819,329.804,310.822,329.804z"/>
		<g>
			<path style="fill:#97DA7B;" d="M66.897,223.265h48.342c0.93-36.229-1.007-66.382-5.857-93.702&#10;&#9;&#9;&#9;&#9;C102.366,90.029,89.252,55.507,67.366,19.4c-2.445-4.034-7.931-4.917-11.543-1.884L30.267,38.967&#10;&#9;&#9;&#9;&#9;c-2.879,2.417-3.591,6.56-1.689,9.802C57.911,98.799,69.038,147.67,66.897,223.265z"/>
			<path style="fill:#68CA44;" d="M110.983,297.65c4.436-75.954,19.644-123.447,53.253-170.409c2.187-3.056,1.856-7.245-0.791-9.914&#10;&#9;&#9;&#9;&#9;L140.539,94.23c-3.321-3.349-8.865-2.97-11.666,0.825c-24.602,33.339-40.502,65.921-50.897,103.94&#10;&#9;&#9;&#9;&#9;c-3.508,12.83-6.396,26.385-8.708,41.024L110.983,297.65z"/>
			<path style="fill:#97DA7B;" d="M126.318,457.986c-4.441-16.88-6.854-34.229-6.854-51.684v-19.996&#10;&#9;&#9;&#9;&#9;c0-67.37-5.013-115.746-16.252-156.855c-10.589-38.73-26.793-71.914-51.877-105.877c-2.802-3.794-8.345-4.174-11.667-0.825&#10;&#9;&#9;&#9;&#9;l-23.496,23.691c-2.646,2.668-2.979,6.857-0.792,9.912c41.893,58.492,55.722,117.756,55.722,229.954v20.427&#10;&#9;&#9;&#9;&#9;c0,17.247-2.345,34.395-6.694,51.086c-2.5,9.595-4.168,19.795-1.563,24.128c10.249,17.042,53.712,17.042,64.875,0&#10;&#9;&#9;&#9;&#9;C130.484,477.73,128.842,467.58,126.318,457.986z"/>
			<path style="fill:#FEF1DA;" d="M127.721,481.947c2.762-4.217,1.121-14.367-1.403-23.96c-4.441-16.88-6.854-34.229-6.854-51.684&#10;&#9;&#9;&#9;&#9;c0,0-0.025-28.965-0.07-33.328l-49.148-30.87c0.583,13.792,0.857,28.473,0.857,44.202v20.427c0,17.247-2.345,34.396-6.694,51.086&#10;&#9;&#9;&#9;&#9;c-2.5,9.595-4.168,19.795-1.563,24.128C73.094,498.989,116.558,498.989,127.721,481.947z"/>
		</g>
	</g>
	<g>
		<path style="fill:none;stroke:#000000;stroke-width:15;stroke-linecap:round;stroke-linejoin:round;stroke-miterlimit:10;" d="&#10;&#9;&#9;&#9;M334.58,279.071c8.2,12.74,12.9,27.58,12.9,43.42c0,5.27-0.52,10.44-1.52,15.45"/>
		<path style="fill:none;stroke:#000000;stroke-width:15;stroke-linecap:round;stroke-linejoin:round;stroke-miterlimit:10;" d="&#10;&#9;&#9;&#9;M163.49,349.181c-3.02-8.4-4.64-17.37-4.64-26.69c0-15.84,4.7-30.68,12.9-43.42"/>
		<path style="fill:none;stroke:#000000;stroke-width:15;stroke-linecap:round;stroke-linejoin:round;stroke-miterlimit:10;" d="&#10;&#9;&#9;&#9;M286.412,229.552c-10.341-3.745-21.547-5.794-33.25-5.794c-36.738,0-68.574,20.19-84.137,49.653&#10;&#9;&#9;&#9;c-1.605,3.039,1.202,6.522,4.501,5.557l40.197-11.755c3.468-1.014,6.995,1.402,7.302,5.002l2.273,26.663&#10;&#9;&#9;&#9;c0.37,4.337,5.817,6.037,8.588,2.68l17.794-21.555c1.805-2.187,5.157-2.187,6.962,0l17.794,21.555&#10;&#9;&#9;&#9;c2.771,3.356,8.218,1.656,8.588-2.68l2.273-26.663c0.307-3.6,3.834-6.017,7.302-5.002l40.197,11.755&#10;&#9;&#9;&#9;c3.299,0.965,6.107-2.518,4.502-5.557c-5.263-9.963-12.387-18.866-20.932-26.287"/>
		<path style="fill:none;stroke:#000000;stroke-width:15;stroke-linecap:round;stroke-linejoin:round;stroke-miterlimit:10;" d="&#10;&#9;&#9;&#9;M253.162,223.758c2.66-17.134-4.868-29.934-24.468-33.564"/>
		<g>
			<path style="fill:none;stroke:#000000;stroke-width:15;stroke-linecap:round;stroke-linejoin:round;stroke-miterlimit:10;" d="&#10;&#9;&#9;&#9;&#9;M383.81,375.821c29.98-6.28,57.45-22.22,77.9-45.83c2.43-2.8,6.94-2.14,8.42,1.26l7.65,17.51c1.14,2.61,0.73,5.64-1.08,7.83&#10;&#9;&#9;&#9;&#9;c-14.4,17.46-32.54,30.96-52.74,39.73"/>
			<path style="fill:none;stroke:#000000;stroke-width:15;stroke-linecap:round;stroke-linejoin:round;stroke-miterlimit:10;" d="&#10;&#9;&#9;&#9;&#9;M423.94,428.211c20.2,8.77,38.36,22.26,52.76,39.73c1.81,2.19,2.22,5.22,1.08,7.83l-7.65,17.51c-1.48,3.4-5.99,4.06-8.42,1.26&#10;&#9;&#9;&#9;&#9;c-20.45-23.61-47.92-39.55-77.9-45.83"/>
		</g>
		<path style="fill:none;stroke:#000000;stroke-width:15;stroke-linecap:round;stroke-linejoin:round;stroke-miterlimit:10;" d="&#10;&#9;&#9;&#9;M390.74,396.321h105.79c4.4,0,7.97,3.57,7.97,7.97v15.95c0,4.4-3.57,7.97-7.97,7.97H390.74"/>
		<path style="fill:none;stroke:#000000;stroke-width:15;stroke-linecap:round;stroke-linejoin:round;stroke-miterlimit:10;" d="&#10;&#9;&#9;&#9;M66.42,449.401c-35.06-12.17-58.92-25.25-58.92-37.13c0-12.41,25.98-26.1,63.54-38.71"/>
		<path style="fill:none;stroke:#000000;stroke-width:15;stroke-linecap:round;stroke-linejoin:round;stroke-miterlimit:10;" d="&#10;&#9;&#9;&#9;M119.17,359.511c66.62-17.12,146.73-29.71,191.65-29.71c45,0,81.48,37.47,81.48,82.47c0,44.99-36.48,82.46-81.48,82.46&#10;&#9;&#9;&#9;c-42.88,0-117.78-11.46-182.44-27.39"/>
		
			<line style="fill:none;stroke:#000000;stroke-width:15;stroke-linecap:round;stroke-linejoin:round;stroke-miterlimit:10;" x1="225.952" y1="486.733" x2="225.952" y2="453.749"/>
		
			<line style="fill:none;stroke:#000000;stroke-width:15;stroke-linecap:round;stroke-linejoin:round;stroke-miterlimit:10;" x1="272.016" y1="331.97" x2="272.016" y2="381.088"/>
		<path style="fill:none;stroke:#000000;stroke-width:15;stroke-linecap:round;stroke-linejoin:round;stroke-miterlimit:10;" d="&#10;&#9;&#9;&#9;M61.97,138.731c-5.78-33.09-16.61-61.34-33.39-89.96c-1.9-3.24-1.19-7.39,1.69-9.8l25.55-21.45c3.62-3.04,9.1-2.15,11.55,1.88&#10;&#9;&#9;&#9;c21.15,34.9,34.11,68.31,41.29,106.2"/>
		<path style="fill:none;stroke:#000000;stroke-width:15;stroke-linecap:round;stroke-linejoin:round;stroke-miterlimit:10;" d="&#10;&#9;&#9;&#9;M84.4,178.241c10.21-29.45,24.46-56.07,44.47-83.18c2.8-3.8,8.35-4.18,11.67-0.83l22.91,23.1c2.64,2.67,2.97,6.85,0.79,9.91&#10;&#9;&#9;&#9;c-30.18,42.16-45.52,84.76-51.55,147.99"/>
		<path style="fill:none;stroke:#000000;stroke-width:15;stroke-linecap:round;stroke-linejoin:round;stroke-miterlimit:10;" d="&#10;&#9;&#9;&#9;M66.904,297.5c2.931,25.715,4.199,54.835,4.199,88.808v20.427c0,17.247-2.345,34.395-6.694,51.086&#10;&#9;&#9;&#9;c-2.5,9.595-4.168,19.795-1.563,24.128c10.249,17.042,53.712,17.042,64.875,0c2.762-4.217,1.121-14.367-1.403-23.96&#10;&#9;&#9;&#9;c-4.441-16.88-6.854-34.229-6.854-51.684v-19.996c0-67.37-5.013-115.746-16.252-156.855&#10;&#9;&#9;&#9;c-10.589-38.73-26.793-71.914-51.877-105.877c-2.802-3.794-8.345-4.174-11.667-0.825l-23.496,23.691&#10;&#9;&#9;&#9;c-2.646,2.668-2.979,6.857-0.792,9.912c23.168,32.347,37.752,64.931,46.162,106.573"/>
		
			<line style="fill:none;stroke:#000000;stroke-width:15;stroke-linecap:round;stroke-linejoin:round;stroke-miterlimit:10;" x1="119.394" y1="372.976" x2="70.246" y2="342.106"/>
		
			<line style="fill:none;stroke:#000000;stroke-width:15;stroke-linecap:round;stroke-linejoin:round;stroke-miterlimit:10;" x1="148.922" y1="352.359" x2="148.922" y2="381.088"/>
	</g>
</g>















</svg>
