<svg enable-background="new 0 0 128 128" viewBox="0 0 128 128" xmlns="http://www.w3.org/2000/svg" width="300" height="300" version="1.1" xmlns:xlink="http://www.w3.org/1999/xlink" xmlns:svgjs="http://svgjs.dev/svgjs"><g width="100%" height="100%" transform="matrix(1,0,0,1,0,0)"><g id="avocado"/><g id="watermelon"/><g id="orange"/><g id="apple"/><g id="banana"/><g id="water-gallon"/><g id="water-maedium"/><g id="water-bottled"/><g id="burger-patty"/><g id="bacon"/><g id="salmon"/><g id="sausage"/><g id="salami"/><g id="beef-cut"><g stroke="#303030" stroke-linecap="round" stroke-linejoin="round" stroke-miterlimit="10" stroke-width="4"><path d="m7 115h114" fill="#e88967" fill-opacity="1" data-original-color="#e88967ff" stroke="#000000" stroke-opacity="1" data-original-stroke-color="#303030ff" stroke-width="4" data-original-stroke-width="4" style=""/><g><circle cx="81" cy="75" fill="#b9664d" r="40" fill-opacity="1" data-original-color="#b9664dff" stroke="#000000" stroke-opacity="1" data-original-stroke-color="#303030ff" stroke-width="4" data-original-stroke-width="4" style=""/><path d="m73.4 35.1c-11.5-.7-22.1 3.5-29.8 10.8-5 4.7-10.7 8.7-17.1 11.1-12 4.5-20.4 16.4-19.5 30.2 1 14.9 13.1 26.9 28 27.8 2.8.2 5.5 0 8.1-.6 6.8-1.4 13.9-1.2 20.7 0 2.3.4 4.7.6 7.1.6 23.1 0 41.6-19.5 39.9-42.9-1.3-19.9-17.5-35.9-37.4-37z" fill="#e6e0df" fill-opacity="1" data-original-color="#e6e0dfff" stroke="#000000" stroke-opacity="1" data-original-stroke-color="#303030ff" stroke-width="4" data-original-stroke-width="4" style=""/><path d="m72.4 44c-11.1-.5-21 4.9-26.9 13.3-2.3 3.3-6 5.4-10 5.7-.1 0-.2 0-.2 0-11.1.9-19.9 10.2-20.3 21.3-.4 12.5 9.6 22.7 22 22.7 1.6 0 3.1-.2 4.6-.5 8.1-1.7 16.4-2.2 24.6-.9 1.6.3 3.2.4 4.9.4 17.4 0 31.5-14.4 31-31.9-.6-16.1-13.6-29.4-29.7-30.1z" fill="#be1e2d" fill-opacity="1" data-original-color="#be1e2dff" stroke="#000000" stroke-opacity="1" data-original-stroke-color="#303030ff" stroke-width="4" data-original-stroke-width="4" style=""/><circle cx="71" cy="75" fill="#e6e0df" r="8" fill-opacity="1" data-original-color="#e6e0dfff" stroke="#000000" stroke-opacity="1" data-original-stroke-color="#303030ff" stroke-width="4" data-original-stroke-width="4" style=""/></g></g></g><g id="parma-ham"/><g id="chicken"/><g id="flour"/><g id="pasta"/><g id="butter"/><g id="chocolate-jam"/><g id="strawberry-jam"/><g id="peanut-butter"/><g id="baguette"/><g id="white-bread"/><g id="salt"/><g id="cooking-oil"/><g id="hot-sauce"/><g id="ketchup"/><g id="mayonnaise"/><g id="eggs"/><g id="egg-box"/><g id="egg"/><g id="cheese-cheddar"/><g id="cheese-maasdam"/><g id="cheese-gouda"/><g id="milk-gallon"/><g id="milk-carton-big"/><g id="milk-carton-small"/><g id="milk-bottle"/><g id="milk-glass"/></g></svg>