<?xml version="1.0" encoding="UTF-8" standalone="no"?>
<!-- Created with Inkscape (http://www.inkscape.org/) -->

<svg
   version="1.1"
   id="svg12663"
   xml:space="preserve"
   width="682.66669"
   height="682.66669"
   viewBox="0 0 682.66669 682.66669"
   xmlns="http://www.w3.org/2000/svg"
   xmlns:svg="http://www.w3.org/2000/svg"><defs
     id="defs12667"><clipPath
       clipPathUnits="userSpaceOnUse"
       id="clipPath12677"><path
         d="M 0,512 H 512 V 0 H 0 Z"
         id="path12675" /></clipPath></defs><g
     id="g12669"
     transform="matrix(1.3333333,0,0,-1.3333333,0,682.66667)"><g
       id="g12671"><g
         id="g12673"
         clip-path="url(#clipPath12677)"><g
           id="g12679"
           transform="translate(398.6885,241.9014)"><path
             d="m 0,0 -21.906,-21.906 -81.23,71.472 -76.462,86.219 21.284,21.529 c 0.778,0.778 2.05,0.778 2.828,0 l 9.192,-8.192 L 0,2.828 C 0.777,2.051 0.777,0.778 0,0"
             style="fill:#b3e59f;fill-opacity:1;fill-rule:nonzero;stroke:none"
             id="path12681" /></g><g
           id="g12683"
           transform="translate(169.7021,9.8037)"><path
             d="m 0,0 -14.944,0.151 c -1.467,0.015 -2.708,1.088 -2.934,2.538 l -3.146,20.199 c -0.202,1.289 -1.213,2.301 -2.503,2.502 l -20.559,3.201 c -1.29,0.2 -2.303,1.213 -2.503,2.503 l -3.194,20.55 c -0.2,1.291 -1.213,2.303 -2.504,2.503 l -20.55,3.195 c -1.29,0.201 -2.303,1.213 -2.503,2.503 l -3.201,20.557 c -0.2,1.29 -1.213,2.303 -2.504,2.503 l -20.542,3.189 c -1.291,0.2 -2.304,1.212 -2.504,2.503 l -3.201,20.556 c -0.2,1.29 -1.213,2.303 -2.503,2.503 l -20.551,3.195 c -1.29,0.201 -2.302,1.213 -2.503,2.503 l -3.194,20.55 c -0.201,1.29 -1.213,2.303 -2.503,2.504 l -20.086,3.125 c -1.488,0.233 -2.575,1.532 -2.537,3.039 l 1.358,13.422 c 0.05,2.171 1.068,4.193 2.78,5.523 l 22.174,15.098 L 50.878,366.394 207.08,210.191 64.032,67.144 41.085,50.686 21.305,24.453 21.188,24.3 12.127,11.867 3.553,3.047 C 2.174,1.159 2.333,-0.028 0,0"
             style="fill:#ccf49f;fill-opacity:1;fill-rule:nonzero;stroke:none"
             id="path12685" /></g><g
           id="g12687"
           transform="translate(252.3945,391.0234)"><path
             d="m 0,0 -23.32,-23.32 -8.798,1.486 -1.809,9.12 21.906,21.906 c 0.779,0.778 2.051,0.778 2.829,0 z"
             style="fill:#95d6a4;fill-opacity:1;fill-rule:nonzero;stroke:none"
             id="path12689" /></g><g
           id="g12691"
           transform="translate(174.6201,11.7803)"><path
             d="m 0,0 7.209,9.891 -16.922,0.173 c -1.466,0.016 -2.707,1.088 -2.933,2.538 l -1.454,9.304 c -0.523,3.38 -2.086,6.443 -4.497,8.854 -2.418,2.418 -5.472,3.973 -8.852,4.497 l -11.171,1.741 c -1.29,0.201 -2.302,1.213 -2.502,2.503 l -1.735,11.164 c -0.524,3.38 -2.08,6.435 -4.497,8.853 -2.419,2.418 -5.474,3.973 -8.854,4.497 l -11.163,1.735 c -1.29,0.2 -2.302,1.212 -2.503,2.502 l -1.741,11.171 c -0.556,3.588 -2.276,6.81 -4.955,9.293 -2.426,2.247 -5.537,3.614 -8.805,4.12 l -10.745,1.666 c -1.291,0.199 -2.304,1.212 -2.505,2.502 l -1.741,11.17 c -0.524,3.38 -2.079,6.434 -4.497,8.852 -2.419,2.418 -5.474,3.974 -8.854,4.497 l -11.162,1.736 c -1.29,0.2 -2.303,1.213 -2.504,2.504 l -1.734,11.162 c -0.524,3.38 -2.079,6.434 -4.497,8.852 -2.419,2.418 -5.474,3.974 -8.854,4.497 l -9.648,1.479 c -0.866,0.133 -1.155,1.237 -0.464,1.777 l 21.15,16.508 L 54.454,355.923 43.848,366.529 -99.2,223.481 l -19.867,-27.027 -22.842,-15.682 -0.127,-0.127 -11.342,-8.853 -10.571,-8.252 c -1.712,-1.329 -2.73,-3.352 -2.78,-5.522 l -0.36,-14.418 c -0.035,-1.506 1.054,-2.808 2.538,-3.048 l 8.224,-1.28 v 0.003 l 11.865,-1.841 c 1.287,-0.199 2.306,-1.216 2.503,-2.503 l 3.189,-20.556 c 0.199,-1.287 1.217,-2.306 2.503,-2.503 l 20.556,-3.189 c 1.287,-0.199 2.306,-1.216 2.503,-2.503 l 3.196,-20.563 c 0.199,-1.287 1.217,-2.305 2.504,-2.504 l 20.548,-3.181 c 1.287,-0.199 2.306,-1.216 2.503,-2.503 l 3.196,-20.563 c 0.198,-1.287 1.217,-2.305 2.504,-2.504 l 20.555,-3.188 c 1.287,-0.198 2.306,-1.217 2.504,-2.504 l 3.188,-20.555 c 0.198,-1.287 1.217,-2.305 2.503,-2.503 l 20.564,-3.196 c 1.286,-0.198 2.304,-1.217 2.503,-2.504 l 3.146,-20.202 c 0.219,-1.449 1.464,-2.524 2.935,-2.538 L -5.918,-2.977 C -3.585,-3.005 -1.379,-1.888 0,0"
             style="fill:#b3e59f;fill-opacity:1;fill-rule:nonzero;stroke:none"
             id="path12693" /></g><g
           id="g12695"
           transform="translate(233.7344,76.9473)"><path
             d="m 0,0 -32.116,-32.088 -10.427,-8.455 -155.724,156.596 40.171,39.063 10.389,-7.408 29.345,-29.345 c 0.757,-0.757 1.717,-1.195 2.722,-1.308 0.996,-0.12 2.043,0.091 2.955,0.65 10.268,6.35 22.041,8.747 33.39,7.425 11.342,-1.316 22.253,-6.357 30.795,-14.899 8.534,-8.535 13.576,-19.445 14.898,-30.794 1.316,-11.342 -1.075,-23.123 -7.424,-33.39 -1.124,-1.818 -0.856,-4.165 0.658,-5.678 z"
             style="fill:#ffc269;fill-opacity:1;fill-rule:nonzero;stroke:none"
             id="path12697" /></g><g
           id="g12699"
           transform="translate(56.7529,195.3809)"><path
             d="M 0,0 29.274,29.274 18.667,39.881 -24.042,-2.828 134.254,-161.124 144.865,-150.521 0,-5.657 C -1.562,-4.095 -1.562,-1.562 0,0"
             style="fill:#ffa95f;fill-opacity:1;fill-rule:nonzero;stroke:none"
             id="path12701" /></g><g
           id="g12703"
           transform="translate(166.1416,132.7012)"><path
             d="m 0,0 c -2.289,-2.288 -4.915,-4.034 -7.718,-5.238 0,0 -1.468,-0.231 -2.211,-0.468 -8.539,-2.737 -18.052,-0.219 -24.83,6.558 -9.655,9.656 -9.081,23.919 0.574,33.575 5.831,5.83 13.033,8.168 20.596,6.957 1.345,-0.215 4.011,-0.469 4.011,-0.469 C -6.078,39.737 -2.789,37.754 0,34.966 9.655,25.311 9.655,9.655 0,0"
             style="fill:#ccf49f;fill-opacity:1;fill-rule:nonzero;stroke:none"
             id="path12705" /></g><g
           id="g12707"
           transform="translate(158.4238,127.4629)"><path
             d="m 0,0 c -9.022,-3.889 -19.887,-2.128 -27.248,5.233 -9.659,9.659 -9.659,25.315 0,34.974 6.866,6.865 16.768,8.853 25.388,5.946 -2.801,-1.202 -5.426,-2.956 -7.71,-5.239 -9.659,-9.659 -9.659,-25.315 0,-34.974 C -6.784,3.154 -3.5,1.167 0,0"
             style="fill:#b3e59f;fill-opacity:1;fill-rule:nonzero;stroke:none"
             id="path12709" /></g><g
           id="g12711"
           transform="translate(266.3193,234.1006)"><path
             d="m 0,0 c 0.404,0.4 0.866,0.828 1.244,1.245 0.406,0.447 1.271,0.624 1.647,1.09 8.341,10.316 9.665,24.96 9.536,34.167 0,0 -0.43,1.212 -0.448,1.759 -0.08,2.288 -0.148,3.77 -0.277,4.979 -0.1,0.941 -0.841,1.675 -1.782,1.769 -6.431,0.637 -29.939,1.743 -43.622,-11.769 -15.854,-15.654 -19.916,-52.815 -19.916,-52.815 0,0 37.764,3.922 53.618,19.575"
             style="fill:#ffa95f;fill-opacity:1;fill-rule:nonzero;stroke:none"
             id="path12713" /></g><g
           id="g12715"
           transform="translate(212.835,214.5352)"><path
             d="m 0,0 c 1.458,0.16 2.89,0.326 5.322,0.688 11.143,1.653 36.534,6.602 48.712,18.618 0.842,0.827 1.619,1.689 2.341,2.594 -7.028,3.904 -14.227,6.152 -21.369,6.633 -1.576,0.11 -3.127,0.122 -4.654,0.064 -1.162,-0.045 -2.121,0.891 -2.076,2.052 0.059,1.537 0.047,3.093 -0.058,4.672 -0.147,2.169 -0.461,4.343 -0.932,6.516 -0.137,0.631 0.015,1.3 0.453,1.773 9.412,10.163 28.28,12.936 38.181,12.507 -0.043,3.083 -0.254,5.509 -0.416,7 -0.099,0.948 -0.842,1.676 -1.789,1.776 C 57.584,65.698 32.123,66.446 19.182,53.423 3.321,37.775 -0.13,-0.013 -0.13,-0.013 -0.143,-0.014 -0.082,-0.009 0,0"
             style="fill:#ff8b5a;fill-opacity:1;fill-rule:nonzero;stroke:none"
             id="path12717" /></g><g
           id="g12719"
           transform="translate(179.957,246.4727)"><path
             d="m 0,0 c -1.287,19.16 14.16,35.979 18.883,40.292 0.183,0.167 0.362,0.329 0.581,0.416 0.14,0.056 0.442,0.206 0.442,0.206 0.502,0.076 1.029,-0.04 1.466,-0.356 4.585,-3.314 19.892,-15.331 24.497,-31.149 0,0 0.179,-0.942 0.295,-1.417 0.445,-1.806 0.832,-3.655 0.959,-5.548 1.494,-22.229 -21.65,-40.172 -21.65,-40.172 0,0 -23.979,15.499 -25.473,37.728"
             style="fill:#ffc269;fill-opacity:1;fill-rule:nonzero;stroke:none"
             id="path12721" /></g><g
           id="g12723"
           transform="translate(244.457,181.3301)"><path
             d="m 0,0 c 19.161,-1.288 35.868,14.829 40.182,19.553 0.223,0.245 0.558,0.499 0.638,0.801 0.019,0.069 0.09,0.201 0.09,0.201 0.076,0.501 -0.041,1.026 -0.356,1.464 -3.266,4.519 -14.987,19.452 -30.466,24.291 0,0 -2.5,-0.147 -3.704,0.094 C 5.042,46.673 3.366,47.077 1.979,47.17 -20.25,48.664 -38.138,26.114 -38.138,26.114 -38.138,26.114 -22.229,1.493 0,0"
             style="fill:#ffc269;fill-opacity:1;fill-rule:nonzero;stroke:none"
             id="path12725" /></g><g
           id="g12727"
           transform="translate(195.9385,215.1514)"><path
             d="m 0,0 c 2.393,-2.247 6.085,-5.414 9.49,-7.707 0,0 3.198,2.661 7.139,7.142 0.011,0.009 0.02,0.018 0.031,0.028 0.339,0.388 0.688,0.796 1.04,1.214 0.039,0.046 0.077,0.093 0.116,0.138 0.221,0.263 0.442,0.525 0.669,0.797 -0.002,10e-4 -0.005,0.003 -0.006,0.005 6.322,7.719 13.516,19.444 12.664,32.154 -0.164,2.383 -0.59,4.711 -1.255,6.959 C 25.968,26.571 14.442,15.163 10.688,11.734 9.987,11.095 8.942,11.042 8.173,11.598 8.161,11.606 8.149,11.615 8.138,11.623 4.622,14.169 1.522,17.27 -0.927,20.854 -4.828,26.561 -7.891,33.243 -8.378,40.51 -9.213,52.983 -2.305,64.521 3.925,72.235 3.543,72.179 3.184,72.012 2.879,71.736 -0.876,68.308 -12.388,56.896 -16.309,42.734 c -10e-4,0.004 -0.002,0.007 -0.003,0.011 -1.261,-5.095 -2.04,-9.984 -0.446,-16.66 C -14.47,16.564 -8.052,7.517 0,0"
             style="fill:#ffa95f;fill-opacity:1;fill-rule:nonzero;stroke:none"
             id="path12729" /></g><g
           id="g12731"
           transform="translate(248.3896,180.3838)"><path
             d="M 0,0 C 2.304,0.222 3.924,0.24 8.213,1.47 8.212,1.471 8.212,1.471 8.211,1.471 c 13.82,4.107 24.895,15.296 28.265,18.985 0.276,0.304 0.445,0.663 0.502,1.045 C 29.263,15.271 17.724,8.364 5.25,9.198 2.442,9.387 -0.277,9.96 -2.888,10.817 c -7.006,2.301 -13.066,6.826 -17.619,12.626 -0.723,0.922 -1.308,1.707 -1.743,2.31 -0.555,0.768 -0.5,1.812 0.139,2.512 3.368,3.69 14.441,14.882 28.266,18.99 -2.454,0.771 -5.013,1.28 -7.644,1.464 -12.711,0.852 -24.436,-6.342 -32.155,-12.664 -0.001,0.002 -0.002,0.005 -0.004,0.007 -0.121,-0.103 -0.585,-0.485 -1.292,-1.092 -4.095,-3.499 -7.149,-6.908 -8.02,-7.908 C -34.952,13.779 -18.597,-0.676 0,0"
             style="fill:#ffa95f;fill-opacity:1;fill-rule:nonzero;stroke:none"
             id="path12733" /></g><g
           id="g12735"
           transform="translate(272.0703,373.4277)"><path
             d="m 0,0 c 5.77,2.109 11.22,3.29 18.949,11.02 13.551,13.55 6.99,20.11 20.54,33.66 13.551,13.54 20.111,6.99 33.651,20.54 13.559,13.55 7,20.11 20.549,33.66 10.311,10.309 16.571,8.979 24.951,13.729"
             style="fill:none;stroke:#000000;stroke-width:15;stroke-linecap:round;stroke-linejoin:round;stroke-miterlimit:10;stroke-dasharray:none;stroke-opacity:1"
             id="path12737" /></g><g
           id="g12739"
           transform="translate(291.7598,353.7275)"><path
             d="M 0,0 C 5.771,2.11 11.221,3.29 18.95,11.021 32.5,24.57 25.94,31.13 39.49,44.68 c 13.55,13.55 20.111,6.99 33.66,20.54 13.55,13.56 7,20.12 20.54,33.67 12.14,12.131 18.67,8.15 29.63,16.91"
             style="fill:none;stroke:#000000;stroke-width:15;stroke-linecap:round;stroke-linejoin:round;stroke-miterlimit:10;stroke-dasharray:none;stroke-opacity:1"
             id="path12741" /></g><g
           id="g12743"
           transform="translate(311.46,334.0371)"><path
             d="m 0,0 c 5.771,2.11 11.22,3.301 18.94,11.021 13.55,13.549 6.99,20.11 20.54,33.669 13.55,13.55 20.11,6.981 33.66,20.531 13.55,13.55 6.99,20.12 20.54,33.67 13.55,13.549 20.12,6.99 33.67,20.54"
             style="fill:none;stroke:#000000;stroke-width:15;stroke-linecap:round;stroke-linejoin:round;stroke-miterlimit:10;stroke-dasharray:none;stroke-opacity:1"
             id="path12745" /></g><g
           id="g12747"
           transform="translate(331.1504,314.3477)"><path
             d="m 0,0 c 5.77,2.11 11.22,3.3 18.939,11.02 13.55,13.55 6.991,20.11 20.54,33.66 13.55,13.549 20.111,6.99 33.661,20.54 13.559,13.55 6.99,20.12 20.54,33.67 13.559,13.549 20.12,6.99 33.67,20.54"
             style="fill:none;stroke:#000000;stroke-width:15;stroke-linecap:round;stroke-linejoin:round;stroke-miterlimit:10;stroke-dasharray:none;stroke-opacity:1"
             id="path12749" /></g><g
           id="g12751"
           transform="translate(350.8398,294.6572)"><path
             d="m 0,0 c 5.771,2.11 11.22,3.301 18.94,11.021 13.55,13.549 6.99,20.109 20.54,33.66 13.55,13.549 20.11,6.989 33.661,20.54 13.559,13.55 6.989,20.12 20.539,33.67 12.171,12.17 18.711,8.12 29.73,16.969"
             style="fill:none;stroke:#000000;stroke-width:15;stroke-linecap:round;stroke-linejoin:round;stroke-miterlimit:10;stroke-dasharray:none;stroke-opacity:1"
             id="path12753" /></g><g
           id="g12755"
           transform="translate(370.5303,274.9678)"><path
             d="m 0,0 c 5.77,2.109 11.229,3.3 18.95,11.02 13.55,13.549 6.98,20.11 20.529,33.66 13.55,13.549 20.121,6.98 33.67,20.53 13.551,13.56 6.991,20.13 20.54,33.68 10.481,10.48 16.79,8.92 25.38,13.96"
             style="fill:none;stroke:#000000;stroke-width:15;stroke-linecap:round;stroke-linejoin:round;stroke-miterlimit:10;stroke-dasharray:none;stroke-opacity:1"
             id="path12757" /></g><g
           id="g12759"
           transform="translate(390.2197,255.2773)"><path
             d="m 0,0 c 5.771,2.101 11.23,3.29 18.95,11.01 13.55,13.551 6.981,20.12 20.53,33.671 13.55,13.549 20.121,6.979 33.67,20.529 13.56,13.561 6.991,20.13 20.54,33.681 8.451,8.449 14.18,9.08 20.59,11.639"
             style="fill:none;stroke:#000000;stroke-width:15;stroke-linecap:round;stroke-linejoin:round;stroke-miterlimit:10;stroke-dasharray:none;stroke-opacity:1"
             id="path12761" /></g><g
           id="g12763"
           transform="translate(252.3701,393.1172)"><path
             d="m 0,0 c 5.77,2.11 11.22,3.29 18.95,11.021 13.55,13.549 6.989,20.11 20.54,33.66 13.55,13.549 20.11,6.989 33.659,20.54 13.561,13.55 7,20.109 20.551,33.66 7.89,7.89 13.41,8.97 19.33,11.159"
             style="fill:none;stroke:#000000;stroke-width:15;stroke-linecap:round;stroke-linejoin:round;stroke-miterlimit:10;stroke-dasharray:none;stroke-opacity:1"
             id="path12765" /></g><g
           id="g12767"
           transform="translate(294.0273,137.2461)"><path
             d="M 0,0 106.108,106.108 -52.203,264.42 -261.406,55.218 -283.322,38.117 c -1.709,-1.333 -2.731,-3.361 -2.784,-5.528 l -0.421,-17.051 24.849,-3.871 3.874,-24.879 24.879,-3.874 3.88,-24.884 24.873,-3.869 3.88,-24.884 24.878,-3.875 3.875,-24.878 24.884,-3.879 3.876,-24.868 17.481,-0.18 c 2.34,-0.025 4.547,1.084 5.925,2.975 l 16.272,22.327 77.234,77.234"
             style="fill:none;stroke:#000000;stroke-width:15;stroke-linecap:round;stroke-linejoin:round;stroke-miterlimit:10;stroke-dasharray:none;stroke-opacity:1"
             id="path12769" /></g><g
           id="g12771"
           transform="translate(102.7969,122.5459)"><path
             d="M 0,0 86.461,-86.461"
             style="fill:none;stroke:#000000;stroke-width:15;stroke-linecap:round;stroke-linejoin:round;stroke-miterlimit:10;stroke-dasharray:none;stroke-opacity:1"
             id="path12773" /></g><g
           id="g12775"
           transform="translate(34.5547,190.7881)"><path
             d="M 0,0 43.494,-43.493"
             style="fill:none;stroke:#000000;stroke-width:15;stroke-linecap:round;stroke-linejoin:round;stroke-miterlimit:10;stroke-dasharray:none;stroke-opacity:1"
             id="path12777" /></g><g
           id="g12779"
           transform="translate(231.9648,78.792)"><path
             d="m 0,0 -38.565,38.565 c -1.51,1.51 -1.784,3.859 -0.661,5.675 12.696,20.54 9.603,47.114 -7.471,64.189 h -10e-4 c -17.074,17.075 -43.649,20.168 -64.189,7.471 -1.815,-1.122 -4.165,-0.848 -5.675,0.662 l -38.141,38.141"
             style="fill:none;stroke:#000000;stroke-width:15;stroke-linecap:round;stroke-linejoin:round;stroke-miterlimit:10;stroke-dasharray:none;stroke-opacity:1"
             id="path12781" /></g><g
           id="g12783"
           transform="translate(269.9639,326.8828)"><path
             d="M 0,0 104.257,-104.257"
             style="fill:none;stroke:#000000;stroke-width:15;stroke-linecap:round;stroke-linejoin:round;stroke-miterlimit:10;stroke-dasharray:none;stroke-opacity:1"
             id="path12785" /></g><g
           id="g12787"
           transform="translate(219.2969,377.5498)"><path
             d="M 0,0 25.919,-25.918"
             style="fill:none;stroke:#000000;stroke-width:15;stroke-linecap:round;stroke-linejoin:round;stroke-miterlimit:10;stroke-dasharray:none;stroke-opacity:1"
             id="path12789" /></g><g
           id="g12791"
           transform="translate(166.1748,132.7402)"><path
             d="m 0,0 c -9.655,-9.655 -25.31,-9.655 -34.965,0 -9.655,9.655 -9.655,25.31 0,34.965 9.655,9.655 25.31,9.655 34.965,0 C 9.655,25.31 9.655,9.655 0,0 Z"
             style="fill:none;stroke:#000000;stroke-width:15;stroke-linecap:round;stroke-linejoin:round;stroke-miterlimit:10;stroke-dasharray:none;stroke-opacity:1"
             id="path12793" /></g><g
           id="g12795"
           transform="translate(167.2852,100.7656)"><path
             d="M 0,0 26.224,-26.225"
             style="fill:none;stroke:#000000;stroke-width:15;stroke-linecap:round;stroke-linejoin:round;stroke-miterlimit:10;stroke-dasharray:none;stroke-opacity:1"
             id="path12797" /></g><g
           id="g12799"
           transform="translate(99.2354,168.8154)"><path
             d="M 0,0 -26.225,26.224"
             style="fill:none;stroke:#000000;stroke-width:15;stroke-linecap:round;stroke-linejoin:round;stroke-miterlimit:10;stroke-dasharray:none;stroke-opacity:1"
             id="path12801" /></g><g
           id="g12803"
           transform="translate(257.7646,227.5039)"><path
             d="m 0,0 c 3.315,1.625 6.434,3.71 9.133,6.376 15.853,15.653 11.278,45.403 11.278,45.403 0,0 -30.277,4.369 -46.131,-11.285 -2.662,-2.628 -4.748,-5.653 -6.376,-8.869"
             style="fill:none;stroke:#000000;stroke-width:15;stroke-linecap:round;stroke-linejoin:round;stroke-miterlimit:10;stroke-dasharray:none;stroke-opacity:1"
             id="path12805" /></g><g
           id="g12807"
           transform="translate(181.3984,262.9687)"><path
             d="m 0,0 c 5.987,14.482 18.655,25.015 18.655,25.015 0,0 25.567,-16.798 27.061,-39.028 1.494,-22.229 -21.651,-41.471 -21.651,-41.471 0,0 -12.339,8.107 -20.375,20.511"
             style="fill:none;stroke:#000000;stroke-width:15;stroke-linecap:round;stroke-linejoin:round;stroke-miterlimit:10;stroke-dasharray:none;stroke-opacity:1"
             id="path12809" /></g><g
           id="g12811"
           transform="translate(244.4873,180.4277)"><path
             d="m 0,0 c 22.229,-1.494 41.472,21.65 41.472,21.65 0,0 -16.798,25.568 -39.028,27.062 -22.229,1.493 -41.472,-21.651 -41.472,-21.651 0,0 16.799,-25.567 39.028,-27.061 z"
             style="fill:none;stroke:#000000;stroke-width:15;stroke-linecap:round;stroke-linejoin:round;stroke-miterlimit:10;stroke-dasharray:none;stroke-opacity:1"
             id="path12813" /></g></g></g></g></svg>
