<?xml version="1.0" encoding="iso-8859-1"?>
<!-- Generator: Adobe Illustrator 19.0.0, SVG Export Plug-In . SVG Version: 6.00 Build 0)  -->
<svg xmlns="http://www.w3.org/2000/svg" xmlns:xlink="http://www.w3.org/1999/xlink" version="1.1" id="Capa_1" x="0px" y="0px" viewBox="0 0 512 512" style="enable-background:new 0 0 512 512;" xml:space="preserve" width="512" height="512">
<g>
	<g>
		<path style="fill:#E5646E;" d="M496.484,464.419H207.903c-4.427,0-8.016-3.589-8.016-8.016V55.597    c0-4.427,3.589-8.016,8.016-8.016h288.581c4.427,0,8.016,3.589,8.016,8.016v400.806C504.5,460.83,500.911,464.419,496.484,464.419    z"/>
		<circle style="fill:#FF8086;" cx="352.194" cy="191.871" r="56.113"/>
		<path style="fill:#DB4655;" d="M223.935,47.581h-16.032c-4.427,0-8.016,3.589-8.016,8.016v400.806    c0,4.427,3.589,8.016,8.016,8.016h288.581c4.427,0,8.016-3.589,8.016-8.016v-16.032H223.935V47.581z"/>
		<path style="fill:#ECEAEC;" d="M66.935,201.367c-5.433-9.43-17.673-12.359-26.787-6.411c-9.115,5.948-11.36,18.332-4.916,27.102    l60.284,82.039h30.61L66.935,201.367z"/>
		<path style="fill:#FFE09F;" d="M440.371,207.903H264.016c-4.427,0-8.016-3.589-8.016-8.016v-16.032    c0-4.427,3.589-8.016,8.016-8.016h176.355c4.427,0,8.016,3.589,8.016,8.016v16.032    C448.387,204.314,444.798,207.903,440.371,207.903z"/>
		<path style="fill:#FFE09F;" d="M328.145,304.097H7.5c0,55.951,28.703,105.148,72.145,133.829v10.461    c0,8.854,7.178,16.032,16.032,16.032h144.29c8.854,0,16.032-7.178,16.032-16.032v-10.461    C299.442,409.245,328.145,360.048,328.145,304.097z"/>
		<polygon style="fill:#DAD8DB;" points="77.845,280.048 95.516,304.097 126.125,304.097 112.269,280.048   "/>
		<path style="fill:#F6D190;" d="M79.645,437.926v10.461c0,8.854,7.179,16.032,16.032,16.032h144.29    c8.854,0,16.032-7.178,16.032-16.032v-10.461c2.694-1.779,5.33-3.638,7.908-5.571H135.758c0,0-29.141-21.94-31.843-128.258H7.5    C7.5,360.048,36.203,409.244,79.645,437.926z"/>
	</g>
	<g>
		<path d="M496.484,40.081H207.903c-8.556,0-15.516,6.96-15.516,15.516v216.437c0,4.142,3.358,7.5,7.5,7.5s7.5-3.358,7.5-7.5V55.597    c0-0.285,0.231-0.516,0.516-0.516h288.581c0.285,0,0.516,0.231,0.516,0.516v400.807c0,0.285-0.231,0.516-0.516,0.516h-208.42    c-4.142,0-7.5,3.358-7.5,7.5s3.358,7.5,7.5,7.5h208.42c8.556,0,15.516-6.96,15.516-15.516V55.597    C512,47.041,505.04,40.081,496.484,40.081z"/>
		<path d="M335.645,304.097c0-4.142-3.358-7.5-7.5-7.5H130.46l-57.027-98.974c-3.614-6.272-9.725-10.837-16.766-12.522    c-7.041-1.685-14.556-0.383-20.619,3.574s-10.281,10.312-11.573,17.436c-1.292,7.123,0.426,14.554,4.712,20.388l51.51,70.098H7.5    c-4.142,0-7.5,3.358-7.5,7.5c0,55.146,26.893,106.356,72.145,137.807v6.484c0,12.976,10.557,23.532,23.532,23.532h144.291    c12.976,0,23.532-10.557,23.532-23.532v-6.483C308.752,410.454,335.645,359.242,335.645,304.097z M41.275,217.617    c-1.884-2.564-2.609-5.699-2.041-8.83s2.348-5.812,5.012-7.551c2.664-1.738,5.835-2.288,8.929-1.548    c3.094,0.741,5.672,2.667,7.26,5.423l52.713,91.485H99.312L41.275,217.617z M261.359,424.855h-21.393c-4.142,0-7.5,3.358-7.5,7.5    s3.358,7.5,7.5,7.5h8.534v8.532c0,4.705-3.828,8.532-8.532,8.532H95.677c-4.705,0-8.532-3.828-8.532-8.532v-8.532h120.762    c4.142,0,7.5-3.358,7.5-7.5s-3.358-7.5-7.5-7.5H74.287c-35.349-27.369-56.927-68.578-59.104-113.258h305.28    C318.285,356.277,296.708,397.486,261.359,424.855z"/>
		<path d="M248.5,183.855v16.032c0,8.556,6.96,15.516,15.516,15.516h176.355c8.556,0,15.516-6.96,15.516-15.516v-16.032    c0-8.556-6.96-15.516-15.516-15.516H264.016C255.46,168.339,248.5,175.299,248.5,183.855z M440.887,183.855v16.032    c0,0.285-0.231,0.516-0.516,0.516H264.016c-0.285,0-0.516-0.231-0.516-0.516v-16.032c0-0.285,0.231-0.516,0.516-0.516h176.355    C440.656,183.339,440.887,183.57,440.887,183.855z"/>
		<path d="M294.167,148.284c13.904-18.477,35.054-29.074,58.027-29.074c22.974,0,44.124,10.597,58.027,29.074    c1.474,1.959,3.722,2.991,5.999,2.991c1.569,0,3.153-0.491,4.503-1.508c3.31-2.49,3.974-7.192,1.483-10.502    c-16.764-22.278-42.282-35.056-70.013-35.056c-27.73,0-53.249,12.777-70.012,35.056c-2.491,3.31-1.827,8.012,1.483,10.502    C286.975,152.258,291.677,151.594,294.167,148.284z"/>
		<path d="M422.206,244.478c2.491-3.31,1.827-8.012-1.483-10.502c-3.31-2.491-8.012-1.826-10.502,1.483    c-13.905,18.477-35.055,29.074-58.027,29.074c-22.972,0-44.122-10.597-58.027-29.074c-2.491-3.309-7.192-3.974-10.502-1.483    c-3.31,2.491-3.974,7.193-1.483,10.502c16.765,22.278,42.283,35.055,70.012,35.055S405.441,266.755,422.206,244.478z"/>
		<path d="M431.839,328.145c0-4.142-3.358-7.5-7.5-7.5h-64.129c-4.142,0-7.5,3.358-7.5,7.5s3.358,7.5,7.5,7.5h64.129    C428.481,335.645,431.839,332.287,431.839,328.145z"/>
		<path d="M360.209,352.709c-4.142,0-7.5,3.358-7.5,7.5s3.358,7.5,7.5,7.5h48.097c4.142,0,7.5-3.358,7.5-7.5s-3.358-7.5-7.5-7.5    H360.209z"/>
	</g>
</g>















</svg>
