<?xml version="1.0" encoding="UTF-8" standalone="no"?>
<!-- Created with Inkscape (http://www.inkscape.org/) -->

<svg
   version="1.1"
   id="svg2916"
   xml:space="preserve"
   width="682.66669"
   height="682.66669"
   viewBox="0 0 682.66669 682.66669"
   xmlns="http://www.w3.org/2000/svg"
   xmlns:svg="http://www.w3.org/2000/svg"><defs
     id="defs2920"><clipPath
       clipPathUnits="userSpaceOnUse"
       id="clipPath2930"><path
         d="M 0,512 H 512 V 0 H 0 Z"
         id="path2928" /></clipPath></defs><g
     id="g2922"
     transform="matrix(1.3333333,0,0,-1.3333333,0,682.66667)"><g
       id="g2924"><g
         id="g2926"
         clip-path="url(#clipPath2930)"><g
           id="g2932"
           transform="translate(333.1885,280.6636)"><path
             d="M 0,0 -73.905,43.51 31.067,194.363 c 8.672,12.463 25.483,16.141 38.567,8.437 13.085,-7.703 18.025,-24.186 11.336,-37.816 z"
             style="fill:#8f818f;fill-opacity:1;fill-rule:nonzero;stroke:none"
             id="path2934" /></g><g
           id="g2936"
           transform="translate(402.8223,483.4639)"><path
             d="m 0,0 c -6.718,3.955 -14.415,4.903 -21.491,3.209 4.445,-8.05 4.983,-18.042 0.662,-26.848 l -79.158,-161.291 30.353,-17.87 80.97,164.984 C 18.025,-24.186 13.085,-7.703 0,0"
             style="fill:#786e79;fill-opacity:1;fill-rule:nonzero;stroke:none"
             id="path2938" /></g><g
           id="g2940"
           transform="translate(400.9834,322.9458)"><path
             d="m 0,0 h -341.714 c 0,0 -22.188,-134.146 75.08,-239.76 H -75.08 C 22.187,-134.146 0,0 0,0"
             style="fill:#e0dde2;fill-opacity:1;fill-rule:nonzero;stroke:none"
             id="path2942" /></g><g
           id="g2944"
           transform="translate(400.9834,322.9458)"><path
             d="m 0,0 h -35.499 c 0,0 22.187,-134.146 -75.08,-239.76 H -75.08 C 22.187,-134.146 0,0 0,0"
             style="fill:#c8c1c9;fill-opacity:1;fill-rule:nonzero;stroke:none"
             id="path2946" /></g><g
           id="g2948"
           transform="translate(335.1826,51.7749)"><path
             d="m 0,0 h -210.113 c -11.11,0 -20.116,9.006 -20.116,20.116 0,11.11 9.006,20.116 20.116,20.116 H 0 c 11.109,0 20.116,-9.006 20.116,-20.116 C 20.116,9.006 11.109,0 0,0"
             style="fill:#c8c1c9;fill-opacity:1;fill-rule:nonzero;stroke:none"
             id="path2950" /></g><g
           id="g2952"
           transform="translate(407.3555,307.8716)"><path
             d="m 0,0 h -354.459 c -13.449,0 -24.352,10.903 -24.352,24.352 0,13.449 10.903,24.352 24.352,24.352 H 0 c 13.449,0 24.352,-10.903 24.352,-24.352 C 24.352,10.903 13.449,0 0,0"
             style="fill:#c8c1c9;fill-opacity:1;fill-rule:nonzero;stroke:none"
             id="path2954" /></g><g
           id="g2956"
           transform="translate(407.3555,356.5757)"><path
             d="m 0,0 h -34.998 c 13.448,0 24.352,-10.903 24.352,-24.352 0,-13.449 -10.904,-24.352 -24.352,-24.352 H 0 c 13.449,0 24.352,10.903 24.352,24.352 C 24.352,-10.903 13.449,0 0,0"
             style="fill:#b1abb5;fill-opacity:1;fill-rule:nonzero;stroke:none"
             id="path2958" /></g><g
           id="g2960"
           transform="translate(336.9375,189.1821)"><path
             d="M 0,0 -75.024,-59.653 H 121.242 L 46.217,0 C 32.689,10.756 13.528,10.756 0,0"
             style="fill:#faecaa;fill-opacity:1;fill-rule:nonzero;stroke:none"
             id="path2962" /></g><g
           id="g2964"
           transform="translate(357.8213,181.1826)"><path
             d="m 0,0 64.963,-51.653 h 35.395 L 25.333,8 C 11.805,18.756 -7.355,18.756 -20.883,8 L -20.892,7.993 C -13.47,7.55 -6.152,4.891 0,0"
             style="fill:#f9e57a;fill-opacity:1;fill-rule:nonzero;stroke:none"
             id="path2966" /></g><g
           id="g2968"
           transform="translate(237.4717,125.6738)"><path
             d="m 0,0 c 16.378,-35.038 45.834,-62.039 81.638,-73.899 h 81.874 c 35.803,11.86 65.259,38.861 81.637,73.899 2.689,5.752 -1.442,12.355 -7.792,12.355 H 7.792 C 1.442,12.355 -2.689,5.752 0,0"
             style="fill:#fcb143;fill-opacity:1;fill-rule:nonzero;stroke:none"
             id="path2970" /></g><g
           id="g2972"
           transform="translate(474.8291,138.0293)"><path
             d="m 0,0 h -28.255 c 2.866,0 4.851,-2.904 3.77,-5.559 -15.62,-38.331 -46.523,-68.079 -84.61,-80.695 h 35.249 c 35.804,11.86 65.259,38.86 81.638,73.899 C 10.48,-6.604 6.35,0 0,0"
             style="fill:#fba615;fill-opacity:1;fill-rule:nonzero;stroke:none"
             id="path2974" /></g><g
           id="g2976"
           transform="translate(210.4326,465.3481)"><path
             d="m 0,0 c -28.558,-3.116 -49.387,-26.918 -49.387,-26.918 0,0 25.472,-18.749 54.03,-15.633 17.402,1.899 31.935,11.479 40.632,18.674 4.8,3.97 3.972,11.564 -1.571,14.406 C 33.659,-4.322 17.402,1.899 0,0"
             style="fill:#a1e42c;fill-opacity:1;fill-rule:nonzero;stroke:none"
             id="path2978" /></g><g
           id="g2980"
           transform="translate(141.4097,468.4727)"><path
             d="m 0,0 c 10.399,-26.779 -1.122,-56.235 -1.122,-56.235 0,0 -28.38,13.962 -38.779,40.74 -6.337,16.319 -4.534,33.631 -2.159,44.667 1.311,6.089 8.432,8.854 13.509,5.245 C -19.351,27.877 -6.337,16.318 0,0"
             style="fill:#b9ea6a;fill-opacity:1;fill-rule:nonzero;stroke:none"
             id="path2982" /></g><g
           id="g2984"
           transform="translate(102.3481,384.0728)"><path
             d="M 0,0 C 0,0 55.496,22.66 81.964,103.704"
             style="fill:none;stroke:#000000;stroke-width:15;stroke-linecap:round;stroke-linejoin:round;stroke-miterlimit:10;stroke-dasharray:none;stroke-opacity:1"
             id="path2986" /></g><g
           id="g2988"
           transform="translate(50.3647,7.5)"><path
             d="m 0,0 h 411.271 c 18.722,0 33.899,15.177 33.899,33.9 0,7.018 -5.689,12.708 -12.709,12.708 H -21.191 C -28.21,46.608 -33.9,40.918 -33.9,33.9 -33.9,15.177 -18.723,0 0,0"
             style="fill:#df9874;fill-opacity:1;fill-rule:nonzero;stroke:none"
             id="path2990" /></g><g
           id="g2992"
           transform="translate(482.8262,54.1084)"><path
             d="m 0,0 h -34.998 c 7.019,0 12.708,-5.69 12.708,-12.708 0,-18.723 -15.177,-33.9 -33.899,-33.9 h 34.999 c 18.721,0 33.899,15.177 33.899,33.9 C 12.709,-5.69 7.02,0 0,0"
             style="fill:#da8659;fill-opacity:1;fill-rule:nonzero;stroke:none"
             id="path2994" /></g><g
           id="g2996"
           transform="translate(88.2197,307.8716)"><path
             d="m 0,0 h -35.323 c -13.449,0 -24.352,10.903 -24.352,24.352 0,13.449 10.903,24.352 24.352,24.352 h 354.459 c 13.449,0 24.351,-10.903 24.351,-24.352 C 343.487,10.903 332.585,0 319.136,0 H 35.061"
             style="fill:none;stroke:#000000;stroke-width:15;stroke-linecap:round;stroke-linejoin:round;stroke-miterlimit:10;stroke-dasharray:none;stroke-opacity:1"
             id="path2998" /></g><g
           id="g3000"
           transform="translate(50.3647,7.5)"><path
             d="m 0,0 h 411.271 c 18.722,0 33.899,15.177 33.899,33.9 0,7.018 -5.689,12.708 -12.709,12.708 H -21.191 C -28.21,46.608 -33.9,40.918 -33.9,33.9 -33.9,15.177 -18.723,0 0,0 Z"
             style="fill:none;stroke:#000000;stroke-width:15;stroke-linecap:round;stroke-linejoin:round;stroke-miterlimit:10;stroke-dasharray:none;stroke-opacity:1"
             id="path3002" /></g><g
           id="g3004"
           transform="translate(474.5928,110.7993)"><path
             d="M 0,0 C 2.943,4.771 5.626,9.736 8.028,14.875 10.717,20.626 6.586,27.23 0.236,27.23 H -229.33 c -6.349,0 -10.48,-6.604 -7.791,-12.355 15.382,-32.907 42.299,-58.722 75.176,-71.566"
             style="fill:none;stroke:#000000;stroke-width:15;stroke-linecap:round;stroke-linejoin:round;stroke-miterlimit:10;stroke-dasharray:none;stroke-opacity:1"
             id="path3006" /></g><g
           id="g3008"
           transform="translate(407.4443,54.1084)"><path
             d="M 0,0 C 16.777,6.554 32.003,16.486 44.936,29.015"
             style="fill:none;stroke:#000000;stroke-width:15;stroke-linecap:round;stroke-linejoin:round;stroke-miterlimit:10;stroke-dasharray:none;stroke-opacity:1"
             id="path3010" /></g><g
           id="g3012"
           transform="translate(447.4893,138.0293)"><path
             d="m 0,0 -64.335,51.153 c -13.528,10.756 -32.688,10.756 -46.216,0 L -174.886,0"
             style="fill:none;stroke:#000000;stroke-width:15;stroke-linecap:round;stroke-linejoin:round;stroke-miterlimit:10;stroke-dasharray:none;stroke-opacity:1"
             id="path3014" /></g><g
           id="g3016"
           transform="translate(259.3145,92.0068)"><path
             d="m 0,0 h -134.245 c -11.11,0 -20.116,-9.006 -20.116,-20.116 0,-7.716 4.348,-14.408 10.724,-17.782"
             style="fill:none;stroke:#000000;stroke-width:15;stroke-linecap:round;stroke-linejoin:round;stroke-miterlimit:10;stroke-dasharray:none;stroke-opacity:1"
             id="path3018" /></g><g
           id="g3020"
           transform="translate(386.6768,186.3818)"><path
             d="M 0,0 C 17.428,51.912 17.389,98.521 15.853,121.49"
             style="fill:none;stroke:#000000;stroke-width:15;stroke-linecap:round;stroke-linejoin:round;stroke-miterlimit:10;stroke-dasharray:none;stroke-opacity:1"
             id="path3022" /></g><g
           id="g3024"
           transform="translate(57.7246,307.8716)"><path
             d="M 0,0 C -2.451,-36.62 -1.095,-133.368 68.846,-215.865"
             style="fill:none;stroke:#000000;stroke-width:15;stroke-linecap:round;stroke-linejoin:round;stroke-miterlimit:10;stroke-dasharray:none;stroke-opacity:1"
             id="path3026" /></g><g
           id="g3028"
           transform="translate(370.4443,356.5757)"><path
             d="m 0,0 43.714,89.072 c 6.689,13.63 1.749,30.113 -11.336,37.816 -13.084,7.704 -29.895,4.026 -38.566,-8.437 L -88.614,0"
             style="fill:none;stroke:#000000;stroke-width:15;stroke-linecap:round;stroke-linejoin:round;stroke-miterlimit:10;stroke-dasharray:none;stroke-opacity:1"
             id="path3030" /></g><g
           id="g3032"
           transform="translate(210.4326,465.3481)"><path
             d="m 0,0 c -28.558,-3.116 -49.387,-26.918 -49.387,-26.918 0,0 25.472,-18.749 54.03,-15.633 17.402,1.899 31.935,11.479 40.632,18.674 4.8,3.97 3.972,11.564 -1.571,14.406 C 33.659,-4.322 17.402,1.899 0,0 Z"
             style="fill:none;stroke:#000000;stroke-width:15;stroke-linecap:round;stroke-linejoin:round;stroke-miterlimit:10;stroke-dasharray:none;stroke-opacity:1"
             id="path3034" /></g><g
           id="g3036"
           transform="translate(141.4097,468.4727)"><path
             d="m 0,0 c 10.399,-26.779 -1.122,-56.235 -1.122,-56.235 0,0 -28.38,13.962 -38.779,40.74 -6.337,16.319 -4.534,33.631 -2.159,44.667 1.311,6.089 8.432,8.854 13.509,5.245 C -19.351,27.877 -6.337,16.318 0,0 Z"
             style="fill:none;stroke:#000000;stroke-width:15;stroke-linecap:round;stroke-linejoin:round;stroke-miterlimit:10;stroke-dasharray:none;stroke-opacity:1"
             id="path3038" /></g></g></g></g></svg>
