<svg id="color_line" viewBox="0 0 256 256" xmlns="http://www.w3.org/2000/svg" data-name="color line"><path d="m122.0931 143.7122c-1.3482-.5032-7.7049-2.9643-32.2331-12.5984l.0033-21.7167c11.88-1.12 31.3489-2.9549 32.7862-3.0868a10.8858 10.8858 0 0 0 -.1-21.7711l-23.3809-.0073.0043-37.4027 22.5607.007a48.2887 48.2887 0 0 1 .36 96.576z" fill="#f56900"/><g fill="#f99631"><path d="m102.4078 43.2575-51.3345-.0065a6.1859 6.1859 0 0 0 -4.6643 7.3519c2.1837 9.1583 9.4284 17.9456 20.3989 24.7422 9.9685 6.1762 20.9609 9.8637 30.958 9.865l4.6368.0008z"/><path d="m116.6 85.4531h4.5155c2.3079 0 3.6.6227 4.4573 2.799a2.5352 2.5352 0 0 0 2.3294.1712l28.2178-29.5454a47.27 47.27 0 0 0 -35-15.3779h-4.5155z"/><path d="m167.9447 73.92c-.1932-.3751-36.0938 24.2779-36.0938 24.2779s29.907 28.291 30.1693 27.9809a46.7616 46.7616 0 0 0 11.1753-29.2465 47.5781 47.5781 0 0 0 -5.2508-23.0123z"/><path d="m94.7079 105.78-24.98 3.4012s.3883 16.3045-.3478 17.03 25.3723 11.3511 25.3723 11.3511z"/><path d="m121.171 105.1021s-.0766.0014-.1148.0046l-11.726 1.1062-.4769 34.99s19.7878 9.4774 38.8524-3.0015a2.6685 2.6685 0 0 0 .6347-1.0083z"/></g><path d="m70.548 110.7561c-3.767-5.0255-11.4661-8.8808-19.3534-11.6987l-2.3379-.8234c-8.3165-3.2308-17.4552-5.6137-24-4.077 0 0-.9786 10.4627 19.459 17.8875s26.2323-1.2884 26.2323-1.2884z" fill="#f56900"/><path d="m68.1113 111.3431c-5.2587-3.4339-13.812-4.4235-22.1875-4.3739l-2.4784.0259c-8.92-.1916-18.3227.6948-23.9471 4.3773 0 0 2.659 10.1664 24.4034 10.1534s24.2096-10.1827 24.2096-10.1827z" fill="#f56900"/><path d="m70.9419 111.5037c-6.116-1.4283-14.492.5672-22.3454 3.4784l-2.32.872c-8.4476 2.8708-16.98 6.92-21.0058 12.3037 0 0 5.9758 8.6439 26.4044 1.1946s19.2668-17.8487 19.2668-17.8487z" fill="#f56900"/><path d="m71.5751 112.25c-6.2358.75-13.4241 5.49-19.8082 10.9112l-1.882 1.613c-6.9562 5.5869-13.5892 12.31-15.5308 18.7461 0 0 8.5718 6.0788 25.2206-7.9083s12.0004-23.362 12.0004-23.362z" fill="#f56900"/><path d="m130.7 192.1056 21.3962-11.7 24.8094 10.8631c-3.59 6.9565-18.7491 19.5542-31.5289 26.2715-8.8022-14.1259-14.6767-25.4346-14.6767-25.4346z" fill="#3c3f42"/><path d="m199.0844 174.8965-27.6744-13.2465-5.9477 12.4252 15.2493 7.299a13.7757 13.7757 0 0 0 18.3728-6.4777z" fill="#3c3f42"/><path d="m92.5263 157.4787c18.3283-11.85 41.2966-21.6958 59.6-25.1512l-7.4479 29.4867-63.33 38.6882-19.2693-20.3383a262.4464 262.4464 0 0 1 30.4472-22.6854z" fill="#3c3f42"/><path d="m207.8232 103.687.1324 10.2147a39.5343 39.5343 0 0 0 19.3216 33.4659l8.78 5.2221c-21.5925 12.4665-39.2944 8.09-47.091-5.4138s-2.7356-31.0225 18.857-43.4889z" fill="#3c3f42"/><path d="m74.54 186.3008a262.4438 262.4438 0 0 1 31.55-21.1249c26.1475-15.0963 58.6478-23.3214 80.719-27.5109a9.864 9.864 0 0 1 9.3151 16.1343c-14.6638 17.0194-38.037 41.0531-64.1846 56.1493a262.4272 262.4272 0 0 1 -34.07 16.7605z" fill="#90adb3"/><path d="m75.9337 184.96a45.9467 45.9467 0 0 1 23.7939 41.2123c-30.4742 13.0477-46.9725 11.9835-52.3154 2.7294s1.9846-24.0739 28.5215-43.9417z" fill="#c1b0a4"/><circle cx="71.638" cy="54.824" fill="#3c3f42" r="3.102"/><circle cx="75.202" cy="209.924" fill="#3c3f42" r="5.346"/><path d="m71.7694 60.1841a5.3624 5.3624 0 1 0 -5.3622-5.3622 5.3685 5.3685 0 0 0 5.3622 5.3622zm0-6.3247a.9624.9624 0 1 1 -.9622.9625.9636.9636 0 0 1 .9622-.9625z"/><path d="m237.1819 150.6988-8.78-5.222a37.568 37.568 0 0 1 -18.2464-31.6035l-.1324-10.2148a2.2 2.2 0 0 0 -3.3-1.8766c-10.649 6.148-18.0483 13.9138-21.3977 22.4573a28.007 28.007 0 0 0 -1.9448 11.8517c-9.4982 1.8826-20.4917 4.4426-31.923 7.8676l2.4369-9.6475a50.9509 50.9509 0 0 0 6.579-6.5536 2.2887 2.2887 0 0 0 1.4232.63c.0774 0 .1558-.0043.2393-.0089a2.2156 2.2156 0 0 0 1.564-.7785 48.9385 48.9385 0 0 0 11.695-30.6091 49.7858 49.7858 0 0 0 -5.495-24.0784 2.2157 2.2157 0 0 0 -1.4239-1.1293c-.479-.12-.7816-.195-1.9324.4107a50.7483 50.7483 0 0 0 -8.6809-11.9906 2.1929 2.1929 0 0 0 -.1267-2.8176 49.3411 49.3411 0 0 0 -36.6161-16.0857h-4.5158a2.2 2.2 0 0 0 -2.2 2.2v1.4343l-9.7969-.003v-1.673a2.2 2.2 0 0 0 -2.2-2.2l-51.3345-.0067a2.2 2.2 0 0 0 -.6126.087 9.0209 9.0209 0 0 0 -5.0534 3.6368h-12.3668a11.342 11.342 0 0 1 -9.8546-5.749 11.3421 11.3421 0 0 1 9.8546-5.7496h74.8771v-4.4h-74.8771a15.6932 15.6932 0 0 0 -11.328 4.8277c-.0022-.0911-.0138-.18-.0138-.2714a11.3544 11.3544 0 0 1 11.3418-11.3416h74.8771v-4.4h-74.8771a15.7344 15.7344 0 0 0 -14.7116 21.3342 15.7342 15.7342 0 0 0 14.7116 21.3343h15.1023c3.7785 6.2559 9.7528 12.0515 17.5068 16.8556 10.6089 6.5726 22.0147 10.1932 32.1164 10.1944l4.6369.0008a2.2 2.2 0 0 0 1.5554-.6443c.01-.01.0173-.0228.0273-.0331l10.8356.0033a2.12 2.12 0 0 0 1.7785.9163h4.5152c1.7134 0 1.9927.3434 2.4109 1.4053a2.2007 2.2007 0 0 0 .3015.5328 3.75 3.75 0 0 0 2.8827 1.2335c.0894.0038.177.0054.2632.0054a3.414 3.414 0 0 0 2.386-.7789 8.6352 8.6352 0 0 1 1.8748 5.3745c0 .1845-.0163.365-.0277.5467-.3747.257-.5871.4029-.6.4119a2.1779 2.1779 0 0 0 -.44 3.2067 8.6925 8.6925 0 0 1 -6.979 4.4871l-.3369-.398a2.139 2.139 0 0 0 -1.7252-.778s-.17.0051-.2752.014l-11.7259 1.1059a2.1934 2.1934 0 0 0 -1.8819 1.527c-3.5226.3318-7.1608.6748-10.3331.9738l-.001-.7466a2.2 2.2 0 0 0 -2.4966-2.1761l-24.3657 3.3176c-3.8645-3.6786-9.9354-7.0112-18.12-9.9353l-2.3053-.8123c-10.7456-4.17-19.2461-5.5678-25.2663-4.1547a2.2 2.2 0 0 0 -1.6874 1.9368c-.0314.3361-.4243 5.8338 6.09 11.8057a28.4183 28.4183 0 0 0 -10.4634 3.774 2.2 2.2 0 0 0 -.9233 2.3974c.0916.35 1.8317 6.4282 11.6714 9.7185a24.598 24.598 0 0 0 -5.5328 5.1925 2.2006 2.2006 0 0 0 -.0475 2.5687c.2.2888 3.6875 5.1043 13.3394 5.1547a26.611 26.611 0 0 0 -4.5526 8.3211 2.2 2.2 0 0 0 .8336 2.43 12.1707 12.1707 0 0 0 6.7789 1.7026c4.7153 0 11.8242-1.9032 21.13-9.7209a51.6349 51.6349 0 0 0 8.2022-8.4662c1.7649 1.0072 5.2126 2.5725 12.0834 5.5006 6.2645 2.67 12.5847 5.2435 12.6478 5.2693a2.2 2.2 0 0 0 3.0293-2.041l-.0018-1.298c3.3646 1.32 6.671 2.6168 9.7178 3.81l-.015 1.1022a2.2 2.2 0 0 0 1.2493 2.0142 30.7429 30.7429 0 0 0 3.2349 1.2684 195.809 195.809 0 0 0 -19.806 11.1756 264.4945 264.4945 0 0 0 -30.7037 22.8785 2.2 2.2 0 0 0 -.1461 3.1667l6.8535 7.2337c-25.2828 20.8609-26.0548 33.7715-21.8287 41.0914 2.5016 4.3326 7.5714 8.1284 17.6626 8.1284 8.463 0 20.4577-2.6713 37.4239-9.9355a2.195 2.195 0 0 0 .7307-.5129 270.5669 270.5669 0 0 0 31.7159-15.828q2.3351-1.3481 4.6382-2.7881c1.75 2.9767 3.708 6.2294 5.832 9.6379a2.1994 2.1994 0 0 0 2.891.7836c13.2276-6.9526 28.6991-19.9222 32.46-27.21a2.2 2.2 0 0 0 -1.0726-3.0242l-9.1123-3.99q2.6154-2.3694 5.129-4.7557l5.9566 2.8512a15.979 15.979 0 0 0 21.3074-7.5123 2.2 2.2 0 0 0 -1.0344-2.9342l-12.677-6.0679c3.01-3.21 5.8228-6.3278 8.4159-9.2887a28.0123 28.0123 0 0 0 11.2362 4.2416 33.0444 33.0444 0 0 0 4.9406.3634c7.8319 0 16.4439-2.6061 25.2071-7.6657a2.2 2.2 0 0 0 .0247-3.796zm-204.1419-94.7388a11.3544 11.3544 0 0 1 -11.3418-11.3419c0-.0915.0116-.18.0137-.2712a15.6928 15.6928 0 0 0 11.3281 4.8278h11.0144a8.1238 8.1238 0 0 0 .2145 1.9384 30.4959 30.4959 0 0 0 1.6186 4.8469zm67.1631 27.051-2.437-.001c-9.2942-.0014-19.8771-3.3876-29.8-9.5353-10.4733-6.4886-17.3693-14.7928-19.4173-23.382a3.9752 3.9752 0 0 1 2.8617-4.642l48.7967.0064zm14.197-.674-9.7968-.003.004-33.0028 9.7969.003zm-87.0843 13.643c5.04-.5017 12.1462.9652 20.7443 4.3052.0217.0086.0437.0166.0658.0244l2.3286.82a65.0064 65.0064 0 0 1 11.65 5.3341 62.5312 62.5312 0 0 0 -16.2038-1.6938l-2.4439.0255q-4.6036-.0963-8.5451.2006c-5.3027-3.5773-7.0343-7.0586-7.5959-9.016zm-4.8831 16.2644c4.5625-2.1967 11.7455-3.2438 20.9653-3.0494.0236 0 .047.0008.07 0l2.4688-.0257a68.2181 68.2181 0 0 1 11.5615.8067 78.0732 78.0732 0 0 0 -9.676 2.9469l-2.2875.86a80.7469 80.7469 0 0 0 -11.2459 4.6991c-7.3566-1.4552-10.5589-4.452-11.8562-6.2381zm5.8934 15.729c3.5361-3.6249 9.9242-7.0678 18.6581-10.0359.0221-.0075.0444-.0153.0661-.0236l2.3107-.8685a66.3917 66.3917 0 0 1 11.8612-3.3254 69.9334 69.9334 0 0 0 -10.8869 7.7711l-1.8555 1.59a85.9843 85.9843 0 0 0 -7.58 6.8019c-6.9661.938-10.8017-.7146-12.5737-1.9101zm29.8332 5.9547c-11.0553 9.288-18.0871 9.1-20.9972 8.3741 2.0832-4.616 6.9086-10.0362 14.1-15.8123.0183-.0145.0362-.0295.054-.0448l1.8745-1.6065c6.3983-5.4339 12.1282-8.8666 16.7245-10.0383.25 2.9678-.7179 9.8541-11.7558 19.1273zm13.6453-8.6781c.0207-.1817.04-.384.0581-.5964 4.2241-7.9794 1.8348-13.0754 1.6832-13.381a2.1768 2.1768 0 0 0 -.23-.36l19.1951-2.6137.0368 25.9838c-8.8521-3.6427-17.7678-7.4836-20.7432-9.0327zm34.9281 10.1207c-2.7775-1.0882-6.0181-2.3591-9.7886-3.8391l-.029-20.5895c3.329-.3138 6.8362-.6444 10.1636-.9579zm60.2748-58.334a45.4177 45.4177 0 0 1 3.9889 19.8379 44.5113 44.5113 0 0 1 -9.291 26.1924c-4.404-3.9346-17.1587-15.9014-26.3634-24.5961 11.0295-7.5631 26.3608-18.0015 31.6655-21.4342zm-4.2264-2.5179c-2.807 1.842-7.2137 4.8368-14.3227 9.669-4.8034 3.265-9.6182 6.5559-13.0364 8.8959a12.96 12.96 0 0 0 -2.9874-6.2207l22.4-23.454a46.2994 46.2994 0 0 1 7.9465 11.1098zm-35.78 11.6622c-1.544-2.5639-3.914-2.9273-5.8862-2.9275h-2.3155l.005-37.5535h2.3154a44.9173 44.9173 0 0 1 31.9513 13.1844zm4.7956 18.4953a13.2512 13.2512 0 0 0 1.6233-1.9695c2.86 2.6984 7.3345 6.9151 11.8022 11.1 5.8826 5.5106 9.5488 8.945 11.9052 11.0846a46.5061 46.5061 0 0 1 -5.1259 5.24 2.2126 2.2126 0 0 0 -.2837.034q-2.6588.5019-5.4467 1.1794l-19.8308-23.4235a13.0323 13.0323 0 0 0 5.3568-3.245zm-20.7236 35.0642.43-31.523 8.7264-.8228 21.3272 25.1911a176.7834 176.7834 0 0 0 -24.2049 8.9427 41.4225 41.4225 0 0 1 -6.2783-1.788zm-45.816 40.58a265.1112 265.1112 0 0 1 28.4633-20.994c17.3449-11.2137 38.23-20.2774 55.4128-24.1331l-2.5981 10.2861c-14.0775 4.4872-28.5724 10.3016-41.5453 17.7916a270.5745 270.5745 0 0 0 -29.5648 19.5518 2.1968 2.1968 0 0 0 -.81.3764c-1.3336.9985-2.6095 1.979-3.84 2.9449zm-15.94 47.4821c-5.0791-8.7976 4.6756-23.4179 26.7862-40.2144a43.7666 43.7666 0 0 1 21.4339 37.1238c-25.6018 10.7497-43.1406 11.888-48.2198 3.0902zm124.3758-35.5389c-4.6484 6.4434-16.768 16.3281-27.54 22.3526-1.7223-2.7947-3.3178-5.4585-4.7706-7.9312a221.8735 221.8735 0 0 0 23.6779-18.2013zm22.268-16.4237a11.5969 11.5969 0 0 1 -14.3 3.55l-4.4773-2.1431q3.6282-3.5516 6.9874-7.0495zm-1.5033-23.4771c-14.821 17.202-37.8888 40.8254-63.618 55.68a271.26 271.26 0 0 1 -28.968 14.6327 48.16 48.16 0 0 0 -21.8416-37.8256 271.3771 271.3771 0 0 1 27.16-17.7686c25.7289-14.8545 57.7215-23.02 80.0293-27.2545a7.664 7.664 0 0 1 7.2381 12.5369zm4.1324 1.8271a12.0536 12.0536 0 0 0 -10.8863-18.8559c-.3424-9.8482 5.9876-19.87 17.97-27.741l.0822 6.3371a41.9961 41.9961 0 0 0 20.3965 35.3284l5.4473 3.2395c-12.8077 6.4419-24.6518 6.9126-33.0097 1.6919z"/><path d="m77.5648 202.8446a7.8018 7.8018 0 0 0 -9.6362 5.5634 7.9169 7.9169 0 0 0 .8145 5.9912 7.9459 7.9459 0 0 0 6.879 3.981 7.7491 7.7491 0 0 0 3.8862-1.0419 7.944 7.944 0 0 0 -1.9438-14.4937zm-.2562 10.6831a3.4951 3.4951 0 0 1 -4.755-1.3285 3.5426 3.5426 0 0 1 -.3679-2.68 3.4019 3.4019 0 0 1 4.2122-2.4317 3.54 3.54 0 0 1 2.1369 1.6583 3.4953 3.4953 0 0 1 -1.2262 4.7819z"/></svg>