<?xml version="1.0" encoding="UTF-8" standalone="no"?>
<!-- Created with Inkscape (http://www.inkscape.org/) -->

<svg
   version="1.1"
   id="svg2628"
   xml:space="preserve"
   width="682.66669"
   height="682.66669"
   viewBox="0 0 682.66669 682.66669"
   xmlns="http://www.w3.org/2000/svg"
   xmlns:svg="http://www.w3.org/2000/svg"><defs
     id="defs2632"><clipPath
       clipPathUnits="userSpaceOnUse"
       id="clipPath2646"><path
         d="M 0,512 H 512 V 0 H 0 Z"
         id="path2644" /></clipPath></defs><g
     id="g2634"
     transform="matrix(1.3333333,0,0,-1.3333333,0,682.66667)"><g
       id="g2636"
       transform="translate(81.4385,375.9487)"><path
         d="M 0,0 V -191.928"
         style="fill:none;stroke:#000000;stroke-width:15;stroke-linecap:round;stroke-linejoin:round;stroke-miterlimit:10;stroke-dasharray:none;stroke-opacity:1"
         id="path2638" /></g><g
       id="g2640"><g
         id="g2642"
         clip-path="url(#clipPath2646)"><g
           id="g2648"
           transform="translate(133.7207,428.2241)"><path
             d="m 0,0 c -28.874,28.874 -75.688,28.876 -104.563,0.002 -28.873,-28.873 -28.872,-75.689 0.002,-104.562 28.873,-28.874 75.687,-28.873 104.561,0 C 28.873,-75.686 28.873,-28.874 0,0"
             style="fill:#df646e;fill-opacity:1;fill-rule:nonzero;stroke:none"
             id="path2650" /></g><g
           id="g2652"
           transform="translate(133.7207,428.2241)"><path
             d="m 0,0 c -9.44,9.44 -20.804,15.773 -32.825,19.041 1.597,-1.349 3.163,-2.758 4.669,-4.264 28.873,-28.873 28.873,-75.686 0,-104.56 -19.434,-19.433 -46.989,-25.766 -71.736,-19.04 29.049,-24.513 72.524,-23.104 99.892,4.263 C 28.873,-75.686 28.873,-28.874 0,0"
             style="fill:#dc4955;fill-opacity:1;fill-rule:nonzero;stroke:none"
             id="path2654" /></g><g
           id="g2656"
           transform="translate(133.7207,323.6646)"><path
             d="m 0,0 c -6.583,-6.583 -14.092,-11.66 -22.109,-15.242 28.896,41.577 -5.392,77.433 -30.173,67.526 -5.843,14.599 4.209,32.502 21.961,38.83 C -5.033,100.13 21.068,80.703 21.639,53.861 22.052,34.417 14.837,14.837 0,0"
             style="fill:#eec06b;fill-opacity:1;fill-rule:nonzero;stroke:none"
             id="path2658" /></g><g
           id="g2660"
           transform="translate(155.3184,378.3145)"><path
             d="m 0,0 c -0.785,19.572 -15.146,35.04 -32.72,38.126 7.147,-19.297 5.975,-40.969 -3.53,-59.48 5.739,-12.697 5.39,-30.035 -7.437,-48.507 C -16.497,-57.715 0.969,-30.263 0,0"
             style="fill:#e9a761;fill-opacity:1;fill-rule:nonzero;stroke:none"
             id="path2662" /></g><g
           id="g2664"
           transform="translate(29.1582,428.2266)"><path
             d="M 0,0 C 6.584,6.583 14.089,11.667 22.106,15.249 -6.79,-26.329 27.498,-62.184 52.28,-52.278 58.122,-66.876 48.07,-84.779 30.318,-91.108 5.03,-100.123 -21.071,-80.696 -21.642,-53.854 -22.055,-34.41 -14.837,-14.837 0,0"
             style="fill:#eec06b;fill-opacity:1;fill-rule:nonzero;stroke:none"
             id="path2666" /></g><g
           id="g2668"
           transform="translate(111.6113,308.4229)"><path
             d="m 0,0 c 28.896,41.577 -5.392,77.433 -30.173,67.526 -5.843,14.599 4.209,32.502 21.961,38.83 25.288,9.016 51.39,-10.412 51.96,-37.253"
             style="fill:none;stroke:#000000;stroke-width:15;stroke-linecap:round;stroke-linejoin:round;stroke-miterlimit:10;stroke-dasharray:none;stroke-opacity:1"
             id="path2670" /></g><g
           id="g2672"
           transform="translate(51.2646,443.4751)"><path
             d="m 0,0 c -28.896,-41.577 5.392,-77.433 30.174,-67.526 5.842,-14.599 -4.21,-32.502 -21.962,-38.83 -25.288,-9.016 -51.39,10.412 -51.96,37.253"
             style="fill:none;stroke:#000000;stroke-width:15;stroke-linecap:round;stroke-linejoin:round;stroke-miterlimit:10;stroke-dasharray:none;stroke-opacity:1"
             id="path2674" /></g><g
           id="g2676"
           transform="translate(154.8887,367.4453)"><path
             d="m 0,0 c 2.49,21.644 -4.566,44.177 -21.168,60.779 -28.874,28.873 -75.688,28.876 -104.562,0.002 -28.874,-28.873 -28.873,-75.689 0.001,-104.562 28.874,-28.874 75.687,-28.873 104.561,0 3.46,3.461 6.506,7.179 9.137,11.093"
             style="fill:none;stroke:#000000;stroke-width:15;stroke-linecap:round;stroke-linejoin:round;stroke-miterlimit:10;stroke-dasharray:none;stroke-opacity:1"
             id="path2678" /></g><g
           id="g2680"
           transform="translate(196.623,447.9956)"><path
             d="m 0,0 v -25.687 c 0,-3.491 1.018,-6.906 2.929,-9.828 l 10.533,-16.101 c 4.712,-7.202 7.221,-15.621 7.221,-24.227 v -239.049 h 202.442 v 239.049 c 0,8.606 2.51,17.025 7.221,24.227 l 10.533,16.101 c 1.911,2.922 2.93,6.337 2.93,9.828 V 0 Z"
             style="fill:#80b6fc;fill-opacity:1;fill-rule:nonzero;stroke:none"
             id="path2682" /></g><g
           id="g2684"
           transform="translate(402.166,447.9956)"><path
             d="m 0,0 v -25.687 c 0,-3.491 -1.018,-6.906 -2.929,-9.828 l -10.534,-16.101 c -4.711,-7.202 -7.22,-15.621 -7.22,-24.227 v -239.049 h 38.265 v 239.049 c 0,8.606 2.51,17.025 7.221,24.227 l 10.533,16.101 c 1.911,2.922 2.93,6.337 2.93,9.828 V 0 Z"
             style="fill:#5392f9;fill-opacity:1;fill-rule:nonzero;stroke:none"
             id="path2686" /></g><g
           id="g2688"
           transform="translate(196.623,447.9956)"><path
             d="m 0,0 v -25.687 c 0,-3.491 1.018,-6.906 2.929,-9.828 l 10.533,-16.101 c 4.712,-7.202 7.221,-15.621 7.221,-24.227 v -239.049 h 202.442 v 239.049 c 0,8.606 2.51,17.025 7.221,24.227 l 10.533,16.101 c 1.911,2.922 2.93,6.337 2.93,9.828 V 0"
             style="fill:none;stroke:#000000;stroke-width:15;stroke-linecap:round;stroke-linejoin:round;stroke-miterlimit:10;stroke-dasharray:none;stroke-opacity:1"
             id="path2690" /></g><g
           id="g2692"
           transform="translate(318.2119,123.5654)"><path
             d="m 0,0 87.353,-31.794 77.646,213.33 -87.353,31.794 z"
             style="fill:#e3e0e4;fill-opacity:1;fill-rule:nonzero;stroke:none"
             id="path2694" /></g><g
           id="g2696"
           transform="translate(475.7031,355.7373)"><path
             d="m 0,0 11.2,-14.273 13.881,2.919 c 2.627,0.553 4.65,-2.291 3.268,-4.592 l -20.841,-34.69 -87.354,31.794 6.333,39.967 c 0.42,2.653 3.799,3.53 5.456,1.417 l 6.31,-8.044 c 1.492,-1.903 3.935,-2.792 6.302,-2.294 l 13.889,2.921 c 2.366,0.498 4.809,-0.392 6.301,-2.293 l 8.763,-11.167 c 1.492,-1.902 3.935,-2.791 6.301,-2.293 l 13.89,2.921 C -3.935,2.791 -1.492,1.901 0,0"
             style="fill:#eec06b;fill-opacity:1;fill-rule:nonzero;stroke:none"
             id="path2698" /></g><g
           id="g2700"
           transform="translate(367.165,166.936)"><path
             d="m 0,0 16.551,-23.375 c 2.897,-4.092 9.198,-3.245 10.913,1.467 L 67.858,89.075 c 0.698,1.916 0.412,4.053 -0.767,5.717 L 50.54,118.167 c -2.897,4.092 -9.198,3.246 -10.913,-1.466 L -0.768,5.718 C -1.466,3.801 -1.179,1.665 0,0"
             style="fill:#eec06b;fill-opacity:1;fill-rule:nonzero;stroke:none"
             id="path2702" /></g><g
           id="g2704"
           transform="translate(383.3037,219.104)"><path
             d="m 0,0 -16.906,-46.45 c -0.698,-1.917 -0.411,-4.053 0.767,-5.718 L 0.412,-75.542 c 2.898,-4.093 9.198,-3.246 10.913,1.466 L 51.72,36.907 c 0.697,1.916 0.411,4.053 -0.768,5.718 L 34.401,65.999 c -2.897,4.092 -9.198,3.246 -10.913,-1.466 L 11.973,32.895"
             style="fill:none;stroke:#000000;stroke-width:15;stroke-linecap:round;stroke-linejoin:round;stroke-miterlimit:10;stroke-dasharray:none;stroke-opacity:1"
             id="path2706" /></g><g
           id="g2708"
           transform="translate(318.2119,123.5654)"><path
             d="m 0,0 87.353,-31.794 77.646,213.33 -87.353,31.794 z"
             style="fill:none;stroke:#000000;stroke-width:15;stroke-linecap:round;stroke-linejoin:round;stroke-miterlimit:10;stroke-dasharray:none;stroke-opacity:1"
             id="path2710" /></g><g
           id="g2712"
           transform="translate(475.7031,355.7373)"><path
             d="m 0,0 11.2,-14.273 13.881,2.919 c 2.627,0.553 4.65,-2.291 3.268,-4.592 l -20.841,-34.69 -87.354,31.794 6.333,39.967 c 0.42,2.653 3.799,3.53 5.456,1.417 l 6.31,-8.044 c 1.492,-1.903 3.935,-2.792 6.302,-2.294 l 13.889,2.921 c 2.366,0.498 4.809,-0.392 6.301,-2.293 l 8.763,-11.167 c 1.492,-1.902 3.935,-2.791 6.301,-2.293 l 13.89,2.921 C -3.935,2.791 -1.492,1.901 0,0 Z"
             style="fill:none;stroke:#000000;stroke-width:15;stroke-linecap:round;stroke-linejoin:round;stroke-miterlimit:10;stroke-dasharray:none;stroke-opacity:1"
             id="path2714" /></g><g
           id="g2716"
           transform="translate(252.7646,78.0664)"><path
             d="m 0,0 h -198.107 c -6.725,0 -12.176,5.451 -12.176,12.175 v 144.19 c 0,6.724 5.451,12.176 12.176,12.176 H 0 c 6.724,0 12.175,-5.452 12.175,-12.176 V 12.175 C 12.175,5.451 6.724,0 0,0"
             style="fill:#eec06b;fill-opacity:1;fill-rule:nonzero;stroke:none"
             id="path2718" /></g><g
           id="g2720"
           transform="translate(252.7646,246.6069)"><path
             d="m 0,0 h -33.377 c 6.725,0 12.176,-5.451 12.176,-12.176 v -144.189 c 0,-6.724 -5.451,-12.176 -12.176,-12.176 H 0 c 6.724,0 12.175,5.452 12.175,12.176 V -12.176 C 12.175,-5.451 6.724,0 0,0"
             style="fill:#e9a761;fill-opacity:1;fill-rule:nonzero;stroke:none"
             id="path2722" /></g><g
           id="g2724"
           transform="translate(153.7109,202.4775)"><path
             d="m 0,0 c -33.974,0 -61.514,-17.972 -61.514,-40.141 0,-22.169 27.54,-40.141 61.514,-40.141 33.973,0 61.514,17.972 61.514,40.141 C 61.514,-17.972 33.973,0 0,0"
             style="fill:#f8e7c7;fill-opacity:1;fill-rule:nonzero;stroke:none"
             id="path2726" /></g><g
           id="g2728"
           transform="translate(153.7109,202.4775)"><path
             d="m 0,0 c -33.974,0 -61.514,-17.972 -61.514,-40.141 0,-22.169 27.54,-40.141 61.514,-40.141 33.973,0 61.514,17.972 61.514,40.141 C 61.514,-17.972 33.973,0 0,0 Z"
             style="fill:none;stroke:#000000;stroke-width:15;stroke-linecap:round;stroke-linejoin:round;stroke-miterlimit:10;stroke-dasharray:none;stroke-opacity:1"
             id="path2730" /></g><g
           id="g2732"
           transform="translate(252.7646,78.0664)"><path
             d="m 0,0 h -198.107 c -6.725,0 -12.176,5.451 -12.176,12.175 v 144.19 c 0,6.724 5.451,12.176 12.176,12.176 H 0 c 6.724,0 12.175,-5.452 12.175,-12.176 V 12.175 C 12.175,5.451 6.724,0 0,0 Z"
             style="fill:none;stroke:#000000;stroke-width:15;stroke-linecap:round;stroke-linejoin:round;stroke-miterlimit:10;stroke-dasharray:none;stroke-opacity:1"
             id="path2734" /></g><g
           id="g2736"
           transform="translate(9.1055,161.6611)"><path
             d="m 0,0 v -133.077 c 0,-2.91 2.359,-5.269 5.27,-5.269 h 463.896 c 2.91,0 5.27,2.359 5.27,5.269 V 0 c 0,2.91 -2.36,5.269 -5.27,5.269 H 5.27 C 2.359,5.269 0,2.91 0,0"
             style="fill:#ab7b64;fill-opacity:1;fill-rule:nonzero;stroke:none"
             id="path2738" /></g><g
           id="g2740"
           transform="translate(478.2715,166.9302)"><path
             d="m 0,0 h -31.099 c 2.911,0 5.27,-2.359 5.27,-5.269 v -133.077 c 0,-2.91 -2.359,-5.269 -5.27,-5.269 H 0 c 2.91,0 5.27,2.359 5.27,5.269 V -5.269 C 5.27,-2.359 2.91,0 0,0"
             style="fill:#9a6a53;fill-opacity:1;fill-rule:nonzero;stroke:none"
             id="path2742" /></g><g
           id="g2744"
           transform="translate(9.1055,161.6611)"><path
             d="m 0,0 v -133.077 c 0,-2.91 2.359,-5.269 5.27,-5.269 h 463.896 c 2.91,0 5.27,2.359 5.27,5.269 V 0 c 0,2.91 -2.36,5.269 -5.27,5.269 H 5.27 C 2.359,5.269 0,2.91 0,0 Z"
             style="fill:none;stroke:#000000;stroke-width:15;stroke-linecap:round;stroke-linejoin:round;stroke-miterlimit:10;stroke-dasharray:none;stroke-opacity:1"
             id="path2746" /></g><g
           id="g2748"
           transform="translate(201.7109,488.6851)"><path
             d="m 0,0 h 233.632 c 2.81,0 5.089,-2.278 5.089,-5.088 V -40.689 H -5.088 V -5.088 C -5.088,-2.278 -2.811,0 0,0"
             style="fill:#f8e7c7;fill-opacity:1;fill-rule:nonzero;stroke:none"
             id="path2750" /></g><g
           id="g2752"
           transform="translate(435.3428,488.6851)"><path
             d="m 0,0 h -38.266 c 2.811,0 5.089,-2.278 5.089,-5.088 V -40.689 H 5.089 V -5.088 C 5.089,-2.278 2.811,0 0,0"
             style="fill:#f8e7c7;fill-opacity:1;fill-rule:nonzero;stroke:none"
             id="path2754" /></g><g
           id="g2756"
           transform="translate(308.1689,488.6851)"><path
             d="m 0,0 h 127.174 c 2.81,0 5.089,-2.278 5.089,-5.088 v -35.601 h -243.809 v 35.601 c 0,2.81 2.277,5.088 5.088,5.088 L -35,0"
             style="fill:none;stroke:#000000;stroke-width:15;stroke-linecap:round;stroke-linejoin:round;stroke-miterlimit:10;stroke-dasharray:none;stroke-opacity:1"
             id="path2758" /></g><g
           id="g2760"
           transform="translate(353.1211,351.5444)"><path
             d="m 0,0 c -13.406,13.407 -39.763,8.787 -58.869,-10.319 -19.106,-19.106 -23.726,-45.463 -10.319,-58.869 13.406,-13.407 39.762,-8.787 58.869,10.319 C 8.786,-39.763 13.407,-13.406 0,0"
             style="fill:#f8e7c7;fill-opacity:1;fill-rule:nonzero;stroke:none"
             id="path2762" /></g><g
           id="g2764"
           transform="translate(353.1211,351.5444)"><path
             d="m 0,0 c -13.406,13.407 -39.763,8.787 -58.869,-10.319 -19.106,-19.106 -23.726,-45.463 -10.319,-58.869 13.406,-13.407 39.762,-8.787 58.869,10.319 C 8.786,-39.763 13.407,-13.406 0,0 Z"
             style="fill:none;stroke:#000000;stroke-width:15;stroke-linecap:round;stroke-linejoin:round;stroke-miterlimit:10;stroke-dasharray:none;stroke-opacity:1"
             id="path2766" /></g></g></g></g></svg>
