<?xml version="1.0" encoding="UTF-8"?>
<svg xmlns="http://www.w3.org/2000/svg" xmlns:xlink="http://www.w3.org/1999/xlink" version="1.1" id="Capa_1" x="0px" y="0px" viewBox="0 0 512.002 512.002" style="enable-background:new 0 0 512.002 512.002;" xml:space="preserve" width="512" height="512">
<g>
	<path style="fill:#B7EABC;" d="M491.106,68.788c0.92-0.892,1.802-1.848,2.64-2.869c10.461-12.741,10.102-31.521-0.839-43.852&#10;&#9;&#9;c-13.054-14.712-35.585-15.217-49.289-1.513c-0.075,0.075-0.15,0.151-0.225,0.227c-4.274,4.355-10.399,6.159-16.378,4.936&#10;&#9;&#9;c-10.73-2.194-22.316,0.853-30.66,9.144c-13.248,13.165-12.81,35.207,0.397,48.414l32.009,32.008&#10;&#9;&#9;c13.206,13.206,35.249,13.644,48.414,0.397c8.292-8.344,11.338-19.931,9.144-30.661C485.112,79.114,486.778,72.983,491.106,68.788z&#10;&#9;&#9;"/>
	<path style="fill:none;stroke:#000000;stroke-width:20;stroke-linecap:round;stroke-linejoin:round;stroke-miterlimit:10;" d="&#10;&#9;&#9;M491.106,68.788c0.92-0.892,1.802-1.848,2.64-2.869c10.461-12.741,10.102-31.521-0.839-43.852&#10;&#9;&#9;c-13.054-14.712-35.585-15.217-49.289-1.513c-0.075,0.075-0.15,0.151-0.225,0.227c-4.274,4.355-10.399,6.159-16.378,4.936&#10;&#9;&#9;c-10.73-2.194-22.316,0.853-30.66,9.144c-13.248,13.165-12.81,35.207,0.397,48.414l32.009,32.008&#10;&#9;&#9;c13.206,13.206,35.249,13.644,48.414,0.397c8.292-8.344,11.338-19.931,9.144-30.661C485.112,79.114,486.778,72.983,491.106,68.788z&#10;&#9;&#9;"/>
	
		<line style="fill:none;stroke:#000000;stroke-width:20;stroke-linecap:round;stroke-linejoin:round;stroke-miterlimit:10;" x1="443.995" y1="68.041" x2="393.982" y2="118.054"/>
	<g>
		<g>
			<circle style="fill:#A0C8FF;" cx="256.001" cy="256.001" r="155.729"/>
		</g>
		<path style="fill:#5CD0B1;" d="M255.621,166.371c6.27,6.28,9.79,14.78,9.79,23.65v24.75c0,8.88-3.52,17.38-9.79,23.66&#10;&#9;&#9;&#9;l-30.34,30.34c-3.14,3.13-6.84,5.58-10.86,7.25c-4.02,1.66-8.36,2.54-12.8,2.54c-18.47,0-33.44-14.97-33.44-33.45v-7.75&#10;&#9;&#9;&#9;c0-8.87-3.53-17.38-9.8-23.65l-36.65-36.65c27.08-45.96,77.07-76.79,134.27-76.79c5.23,0,10.4,0.26,15.5,0.76l-16.96,16.96&#10;&#9;&#9;&#9;c-13.07,13.06-13.07,34.24,0,47.3L255.621,166.371z"/>
		<path style="fill:#5CD0B1;" d="M411.731,256.001c0,44.83-18.94,85.24-49.26,113.65l-48.4-48.41c-2.37-2.38-4.23-5.17-5.49-8.21&#10;&#9;&#9;&#9;c-1.26-3.04-1.93-6.33-1.93-9.68c0-13.98,11.33-25.31,25.31-25.31h7.4c6.71,0,13.15-2.67,17.89-7.41l11.62-11.62&#10;&#9;&#9;&#9;c4.74-4.74,11.18-7.41,17.89-7.41h24.91C411.711,253.061,411.731,254.531,411.731,256.001z"/>
		<path style="fill:#5CD0B1;" d="M259.471,388.591v23.1c-1.15,0.03-2.31,0.04-3.47,0.04c-57.85,0-108.32-31.54-135.18-78.35h55.16&#10;&#9;&#9;&#9;c7.54,0,14.77,3,20.1,8.33l10.13,10.13c5.33,5.33,12.56,8.33,20.1,8.33h4.74C246.741,360.171,259.471,372.891,259.471,388.591z"/>
	</g>
	<g>
		<g>
			
				<circle style="fill:none;stroke:#000000;stroke-width:20;stroke-linecap:round;stroke-linejoin:round;stroke-miterlimit:10;" cx="256.001" cy="256.001" r="155.729"/>
		</g>
		<path style="fill:none;stroke:#000000;stroke-width:20;stroke-linecap:round;stroke-linejoin:round;stroke-miterlimit:10;" d="&#10;&#9;&#9;&#9;M255.621,166.371c6.27,6.28,9.79,14.78,9.79,23.65v24.75c0,8.88-3.52,17.38-9.79,23.66l-30.34,30.34&#10;&#9;&#9;&#9;c-3.14,3.13-6.84,5.58-10.86,7.25c-4.02,1.66-8.36,2.54-12.8,2.54c-18.47,0-33.44-14.97-33.44-33.45v-7.75&#10;&#9;&#9;&#9;c0-8.87-3.53-17.38-9.8-23.65l-36.65-36.65c27.08-45.96,77.07-76.79,134.27-76.79c5.23,0,10.4,0.26,15.5,0.76l-16.96,16.96&#10;&#9;&#9;&#9;c-13.07,13.06-13.07,34.24,0,47.3L255.621,166.371z"/>
		<path style="fill:none;stroke:#000000;stroke-width:20;stroke-linecap:round;stroke-linejoin:round;stroke-miterlimit:10;" d="&#10;&#9;&#9;&#9;M411.731,256.001c0,44.83-18.94,85.24-49.26,113.65l-48.4-48.41c-2.37-2.38-4.23-5.17-5.49-8.21c-1.26-3.04-1.93-6.33-1.93-9.68&#10;&#9;&#9;&#9;c0-13.98,11.33-25.31,25.31-25.31h7.4c6.71,0,13.15-2.67,17.89-7.41l11.62-11.62c4.74-4.74,11.18-7.41,17.89-7.41h24.91&#10;&#9;&#9;&#9;C411.711,253.061,411.731,254.531,411.731,256.001z"/>
		<path style="fill:none;stroke:#000000;stroke-width:20;stroke-linecap:round;stroke-linejoin:round;stroke-miterlimit:10;" d="&#10;&#9;&#9;&#9;M259.471,388.591v23.1c-1.15,0.03-2.31,0.04-3.47,0.04c-57.85,0-108.32-31.54-135.18-78.35h55.16c7.54,0,14.77,3,20.1,8.33&#10;&#9;&#9;&#9;l10.13,10.13c5.33,5.33,12.56,8.33,20.1,8.33h4.74C246.741,360.171,259.471,372.891,259.471,388.591z"/>
	</g>
	<g>
		<path style="fill:#B7EABC;" d="M32.03,427.92c-29.862,29.862-20.706,72.521-20.706,72.521s43.366,9.863,73.228-19.999l0,0l0,0l0,0&#10;&#9;&#9;&#9;l0,0c29.862-29.862,19.999-73.228,19.999-73.228S61.892,398.058,32.03,427.92L32.03,427.92z"/>
		<path style="fill:none;stroke:#000000;stroke-width:20;stroke-linecap:round;stroke-linejoin:round;stroke-miterlimit:10;" d="&#10;&#9;&#9;&#9;M491.106,68.788c0.92-0.892,1.802-1.848,2.64-2.869c10.461-12.741,10.102-31.521-0.839-43.852&#10;&#9;&#9;&#9;c-13.054-14.712-35.585-15.217-49.289-1.513c-0.075,0.075-0.15,0.151-0.225,0.227c-4.274,4.355-10.399,6.159-16.378,4.936&#10;&#9;&#9;&#9;c-10.73-2.194-22.316,0.853-30.66,9.144c-13.248,13.165-12.81,35.207,0.397,48.414l32.009,32.008&#10;&#9;&#9;&#9;c13.206,13.206,35.249,13.644,48.414,0.397c8.292-8.344,11.338-19.931,9.144-30.661C485.112,79.114,486.778,72.983,491.106,68.788&#10;&#9;&#9;&#9;z"/>
		<path style="fill:none;stroke:#000000;stroke-width:20;stroke-linecap:round;stroke-linejoin:round;stroke-miterlimit:10;" d="&#10;&#9;&#9;&#9;M32.03,427.92c-29.862,29.862-20.706,72.521-20.706,72.521s43.366,9.863,73.228-19.999l0,0l0,0l0,0l0,0&#10;&#9;&#9;&#9;c29.862-29.862,19.999-73.228,19.999-73.228S61.892,398.058,32.03,427.92L32.03,427.92z"/>
		
			<line style="fill:none;stroke:#000000;stroke-width:20;stroke-linecap:round;stroke-linejoin:round;stroke-miterlimit:10;" x1="63.2" y1="448.565" x2="115.155" y2="396.61"/>
	</g>
	<path style="fill:#FFFFFF;" d="M29.211,29.212C3.605,54.818,3.596,96.341,29.203,121.947l27.876-27.876l31.862,31.862&#10;&#9;&#9;c18.607-3.855,33.145-18.393,36.992-36.991L94.07,57.08l27.876-27.876C96.341,3.597,54.826,3.597,29.211,29.212z"/>
	<path style="fill:none;stroke:#000000;stroke-width:20;stroke-linecap:round;stroke-linejoin:round;stroke-miterlimit:10;" d="&#10;&#9;&#9;M29.211,29.212C3.605,54.818,3.596,96.341,29.203,121.947l27.876-27.876l31.862,31.862c18.607-3.855,33.145-18.393,36.992-36.991&#10;&#9;&#9;L94.07,57.08l27.876-27.876C96.341,3.597,54.826,3.597,29.211,29.212z"/>
	<g>
		<path style="fill:#FFFFFF;" d="M329.638,472.427l142.786-142.789c19.712,19.712,29.577,45.555,29.577,71.398&#10;&#9;&#9;&#9;c0,25.843-9.856,51.678-29.568,71.39C433,511.86,369.07,511.86,329.638,472.427z"/>
		<path style="fill:none;stroke:#000000;stroke-width:20;stroke-linecap:round;stroke-linejoin:round;stroke-miterlimit:10;" d="&#10;&#9;&#9;&#9;M496.017,435.332c3.985-11.06,5.984-22.676,5.984-34.295c0-25.843-9.865-51.686-29.577-71.398L329.638,472.427&#10;&#9;&#9;&#9;c28.692,28.692,70.353,36.5,106.11,23.438"/>
		<path style="fill:#FFCE69;" d="M444.002,358.059c15.139,15.139,20.598,36.338,16.405,55.847c-0.141,0.679-0.297,1.358-0.467,2.022&#10;&#9;&#9;&#9;c-5.317,21.213-22.507,38.474-43.664,43.918c-1.004,0.255-2.008,0.495-3.033,0.686c-19.325,3.953-40.22-1.556-55.19-16.525&#10;&#9;&#9;&#9;L444.002,358.059z"/>
		<path style="fill:none;stroke:#000000;stroke-width:20;stroke-linecap:round;stroke-linejoin:round;stroke-miterlimit:10;" d="&#10;&#9;&#9;&#9;M444.002,358.059c15.139,15.139,20.598,36.338,16.405,55.847c-0.141,0.679-0.297,1.358-0.467,2.022&#10;&#9;&#9;&#9;c-5.317,21.213-22.507,38.474-43.664,43.918c-1.004,0.255-2.008,0.495-3.033,0.686c-19.325,3.953-40.22-1.556-55.19-16.525&#10;&#9;&#9;&#9;L444.002,358.059z"/>
		<path style="fill:none;stroke:#000000;stroke-width:20;stroke-linecap:round;stroke-linejoin:round;stroke-miterlimit:10;" d="&#10;&#9;&#9;&#9;M460.407,413.906c-0.141,0.679-0.297,1.358-0.467,2.022c-5.317,21.213-22.507,38.474-43.664,43.918&#10;&#9;&#9;&#9;c-1.004,0.255-2.008,0.495-3.033,0.686l-12.212-59.503L460.407,413.906z"/>
	</g>
	
		<line style="fill:none;stroke:#000000;stroke-width:20;stroke-linecap:round;stroke-linejoin:round;stroke-miterlimit:10;" x1="472.433" y1="472.427" x2="472.433" y2="472.427"/>
</g>















</svg>
